<svg width="25" height="25" viewBox="0 0 25 25" fill="none" xmlns="http://www.w3.org/2000/svg">
<path d="M0.000805039 10.6442C0.199393 10.0594 0.613118 9.82224 1.21991 9.8581C1.55917 9.87741 1.90394 9.8581 2.24595 9.86362C2.37834 9.86637 2.4473 9.83603 2.48591 9.69537C2.69829 8.88171 3.02375 8.11218 3.44024 7.38127C3.50919 7.26267 3.48437 7.19923 3.39611 7.11648C3.10926 6.83791 2.83068 6.55658 2.54935 6.27249C2.08874 5.80636 2.08322 5.24645 2.53832 4.78584C3.28302 4.03561 4.03048 3.28815 4.7807 2.54069C5.24407 2.08008 5.80398 2.08008 6.26735 2.53517C6.55696 2.81926 6.84657 3.10611 7.1279 3.39848C7.20789 3.48122 7.26857 3.49501 7.37614 3.43434C8.10981 3.00958 8.89037 2.68687 9.70954 2.46622C9.84193 2.43036 9.86676 2.36693 9.864 2.24557C9.85848 1.84012 9.85848 1.43191 9.864 1.02646C9.86952 0.414145 10.2777 0.00317898 10.8928 0.00317898C11.9574 0.000420812 13.0249 0.00317898 14.0895 0.00317898C14.7239 0.00317898 15.1293 0.408629 15.1349 1.03749C15.1376 1.43742 15.1404 1.8346 15.1349 2.23453C15.1349 2.36693 15.1597 2.43588 15.3031 2.47174C16.1168 2.68687 16.8863 3.01234 17.6172 3.42882C17.7275 3.49226 17.7965 3.4895 17.8847 3.39572C18.1661 3.10336 18.4557 2.81651 18.7453 2.53242C19.1894 2.09663 19.7548 2.09111 20.1961 2.5269C20.9601 3.28264 21.7186 4.04113 22.4743 4.80514C22.9129 5.24921 22.9074 5.81187 22.4743 6.2587C22.1902 6.55106 21.9034 6.83791 21.611 7.11924C21.52 7.2075 21.5062 7.2737 21.5724 7.38678C21.9916 8.11494 22.3116 8.88723 22.5295 9.69813C22.5681 9.83879 22.6315 9.87189 22.7667 9.86913C23.1639 9.86086 23.5638 9.86362 23.9637 9.86913C24.5926 9.87189 24.998 10.2801 24.998 10.9117C24.998 11.9764 25.0008 13.0438 24.998 14.1084C24.998 14.7263 24.5871 15.1345 23.9748 15.14C23.5748 15.1427 23.1777 15.1455 22.7777 15.14C22.6398 15.14 22.5626 15.1648 22.5212 15.3165C22.3088 16.1219 21.9861 16.8831 21.5724 17.6058C21.5035 17.7271 21.5117 17.7961 21.611 17.8926C21.9006 18.1684 22.1792 18.4525 22.4578 18.7366C22.9046 19.1917 22.9156 19.7544 22.4688 20.2067C21.7131 20.9707 20.9546 21.7292 20.1906 22.485C19.7493 22.9208 19.1838 22.9125 18.7398 22.4739C18.4667 22.2064 18.1909 21.9416 17.9316 21.6603C17.8075 21.5251 17.7165 21.5003 17.5482 21.5968C16.8559 21.9968 16.1195 22.3002 15.3472 22.507C15.1928 22.5484 15.1211 22.6036 15.1293 22.7829C15.1459 23.1166 15.1183 23.4503 15.1376 23.7841C15.1762 24.3909 14.9363 24.8046 14.3515 25.0032H10.6418C10.0571 24.8046 9.81987 24.3909 9.85572 23.7841C9.87779 23.4365 9.85572 23.0835 9.864 22.736C9.86676 22.6036 9.81987 22.5512 9.69851 22.5208C8.88761 22.3002 8.11532 21.983 7.38717 21.561C7.26857 21.492 7.20789 21.5196 7.12238 21.6079C6.84105 21.9002 6.55145 22.1871 6.26184 22.4712C5.80674 22.918 5.24408 22.9208 4.79174 22.4712C4.036 21.721 3.28302 20.9652 2.53004 20.2095C2.08322 19.7572 2.08598 19.1945 2.53004 18.7421C2.81413 18.4525 3.10098 18.1629 3.39335 17.8816C3.48161 17.7961 3.50919 17.7354 3.44024 17.6168C3.02099 16.8887 2.69829 16.1191 2.48039 15.3055C2.4473 15.1869 2.39765 15.1345 2.26526 15.14C1.91497 15.151 1.56468 15.1262 1.21716 15.1483C0.610359 15.1841 0.196635 14.9497 -0.00195312 14.3622V10.6525L0.000805039 10.6442ZM12.5091 24.0213C12.9973 24.0213 13.4855 24.0158 13.9737 24.024C14.1254 24.0268 14.1667 23.9827 14.164 23.831C14.1557 23.3097 14.1585 22.7884 14.1612 22.2698C14.1612 21.9195 14.2826 21.7623 14.6246 21.6851C15.6479 21.4507 16.6022 21.0507 17.4958 20.5019C17.8103 20.3088 17.9868 20.3336 18.2543 20.5984C18.6184 20.9597 18.9825 21.3183 19.3383 21.6879C19.4431 21.7954 19.501 21.7982 19.6058 21.6879C20.2981 20.9873 20.9932 20.2895 21.6938 19.5999C21.8041 19.4924 21.7958 19.4317 21.6882 19.3296C21.3131 18.9683 20.9491 18.596 20.5822 18.2264C20.345 17.9864 20.3174 17.7933 20.4967 17.5065C21.0539 16.6073 21.4566 15.6475 21.6965 14.6159C21.7793 14.2656 21.9337 14.1553 22.3061 14.1553C22.8108 14.1553 23.3156 14.1498 23.8203 14.1581C23.9748 14.1608 24.0272 14.1222 24.0272 13.9567C24.0189 12.9803 24.0189 12.004 24.0272 11.0276C24.0272 10.8593 23.9665 10.829 23.8176 10.8317C23.3128 10.84 22.8081 10.8345 22.3033 10.8317C21.9337 10.8317 21.7793 10.7186 21.6993 10.3628C21.4593 9.33129 21.0566 8.37145 20.5022 7.47229C20.3285 7.1882 20.3561 6.98961 20.5933 6.75241C20.9546 6.38833 21.3131 6.02425 21.6827 5.66569C21.7903 5.56088 21.8151 5.49744 21.691 5.37884C20.9932 4.69482 20.3037 4.00252 19.6196 3.30746C19.5093 3.19437 19.4459 3.18886 19.3328 3.30746C18.9715 3.68257 18.6019 4.04941 18.2295 4.41348C18.0033 4.63689 17.7965 4.66172 17.5262 4.49347C16.6215 3.9308 15.6506 3.52811 14.6136 3.28539C14.2743 3.20541 14.164 3.05095 14.164 2.69239C14.164 2.17937 14.1585 1.66635 14.1667 1.15333C14.1667 1.00163 14.1254 0.96302 13.9764 0.96302C13 0.968536 12.0236 0.968536 11.0473 0.96302C10.8928 0.96302 10.8376 0.996118 10.8404 1.16161C10.8514 1.66635 10.8459 2.1711 10.8431 2.67584C10.8431 3.05922 10.7301 3.21368 10.3632 3.29643C9.3565 3.53087 8.41872 3.92253 7.53887 4.46313C7.19686 4.67551 7.02033 4.65069 6.739 4.37211C6.38596 4.02182 6.03015 3.67705 5.68814 3.31573C5.55575 3.17507 5.48955 3.19713 5.36543 3.32125C4.69244 4.00528 4.01393 4.68378 3.32991 5.35678C3.21131 5.47262 3.19752 5.53881 3.32439 5.66017C3.69123 6.0077 4.04152 6.36902 4.39732 6.72758C4.66762 7.00064 4.69244 7.17716 4.48834 7.50538C3.94222 8.39076 3.5478 9.33957 3.31612 10.3546C3.23613 10.7049 3.07892 10.8207 2.70932 10.8207C2.1963 10.8207 1.68329 10.8262 1.17027 10.8207C1.02684 10.8207 0.974437 10.8483 0.974437 11.0055C0.982711 11.9902 0.982711 12.9748 0.974437 13.9595C0.974437 14.1167 1.02684 14.147 1.17027 14.147C1.69156 14.1388 2.21285 14.1415 2.73139 14.147C3.07892 14.147 3.23889 14.2684 3.31612 14.6104C3.55056 15.6337 3.95325 16.5853 4.50489 17.4789C4.6952 17.7878 4.67038 17.9616 4.41938 18.2181C4.05255 18.5877 3.68847 18.96 3.31336 19.3214C3.20855 19.4234 3.19476 19.4813 3.30784 19.5889C4.00842 20.2812 4.70623 20.9763 5.39577 21.6768C5.50334 21.7844 5.56126 21.7844 5.66332 21.6768C6.0136 21.3128 6.37492 20.9597 6.73073 20.6039C7.03137 20.306 7.18582 20.2812 7.54714 20.5019C8.427 21.0425 9.36753 21.4314 10.3743 21.6658C10.7245 21.7485 10.8404 21.903 10.8404 22.2726C10.8404 22.7773 10.8514 23.2821 10.8349 23.7868C10.8294 23.9771 10.8928 24.0158 11.0693 24.0102C11.5492 23.9992 12.0292 24.0075 12.5091 24.0075V24.0213Z" fill="#697A8D"/>
<path d="M19.6297 12.4639C19.6297 16.1791 16.8053 19.2683 13.1673 19.5882C9.3169 19.9275 5.97676 17.2686 5.4334 13.4348C4.89556 9.64229 7.60132 6.02634 11.3938 5.46091C12.9135 5.23474 14.3561 5.46643 15.7296 6.14494C15.7958 6.17803 15.8593 6.21113 15.9227 6.24699C16.2123 6.41248 16.3088 6.6883 16.1682 6.94205C16.0303 7.18752 15.7545 7.26199 15.4704 7.10754C14.9215 6.81517 14.345 6.60279 13.7382 6.47316C10.3622 5.75604 6.98901 8.06738 6.44289 11.4765C5.8885 14.9297 8.18881 18.074 11.6448 18.5898C15.0346 19.0973 18.2534 16.6011 18.6147 13.192C18.7388 12.0309 18.554 10.9248 18.063 9.86846C18.0465 9.8326 18.0272 9.79399 18.0134 9.75813C17.9003 9.4768 17.9886 9.21202 18.2368 9.09341C18.4878 8.97481 18.7553 9.06859 18.8905 9.33889C19.2022 9.95948 19.4145 10.6159 19.5304 11.2999C19.5993 11.7026 19.6407 12.1053 19.6324 12.4611L19.6297 12.4639Z" fill="#697A8D"/>
<path d="M16.755 11.1326C16.7661 11.2925 16.6944 11.4139 16.5868 11.5215C15.1194 12.9888 13.6549 14.4561 12.1848 15.9207C11.942 16.1607 11.6773 16.1579 11.4345 15.9152C10.425 14.9112 9.41832 13.9045 8.41435 12.895C8.17438 12.6523 8.17438 12.3875 8.41435 12.142C8.96874 11.5794 9.52589 11.0222 10.0886 10.4678C10.3478 10.2113 10.6098 10.2168 10.8774 10.4789C11.1449 10.7409 11.4125 11.0029 11.669 11.276C11.7793 11.3946 11.8455 11.3891 11.9586 11.276C12.6619 10.5644 13.3708 9.85829 14.0796 9.1522C14.4078 8.82398 14.6478 8.82122 14.9733 9.14668C15.4973 9.66797 16.0214 10.1948 16.5454 10.7161C16.664 10.8347 16.7688 10.956 16.7605 11.1353L16.755 11.1326ZM15.5745 11.1463C15.5332 11.0995 15.5001 11.0553 15.4587 11.0167C15.1994 10.7574 14.9346 10.5065 14.6864 10.2362C14.5623 10.101 14.4933 10.1065 14.3637 10.2362C13.6631 10.9505 12.9543 11.6539 12.2454 12.3599C11.9282 12.6771 11.6938 12.6744 11.3711 12.3572C11.1118 12.1007 10.8498 11.8442 10.5961 11.5794C10.4995 11.4773 10.4416 11.4856 10.3478 11.5821C10.083 11.858 9.81273 12.1283 9.53692 12.393C9.4459 12.4785 9.41556 12.5309 9.52313 12.6385C10.2485 13.3529 10.9656 14.0728 11.68 14.7926C11.7738 14.8892 11.829 14.9002 11.931 14.7982C13.106 13.6149 14.2865 12.4372 15.4642 11.2594C15.4973 11.2263 15.5304 11.1877 15.569 11.1463H15.5745Z" fill="#697A8D"/>
<path d="M17.7826 7.90294C17.7854 8.17324 17.584 8.39114 17.3165 8.39941C17.0462 8.40769 16.8117 8.17876 16.8145 7.90846C16.8145 7.64643 17.0379 7.42578 17.2999 7.42578C17.5675 7.42578 17.7798 7.6354 17.7826 7.90294Z" fill="#697A8D"/>
</svg>
