<svg width="25" height="25" viewBox="0 0 25 25" fill="none" xmlns="http://www.w3.org/2000/svg">
<path id="Vector" d="M24.1858 22.734C24.0331 22.3061 23.7546 21.9921 23.5023 21.7417C22.9347 21.178 22.3686 20.6115 21.8032 20.0457C21.2208 19.4629 20.6377 18.8801 20.0532 18.2988C19.969 18.2153 19.9662 18.1991 20.0178 18.1029C21.266 15.7604 20.9501 12.9484 19.2135 10.9398C19.0785 10.7835 19.0262 10.6413 19.0276 10.432C19.0325 9.57551 19.0325 8.70488 19.0325 7.86325C19.0325 7.10719 19.0325 6.32568 19.0361 5.5576C19.0375 5.24287 18.935 4.99321 18.7124 4.77184C17.3108 3.37855 15.8555 1.92232 14.261 0.319679C14.044 0.101137 13.8023 0 13.4991 0C10.3807 0.00424352 7.65316 0.00353627 4.76591 0.00353627H1.74437C0.652371 0.00353627 0 0.656331 0 1.74904V23.0338C0 24.1789 0.253739 24.5629 1.29343 24.9887L1.31888 24.9993H17.7108L17.7342 24.9908C18.0607 24.8699 18.3985 24.7454 18.6473 24.4399C18.9018 24.1273 19.0311 23.7609 19.0311 23.3507V22.3032L19.3732 22.6427C19.8729 23.1378 20.3889 23.6491 20.8872 24.1619C21.2349 24.5205 21.6328 24.8692 22.1877 24.9965L22.2032 25H22.7015L22.8945 24.9986L22.881 24.9562C23.4889 24.7765 23.9264 24.372 24.1829 23.7531L24.1935 23.7269V22.7573L24.1851 22.734H24.1858ZM17.7829 22.6526C17.7843 22.8648 17.7858 23.077 17.7843 23.2892C17.7829 23.6385 17.6706 23.751 17.3221 23.751C11.872 23.7517 7.15911 23.7517 1.70832 23.751C1.35987 23.751 1.2482 23.6385 1.2482 23.2884C1.24749 16.0971 1.24749 8.90574 1.2482 1.71438C1.2482 1.365 1.36058 1.25255 1.71044 1.25255H4.55599C7.33864 1.25255 9.9665 1.25184 12.9838 1.24689H12.9859C13.0269 1.24689 13.0481 1.25042 13.0587 1.25255C13.0608 1.26386 13.0644 1.2872 13.0637 1.33459C13.0566 2.20168 13.058 3.08292 13.0594 3.93516V4.25625C13.0615 5.31855 13.7189 5.97912 14.7755 5.98124C15.5389 5.98266 16.3015 5.98195 17.0648 5.98124H17.7186L17.754 5.98054C17.7646 5.98054 17.778 5.98054 17.79 5.98054C17.79 5.98619 17.79 5.99327 17.79 6.00105C17.7843 6.93179 17.7843 7.8781 17.7843 8.79258C17.7843 9.09175 17.7843 9.39162 17.7843 9.68937C17.7822 9.68796 17.7801 9.68725 17.778 9.68584C17.525 9.53732 17.2641 9.38384 16.9906 9.26007C15.3247 8.50756 13.4072 8.50826 11.7314 9.2629C10.0563 10.0168 8.78403 11.4511 8.24121 13.1981C7.86167 14.4195 7.8447 15.6388 8.18962 16.8206C8.24687 17.0165 8.69144 18.1014 8.7699 18.2358C9.82443 20.0521 11.3985 21.1349 13.4482 21.4545C14.7932 21.6639 16.1022 21.4362 17.3384 20.7777C17.443 20.7225 17.4642 20.7261 17.5631 20.8159C17.7363 20.9722 17.8006 21.1299 17.7928 21.3782C17.7787 21.8032 17.7815 22.2346 17.7836 22.6519L17.7829 22.6526ZM14.3536 20.2748C12.9845 20.2748 11.6925 19.7373 10.7143 18.7606C9.73326 17.7804 9.19256 16.4833 9.19256 15.1076C9.19256 13.732 9.73326 12.4349 10.7143 11.4547C11.6925 10.478 12.9838 9.94045 14.3529 9.94045H14.362C17.1956 9.9454 19.5096 12.2588 19.5202 15.0963C19.5252 16.467 18.9908 17.762 18.0155 18.7436C17.0366 19.7288 15.7396 20.2727 14.362 20.2748H14.3529H14.3536ZM16.035 4.73294C15.9022 4.73294 15.77 4.73294 15.6378 4.73365C15.3346 4.73436 15.0215 4.73577 14.7133 4.73153C14.5663 4.72941 14.3189 4.68485 14.3147 4.4069C14.3048 3.80007 14.3062 3.18476 14.3083 2.58996C14.3083 2.46478 14.309 2.3396 14.3097 2.21441L16.8281 4.73365H16.0357L16.035 4.73294ZM18.4968 19.9926C18.7625 19.7762 19.0135 19.5252 19.2432 19.2465C19.2439 19.2472 19.2453 19.2486 19.246 19.2493C19.786 19.7918 20.3267 20.3328 20.8674 20.8746C21.524 21.5316 22.1806 22.1894 22.8358 22.8478C23.0083 23.0218 23.0436 23.222 22.9418 23.4433C22.8542 23.6336 22.6987 23.7376 22.481 23.7524C22.3099 23.7425 22.1863 23.6902 22.0809 23.5848L21.1508 22.654C20.2687 21.7714 19.3866 20.888 18.5024 20.0075C18.4982 20.0033 18.4947 19.9997 18.4918 19.9962C18.4933 19.9948 18.4947 19.9934 18.4968 19.9926Z" fill="#3F3F3F"/>
</svg>
