<svg width="30" height="25" viewBox="0 0 30 25" fill="none" xmlns="http://www.w3.org/2000/svg">
<path id="Vector" d="M11.5 6.75L11.5 3.875C11.5 3.1125 11.8073 2.38123 12.3543 1.84207C12.9013 1.3029 13.6431 0.999999 14.4167 0.999999L26.0833 1C26.8569 1 27.5987 1.3029 28.1457 1.84207C28.6927 2.38124 29 3.1125 29 3.875L29 21.125C29 21.8875 28.6927 22.6188 28.1457 23.1579C27.5987 23.6971 26.8569 24 26.0833 24L15 24C13.3893 24 11.5 22.7127 11.5 21.125L11.5 18.25M6.83334 6.75L1 12.5L6.83333 18.25M20.8333 12.5L2.16667 12.5" stroke="#3F3F3F" stroke-width="2" stroke-linecap="round" stroke-linejoin="round"/>
</svg>
