<svg width="21" height="25" viewBox="0 0 21 25" fill="none" xmlns="http://www.w3.org/2000/svg">
<g clip-path="url(#clip0_1550_24404)">
<path d="M14.83 -0.000485342C14.9576 0.112405 15.0921 0.218453 15.2128 0.338185C17.0545 2.16153 18.8893 3.98829 20.7344 5.8048C20.9241 5.98953 21.0035 6.18794 21.0035 6.45135C20.9966 11.593 21 16.7346 21 21.8796C21 22.3859 20.8793 22.5023 20.3551 22.5023C19.7964 22.5023 19.2411 22.5091 18.6824 22.5023C18.5203 22.5023 18.4754 22.5501 18.4754 22.7075C18.4858 23.2856 18.4789 23.8638 18.4754 24.4419C18.4754 24.8627 18.334 25.0029 17.9167 25.0029C12.133 25.0029 6.34932 25.0029 0.569059 25.0029C0.141403 25.0029 0 24.8695 0 24.4556C0 17.0425 0 9.62937 0 2.21626C0 1.80233 0.144851 1.6655 0.56561 1.66208C1.14846 1.66208 1.73132 1.65523 2.31417 1.66208C2.47282 1.66208 2.53145 1.62445 2.52455 1.46024C2.51076 1.1592 2.5349 0.858163 2.51766 0.557123C2.50386 0.300555 2.59698 0.115826 2.82115 -0.00390625C6.82526 -0.00390625 10.8294 -0.00390625 14.8335 -0.00390625L14.83 -0.000485342ZM3.35917 11.2372C3.35917 14.6307 3.35917 18.0243 3.35572 21.4144C3.35572 21.6128 3.40056 21.6744 3.61094 21.6744C9.04286 21.6675 14.4713 21.6675 19.9033 21.6744C20.1068 21.6744 20.1654 21.6231 20.1654 21.4178C20.1585 16.5841 20.1585 11.7503 20.1654 6.92001C20.1654 6.71476 20.1102 6.66344 19.9067 6.66344C18.234 6.67029 16.5613 6.66687 14.8852 6.66687C14.4127 6.66687 14.2886 6.54371 14.2886 6.07163C14.2886 4.41249 14.2851 2.75335 14.2955 1.09078C14.2955 0.875267 14.2403 0.823954 14.023 0.823954C10.5604 0.830795 7.10117 0.830795 3.63853 0.823954C3.40746 0.823954 3.35917 0.888951 3.35917 1.10447C3.36607 4.4809 3.36262 7.85734 3.36262 11.2338L3.35917 11.2372ZM0.841518 13.3547C0.841518 16.8612 0.841518 20.371 0.83462 23.8775C0.83462 24.1032 0.879455 24.1751 1.12432 24.1751C3.66612 24.1648 6.21137 24.1682 8.75316 24.1682C11.6329 24.1682 14.5127 24.1682 17.3925 24.1717C17.5788 24.1717 17.6512 24.1374 17.6408 23.9356C17.6236 23.5525 17.6201 23.1693 17.6408 22.7896C17.6546 22.5467 17.5753 22.4988 17.3442 22.4988C12.6262 22.5057 7.9082 22.5057 3.19018 22.5057C2.62112 22.5057 2.51421 22.3996 2.51421 21.8386C2.51421 15.5168 2.51421 9.1915 2.51421 2.86966C2.51421 2.80466 2.50731 2.73966 2.51421 2.67467C2.53145 2.53441 2.46592 2.49336 2.33142 2.49678C1.9279 2.50362 1.52784 2.51388 1.12432 2.49678C0.886353 2.48309 0.827722 2.55493 0.827722 2.79098C0.83462 6.31451 0.83462 9.83805 0.83462 13.3616L0.841518 13.3547ZM19.4894 5.83216C18.0202 4.37828 16.5751 2.94492 15.1301 1.51156C15.1301 1.52524 15.1232 1.56287 15.1232 1.6005C15.1232 2.9415 15.1266 4.28591 15.1197 5.62691C15.1197 5.81848 15.2025 5.83216 15.3542 5.83216C16.5993 5.82874 17.8478 5.83216 19.0928 5.83216C19.2238 5.83216 19.3515 5.83216 19.4894 5.83216Z" fill="#697A8D"/>
<path d="M13.0125 18.7503C11.395 18.7503 9.78093 18.7503 8.16342 18.7503C8.06685 18.7503 7.96339 18.7503 7.87027 18.7264C7.67024 18.6751 7.56332 18.528 7.56332 18.333C7.56332 18.1277 7.68058 17.9772 7.89441 17.9327C7.98063 17.9156 8.07375 17.9191 8.16342 17.9191C11.4019 17.9191 14.6438 17.9191 17.8823 17.9191C17.965 17.9191 18.0478 17.9122 18.1271 17.9327C18.3341 17.9772 18.4617 18.1106 18.4686 18.3227C18.4755 18.5382 18.3548 18.6785 18.1513 18.7298C18.0582 18.7538 17.9547 18.7503 17.8581 18.7503C16.2406 18.7503 14.6266 18.7503 13.009 18.7503H13.0125Z" fill="#697A8D"/>
<path d="M13.0332 12.918C14.6231 12.918 16.2165 12.918 17.8064 12.918C17.8961 12.918 17.9857 12.918 18.0754 12.9282C18.3134 12.9556 18.4617 13.1061 18.472 13.3182C18.4789 13.5372 18.3272 13.7048 18.0823 13.7424C18.0099 13.7527 17.934 13.7527 17.8616 13.7527C14.63 13.7527 11.3984 13.7527 8.16687 13.7527C8.14963 13.7527 8.13238 13.7527 8.11859 13.7527C7.76336 13.7458 7.56332 13.5987 7.56332 13.3353C7.56332 13.0719 7.75646 12.918 8.11169 12.918C9.75334 12.918 11.3915 12.918 13.0332 12.918Z" fill="#697A8D"/>
<path d="M13.0159 15.4224C14.6334 15.4224 16.2475 15.4224 17.865 15.4224C18.2754 15.4224 18.4685 15.549 18.4754 15.8261C18.4823 16.11 18.2754 16.2571 17.8616 16.2571C14.6369 16.2571 11.4157 16.2571 8.191 16.2571C8.09443 16.2571 7.99441 16.2571 7.89785 16.2332C7.68402 16.1853 7.54607 16.0074 7.57021 15.809C7.5978 15.59 7.72196 15.4532 7.94958 15.4293C8.03925 15.419 8.12892 15.4224 8.21859 15.4224C9.81885 15.4224 11.4191 15.4224 13.0159 15.4224Z" fill="#697A8D"/>
<path d="M13.009 8.7473C11.4088 8.7473 9.80852 8.7473 8.21171 8.7473C8.12204 8.7473 8.02892 8.75072 7.9427 8.74045C7.72887 8.71651 7.57022 8.55573 7.57022 8.35389C7.57022 8.14522 7.67024 7.9947 7.88062 7.94338C7.96684 7.92286 8.05996 7.91602 8.14963 7.91602C11.3984 7.91602 14.6472 7.91602 17.8926 7.91602C17.9823 7.91602 18.0754 7.91944 18.1616 7.94338C18.3754 7.99812 18.4996 8.176 18.4755 8.37784C18.4479 8.58993 18.3203 8.71309 18.1064 8.74388C18.0168 8.75414 17.9271 8.75072 17.8374 8.75072C16.2303 8.75072 14.6231 8.75072 13.0159 8.75072L13.009 8.7473Z" fill="#697A8D"/>
<path d="M13.0332 11.2488C11.4157 11.2488 9.8016 11.2488 8.1841 11.2488C7.76334 11.2488 7.55641 11.1119 7.55986 10.8314C7.55986 10.5543 7.77024 10.4141 8.19099 10.4141C11.4053 10.4141 14.6231 10.4141 17.8374 10.4141C17.9512 10.4141 18.0685 10.4175 18.1788 10.4483C18.3754 10.503 18.4789 10.6467 18.4685 10.8485C18.4616 11.0504 18.3478 11.1838 18.1478 11.2282C18.0443 11.2488 17.9374 11.2453 17.8305 11.2453C16.2302 11.2453 14.63 11.2453 13.0332 11.2453V11.2488Z" fill="#697A8D"/>
<path d="M6.70801 7.0816C6.31485 7.0816 5.92168 7.08502 5.52851 7.0816C5.20432 7.07817 5.04222 6.92081 5.03877 6.60267C5.03188 5.81586 5.03188 5.02563 5.03877 4.23882C5.03877 3.91383 5.20087 3.75989 5.52506 3.75647C6.31829 3.75305 7.11498 3.75305 7.90821 3.75647C8.2393 3.75647 8.39105 3.90699 8.3945 4.2354C8.40139 5.02221 8.40139 5.81244 8.3945 6.59925C8.3945 6.9345 8.23585 7.0816 7.88752 7.0816C7.49435 7.0816 7.10118 7.0816 6.70801 7.0816ZM6.71491 4.58775C6.49418 4.58775 6.27346 4.59459 6.04928 4.58775C5.90443 4.58091 5.86994 4.63565 5.87339 4.77248C5.88029 5.21036 5.88029 5.65166 5.87339 6.08953C5.87339 6.21611 5.91133 6.26058 6.03894 6.25716C6.49074 6.25031 6.94253 6.25031 7.39088 6.25716C7.52539 6.25716 7.55643 6.20926 7.55643 6.08611C7.54953 5.64823 7.54953 5.20694 7.55643 4.76906C7.55643 4.63222 7.51849 4.58091 7.37709 4.58775C7.15636 4.59802 6.93564 4.58775 6.71146 4.58775H6.71491Z" fill="#697A8D"/>
<path d="M5.87339 8.74005C5.72509 8.74005 5.57679 8.75031 5.43194 8.74005C5.20432 8.72295 5.07671 8.57927 5.04567 8.36375C5.01808 8.17218 5.15948 7.97377 5.36986 7.93956C5.70095 7.88824 6.03894 7.89166 6.37348 7.93956C6.6011 7.97035 6.7356 8.16534 6.70801 8.37743C6.67697 8.59979 6.54247 8.72637 6.31484 8.74347C6.16654 8.75373 6.01824 8.74347 5.87339 8.74347V8.74005Z" fill="#697A8D"/>
<path d="M5.88718 15.4255C6.03548 15.4255 6.18378 15.4152 6.32863 15.4255C6.54936 15.4426 6.70111 15.5965 6.70801 15.8018C6.7149 16.0275 6.60454 16.1883 6.38037 16.2225C6.04928 16.2773 5.71129 16.2739 5.37675 16.2225C5.16292 16.1917 5.02842 16.0002 5.03877 15.8052C5.05256 15.5931 5.21121 15.4357 5.44228 15.4186C5.59058 15.4084 5.73888 15.4186 5.88373 15.4186L5.88718 15.4255Z" fill="#697A8D"/>
<path d="M5.88028 18.7501C5.74233 18.7501 5.60093 18.7569 5.46297 18.7501C5.21466 18.733 5.03532 18.5483 5.04222 18.3259C5.04911 18.1104 5.21811 17.9359 5.45952 17.9257C5.73888 17.9154 6.01824 17.9154 6.29414 17.9257C6.53901 17.9359 6.70456 18.1001 6.71145 18.3225C6.71835 18.5517 6.55281 18.7296 6.30104 18.7501C6.16309 18.7604 6.02169 18.7501 5.88373 18.7501H5.88028Z" fill="#697A8D"/>
<path d="M5.86303 11.2334C5.70783 11.2334 5.54918 11.2471 5.39743 11.2334C5.17671 11.2129 5.05945 11.0623 5.04565 10.8571C5.03186 10.6518 5.13532 10.4842 5.3526 10.4466C5.70093 10.385 6.05616 10.385 6.40105 10.4466C6.61487 10.4842 6.71834 10.645 6.70454 10.8571C6.69075 11.0692 6.57004 11.2094 6.35276 11.23C6.19067 11.2471 6.02512 11.23 5.86303 11.23V11.2334Z" fill="#697A8D"/>
<path d="M5.88716 12.9102C6.04581 12.917 6.21135 12.9102 6.37345 12.9375C6.58727 12.9683 6.70454 13.112 6.70798 13.3241C6.71143 13.5362 6.60452 13.6901 6.38724 13.7243C6.04581 13.7756 5.70092 13.7791 5.35949 13.7243C5.14221 13.6901 5.03874 13.5225 5.04564 13.3172C5.05254 13.112 5.1698 12.9615 5.39053 12.9341C5.55262 12.9136 5.71817 12.917 5.88716 12.9102Z" fill="#697A8D"/>
</g>
<defs>
<clipPath id="clip0_1550_24404">
<rect width="21" height="25" fill="white"/>
</clipPath>
</defs>
</svg>
