<svg width="35" height="36" viewBox="0 0 35 36" fill="none" xmlns="http://www.w3.org/2000/svg">
<path d="M0.119049 19.9895C0.119049 15.1362 0.119049 10.283 0.119049 5.42974C0.120015 2.61263 2.11511 0.612296 4.92523 0.611328C13.315 0.611328 21.7039 0.611328 30.0927 0.611328C32.87 0.611328 34.8815 2.63005 34.8825 5.41426C34.8844 9.08396 34.8796 12.7546 34.8893 16.4243C34.8893 16.7379 34.8323 16.8492 34.4856 16.8463C32.422 16.8279 30.3573 16.8443 28.2937 16.8288C27.9837 16.8269 27.9229 16.9169 27.9238 17.2111C27.9325 23.1269 27.9267 29.0428 27.9393 34.9586C27.9393 35.308 27.8572 35.3912 27.5076 35.3902C18.5152 35.3796 9.52282 35.3796 0.529463 35.3883C0.211755 35.3883 0.109393 35.3244 0.110358 34.9828C0.122912 29.9844 0.119049 24.986 0.119049 19.9885V19.9895ZM26.2426 2.93005C26.0465 2.93005 25.9278 2.93005 25.809 2.93005C18.858 2.93005 11.9061 2.93005 4.95517 2.93005C3.3898 2.93005 2.43668 3.88909 2.43668 5.46265C2.43668 14.5275 2.43861 23.5924 2.42895 32.6573C2.42895 32.9815 2.50234 33.0734 2.8384 33.0734C10.2847 33.0628 17.7301 33.0618 25.1765 33.0754C25.5531 33.0754 25.6207 32.9718 25.6207 32.6196C25.6101 23.7598 25.6168 14.9001 25.6072 6.04039C25.6062 4.98071 25.6487 3.94231 26.2426 2.93102V2.93005ZM27.9306 9.66557C27.9306 11.1733 27.9383 12.682 27.9238 14.1898C27.9209 14.4646 27.9972 14.5295 28.2647 14.5266C29.579 14.512 30.8943 14.513 32.2085 14.5266C32.4809 14.5295 32.5736 14.4733 32.5726 14.1762C32.56 11.2324 32.5678 8.28847 32.5639 5.34555C32.562 3.97038 31.5683 2.93586 30.2588 2.93102C28.933 2.92618 27.9344 3.96457 27.9306 5.3591C27.9267 6.79427 27.9306 8.2304 27.9306 9.66654V9.66557Z" fill="#4D4D4D"/>
<path d="M7.46777 12.6504H22.1823" stroke="#4D4D4D" stroke-width="2"/>
<path d="M7.46777 18.002H22.1823" stroke="#4D4D4D" stroke-width="2"/>
<path d="M7.46777 23.3516H22.1823" stroke="#4D4D4D" stroke-width="2"/>
</svg>
