<svg width="27" height="27" viewBox="0 0 27 27" fill="none" xmlns="http://www.w3.org/2000/svg">
<g id="Group 33908">
<path id="Vector" d="M26.2153 9.6639L26.2154 9.66399C26.5256 9.89149 26.5925 10.329 26.3651 10.6386L26.365 10.6387L25.7273 11.5077C25.7273 11.5077 25.7273 11.5077 25.7273 11.5078C25.5838 11.7032 25.3554 11.8029 25.1251 11.7905L24.5983 11.7622V12.2898V25.8023C24.5983 26.1867 24.2847 26.5 23.9006 26.5H3.09926C2.7148 26.5 2.40151 26.1864 2.40151 25.8023V12.2905V11.7583L1.87033 11.7915L1.84562 11.7929L1.83726 11.7932C1.80228 11.7932 1.76615 11.7905 1.72933 11.7848C1.54421 11.7563 1.3836 11.6588 1.27235 11.5075L0.634792 10.6387L0.634681 10.6386C0.407569 10.3294 0.474538 9.89156 0.784655 9.66381L5.51872 6.18923L5.51893 6.18907C5.59715 6.1316 5.70765 6.1483 5.76545 6.22696C5.82288 6.30511 5.80623 6.41553 5.72761 6.47333C5.7276 6.47335 5.72758 6.47336 5.72756 6.47337L1.11873 9.8559L0.715707 10.1517L1.01143 10.5548L1.46591 11.1742L1.76174 11.5774L2.16489 11.2815L13.3954 3.0387C13.3955 3.03864 13.3956 3.03858 13.3957 3.03853C13.4577 2.99321 13.5422 2.99324 13.6042 3.0386C13.6043 3.03863 13.6043 3.03867 13.6044 3.0387L24.8356 11.2822L25.2387 11.5781L25.5346 11.1749L25.9891 10.5554L26.2848 10.1524L25.8818 9.85658L13.7961 0.985976L13.5002 0.768834L13.2044 0.985969L9.12895 3.9771L9.12873 3.97726C9.05052 4.03474 8.94002 4.01803 8.88221 3.93938C8.8248 3.86125 8.84143 3.75088 8.91998 3.69306C8.92002 3.69303 8.92006 3.693 8.9201 3.69297L13.0819 0.638426L13.0823 0.638167C13.3328 0.453944 13.667 0.453944 13.9176 0.638167L13.918 0.638459L17.6174 3.353L18.4132 3.93693V2.94988V2.25874C18.4132 1.87438 18.7268 1.56106 19.1109 1.56106H21.7796C22.1641 1.56106 22.4774 1.87469 22.4774 2.25874V6.66733V6.92057L22.6815 7.07042L26.2153 9.6639ZM19.2658 1.9136H18.7658V2.4136V3.94264V4.1959L18.97 4.34574L21.3289 6.07698L22.1248 6.66104V5.67389V2.4136V1.9136H21.6248H19.2658Z" stroke="#3F3F3F"/>
<g id="Clip path group">
<mask id="mask0_3251_31068" style="mask-type:luminance" maskUnits="userSpaceOnUse" x="9" y="11" width="17" height="16">
<g id="clippath">
<path id="Vector_2" d="M10.1329 26.8089L10.4268 26.4044C10.3844 26.3736 10.347 26.3362 10.3162 26.2938C10.293 26.2618 10.2609 26.2004 10.2417 26.0226C10.2214 25.8354 10.2207 25.586 10.2207 25.1999V13.7785C10.2207 13.3924 10.2214 13.143 10.2417 12.9558C10.2609 12.778 10.293 12.7166 10.3162 12.6846C10.347 12.6422 10.3844 12.6048 10.4268 12.574C10.4588 12.5508 10.5202 12.5187 10.698 12.4995C10.8852 12.4792 11.1346 12.4785 11.5207 12.4785H23.2863C23.6724 12.4785 23.9218 12.4792 24.109 12.4995C24.2868 12.5187 24.3482 12.5508 24.3802 12.574C24.4226 12.6048 24.46 12.6422 24.4908 12.6846C24.5141 12.7166 24.5461 12.778 24.5653 12.9558C24.5856 13.143 24.5863 13.3924 24.5863 13.7785V25.1999C24.5863 25.586 24.5856 25.8354 24.5653 26.0226C24.5461 26.2004 24.5141 26.2618 24.4908 26.2938C24.46 26.3362 24.4226 26.3736 24.3802 26.4044C24.3482 26.4277 24.2868 26.4597 24.109 26.4789C23.9218 26.4992 23.6724 26.4999 23.2863 26.4999H11.5207C11.1346 26.4999 10.8852 26.4992 10.698 26.4789C10.5202 26.4597 10.4588 26.4277 10.4268 26.4044L10.1329 26.8089Z" fill="white" stroke="white"/>
</g>
</mask>
<g mask="url(#mask0_3251_31068)">
<g id="Group">
<g id="Group_2" style="mix-blend-mode:multiply">
<g id="Clip path group_2">
<mask id="mask1_3251_31068" style="mask-type:luminance" maskUnits="userSpaceOnUse" x="16" y="12" width="12" height="16">
<g id="clippath-1">
<path id="Vector_3" d="M17.2638 26.845L17.5577 26.4404C17.5152 26.4096 17.4779 26.3723 17.4471 26.3298C17.4238 26.2978 17.3918 26.2364 17.3725 26.0586C17.3522 25.8715 17.3516 25.622 17.3516 25.2359V14.3762C17.3516 13.9901 17.3522 13.7406 17.3725 13.5535C17.3918 13.3757 17.4238 13.3143 17.4471 13.2823C17.4779 13.2398 17.5152 13.2025 17.5577 13.1717C17.5897 13.1484 17.6511 13.1164 17.8289 13.0971C18.016 13.0769 18.2655 13.0762 18.6516 13.0762H26.0493C26.4354 13.0762 26.6848 13.0769 26.872 13.0971C27.0498 13.1164 27.1112 13.1484 27.1432 13.1717C27.1856 13.2025 27.2229 13.2398 27.2538 13.2823C27.277 13.3143 27.309 13.3757 27.3283 13.5535C27.3486 13.7406 27.3493 13.9901 27.3493 14.3762V25.2359C27.3493 25.622 27.3486 25.8715 27.3283 26.0586C27.309 26.2364 27.277 26.2978 27.2538 26.3298C27.2229 26.3723 27.1856 26.4096 27.1432 26.4404C27.1112 26.4637 27.0498 26.4957 26.872 26.515C26.6848 26.5352 26.4354 26.5359 26.0493 26.5359H18.6516C18.2655 26.5359 18.016 26.5352 17.8289 26.515C17.6511 26.4957 17.5897 26.4637 17.5577 26.4404L17.2638 26.845Z" fill="white" stroke="white"/>
</g>
</mask>
<g mask="url(#mask1_3251_31068)">
<g id="Group_3">
<path id="Vector_4" d="M17.3651 19.3676C17.2501 17.688 17.8543 15.6266 19.8 13.1591L19.8333 13.1535C20.9138 13.4596 23.9887 14.3968 25.8573 16.474C26.7757 17.495 27.3936 18.7816 27.3465 20.4181C27.3002 22.0294 26.6076 24.0395 24.8069 26.5225C24.7344 26.5111 24.6398 26.4919 24.5234 26.4626C24.1721 26.3742 23.6797 26.2086 23.1125 25.9614C21.976 25.4662 20.5845 24.6631 19.4538 23.5519C18.3255 22.4431 17.4804 21.0524 17.3651 19.3676ZM24.6744 26.7034C24.6745 26.7032 24.6747 26.703 24.6748 26.7028C24.6747 26.703 24.6746 26.7031 24.6745 26.7033L24.6744 26.7034Z" fill="#41BAE9" stroke="#3F3F3F"/>
</g>
</g>
</g>
</g>
<g id="Group_4" style="mix-blend-mode:multiply">
<g id="Clip path group_3">
<mask id="mask2_3251_31068" style="mask-type:luminance" maskUnits="userSpaceOnUse" x="9" y="17" width="17" height="12">
<g id="clippath-2">
<path id="Vector_5" d="M10.1817 27.8893L10.4756 27.4848C10.4332 27.454 10.3959 27.4166 10.365 27.3742C10.3418 27.3422 10.3098 27.2808 10.2905 27.103C10.2702 26.9158 10.2695 26.6664 10.2695 26.2803V18.8742C10.2695 18.4881 10.2702 18.2387 10.2905 18.0515C10.3098 17.8737 10.3418 17.8123 10.365 17.7803C10.3959 17.7379 10.4332 17.7006 10.4756 17.6697C10.5076 17.6465 10.569 17.6144 10.7468 17.5952C10.934 17.5749 11.1834 17.5742 11.5695 17.5742H23.3934C23.7795 17.5742 24.0289 17.5749 24.2161 17.5952C24.3939 17.6144 24.4553 17.6465 24.4873 17.6697C24.5297 17.7005 24.567 17.7379 24.5979 17.7803C24.6211 17.8123 24.6531 17.8737 24.6724 18.0515C24.6927 18.2387 24.6934 18.4881 24.6934 18.8742V26.2803C24.6934 26.6664 24.6927 26.9158 24.6724 27.103C24.6531 27.2808 24.6211 27.3422 24.5979 27.3742C24.567 27.4166 24.5297 27.454 24.4873 27.4848C24.4553 27.508 24.3939 27.5401 24.2161 27.5593C24.0289 27.5796 23.7795 27.5803 23.3934 27.5803H11.5695C11.1834 27.5803 10.934 27.5796 10.7468 27.5593C10.569 27.5401 10.5076 27.508 10.4756 27.4848L10.1817 27.8893Z" fill="white" stroke="white"/>
</g>
</mask>
<g mask="url(#mask2_3251_31068)">
<g id="Group_5">
<path id="Vector_6" d="M13.3353 25.3058C11.907 23.9737 10.7587 21.8958 10.3144 18.6941C11.3918 18.2705 14.4227 17.1646 17.4562 17.7331C18.961 18.0152 20.4641 18.709 21.7405 20.1129C22.9848 21.4815 24.0412 23.5553 24.649 26.6555C24.5938 26.6838 24.5251 26.7162 24.442 26.7517C24.1075 26.8949 23.6037 27.0626 22.9775 27.2097C21.7248 27.5041 20.0291 27.7055 18.2845 27.4901C16.5427 27.275 14.7743 26.6479 13.3353 25.3058Z" fill="#97C240" stroke="#3F3F3F"/>
</g>
</g>
</g>
</g>
</g>
</g>
</g>
</g>
</svg>
