<svg width="28" height="37" viewBox="0 0 28 37" fill="none" xmlns="http://www.w3.org/2000/svg">
<path d="M8.90587 2.4707H12.7876C13.281 2.47078 13.7541 2.66677 14.103 3.0156L25.6539 11.2303C26.0028 11.5792 26.1988 12.0523 26.1988 12.5457L26.4701 32.5974C26.4701 33.3377 26.1761 34.0477 25.6526 34.5712C25.1291 35.0946 24.4191 35.3887 23.6788 35.3887H8.24673C7.50642 35.3887 6.79643 35.0946 6.27296 34.5712C5.74948 34.0477 5.45539 33.3377 5.45539 32.5974L5.18408 16.4274" stroke="#4D4D4D" stroke-width="2" stroke-linecap="round" stroke-linejoin="round"/>
<path d="M13.5566 2.4707V9.81635C13.5566 10.3359 13.8249 10.8341 14.3025 11.2015C14.78 11.5688 15.4278 11.7752 16.1031 11.7752H25.6525" stroke="#4D4D4D" stroke-width="2" stroke-linecap="round" stroke-linejoin="round"/>
<path d="M6.11296 3.40072V12.24C6.11538 12.4239 6.08094 12.6065 6.01166 12.7769C5.94238 12.9474 5.83966 13.1022 5.70958 13.2323C5.57949 13.3623 5.42467 13.4651 5.25424 13.5343C5.08382 13.6036 4.90124 13.6381 4.71729 13.6356C4.01945 13.6356 3.32162 13.1065 3.32162 12.24V3.86594C3.32162 2.08704 4.28521 0.609375 6.11296 0.609375C7.94071 0.609375 8.9043 2.05157 8.9043 3.82989V11.8986C8.9043 14.3992 7.28649 16.427 4.71729 16.427C2.14809 16.427 0.530273 14.3998 0.530273 11.8986V7.12251" stroke="#4D4D4D" stroke-miterlimit="10" stroke-linecap="round"/>
<path d="M10.7646 23.8711H20.9996" stroke="#4D4D4D" stroke-linecap="round"/>
<path d="M10.7646 28.9883H20.9996" stroke="#4D4D4D" stroke-linecap="round"/>
</svg>
