<svg width="27" height="38" viewBox="0 0 27 38" fill="none" xmlns="http://www.w3.org/2000/svg">
<path d="M8.67041 26.2461H19.2973" stroke="#4D4D4D" stroke-width="2" stroke-linecap="round"/>
<path d="M8.67041 31.5605H19.2973" stroke="#4D4D4D" stroke-width="2" stroke-linecap="round"/>
<path d="M7.70273 11.0817L4.80449 11.0817C4.03583 11.0817 3.29865 11.387 2.75512 11.9305C2.2116 12.4741 1.90625 13.2113 1.90625 13.9799L1.90814 33.4924C1.90814 34.261 2.21349 34.9982 2.75701 35.5417C3.30054 36.0853 4.03772 36.3906 4.80638 36.3906L22.1958 36.3906C22.9645 36.3906 23.7017 36.0853 24.2452 35.5417C24.7887 34.9982 25.0941 34.261 25.0941 33.4924L25.0922 13.9799C25.0922 13.2113 24.7868 12.4741 24.2433 11.9305C23.6998 11.387 22.9626 11.0817 22.1939 11.0817L19.2957 11.0817" stroke="#4D4D4D" stroke-width="2" stroke-linecap="round" stroke-linejoin="round"/>
<path d="M19.2974 15.5954L13.5009 21.3918M13.5009 21.3918L7.70439 15.5954M13.5009 21.3918L13.5009 1.61133" stroke="#4D4D4D" stroke-width="2" stroke-linecap="round" stroke-linejoin="round"/>
</svg>
