<svg width="25" height="38" viewBox="0 0 25 38" fill="none" xmlns="http://www.w3.org/2000/svg">
<path d="M7.80078 26.5176H18.1411" stroke="#4D4D4D" stroke-width="2" stroke-linecap="round"/>
<path d="M7.80078 31.6875H18.1411" stroke="#4D4D4D" stroke-width="2" stroke-linecap="round"/>
<path d="M6.85894 11.7621L4.03885 11.7621C3.29091 11.7621 2.57361 12.0592 2.04474 12.5881C1.51587 13.117 1.21875 13.8343 1.21875 14.5822L1.22059 33.5686C1.22059 34.3165 1.5177 35.0338 2.04657 35.5627C2.57544 36.0916 3.29275 36.3887 4.04068 36.3887L20.9613 36.3887C21.7092 36.3887 22.4265 36.0916 22.9554 35.5627C23.4843 35.0338 23.7814 34.3165 23.7814 33.5686L23.7795 14.5822C23.7795 13.8343 23.4824 13.117 22.9535 12.5881C22.4247 12.0592 21.7074 11.7621 20.9594 11.7621L18.1393 11.7621M6.85894 7.24996L12.4991 1.60976M12.4991 1.60976L18.1393 7.24996M12.4991 1.60976L12.4991 20.8569" stroke="#4D4D4D" stroke-width="2" stroke-linecap="round" stroke-linejoin="round"/>
</svg>
