<svg width="30" height="27" viewBox="0 0 30 27" fill="none" xmlns="http://www.w3.org/2000/svg">
<g id="Group 33856">
<path id="Vector" d="M9.30664 18.3076V1L11.2297 1.96153L13.1528 1L15.0722 1.96153L17.0175 1L18.922 1.96153L20.8324 1L22.7513 1.96153L24.6911 1L26.6148 1.96153L28.5373 1V14.4614" stroke="#5ec4ec" stroke-width="2" stroke-linejoin="round"/>
<path id="Vector_2" d="M28.5382 14.4609V21.1917C28.5382 22.4667 28.0316 23.6896 27.13 24.5912C26.2284 25.4928 25.0056 25.9993 23.7305 25.9993M23.7305 25.9993C22.4554 25.9993 21.2326 25.4928 20.331 24.5912C19.4294 23.6896 18.9228 22.4667 18.9228 21.1917V18.3071H2.5768C2.45022 18.3059 2.32468 18.33 2.20752 18.378C2.09035 18.4259 1.98391 18.4967 1.8944 18.5862C1.80489 18.6757 1.7341 18.7821 1.68618 18.8993C1.63825 19.0165 1.61415 19.142 1.61527 19.2686C1.61527 23.1147 2.02032 25.9993 6.42293 25.9993H23.7305Z" stroke="#5ec4ec" stroke-width="2" stroke-linejoin="round"/>
<path id="Vector_3" d="M13.1523 6.76953H24.6907M16.9985 11.5772H24.6907" stroke="#5ec4ec" stroke-width="2" stroke-linecap="round" stroke-linejoin="round"/>
</g>
</svg>
