<svg width="43" height="35" viewBox="0 0 43 35" fill="none" xmlns="http://www.w3.org/2000/svg">
<path d="M36.4234 5.22461H23.0224C22.4528 5.22461 21.9888 5.69086 21.9888 6.26324C21.9888 6.83562 22.4528 7.30187 23.0224 7.30187H36.4234C36.993 7.30187 37.4571 6.83562 37.4571 6.26324C37.4571 5.69086 36.993 5.22461 36.4234 5.22461Z" fill="#4D4D4D"/>
<path d="M39.9958 0.111328H19.6034C18.3868 0.111328 17.3975 1.10542 17.3975 2.32789V4.63543L15.4763 2.70506C15.2716 2.49942 14.9991 2.3857 14.7095 2.3857H4.90096C4.30302 2.3857 3.81636 2.87469 3.81636 3.4755V5.41819H1.88294C1.285 5.41819 0.79834 5.90718 0.79834 6.50799V30.7679C0.801169 33.0385 2.64122 34.8874 4.90096 34.8902H30.5541C32.4385 34.8883 34.0296 33.6014 34.5087 31.8577H39.9958C41.2125 31.8577 42.2018 30.8637 42.2018 29.6412V2.32789C42.2018 1.10542 41.2125 0.111328 39.9958 0.111328ZM30.5541 11.3884C31.6199 11.3884 32.4876 12.2603 32.4876 13.3311V30.7679C32.4876 31.8388 31.6199 32.7106 30.5541 32.7106H4.90096C3.83522 32.7106 2.96754 31.8388 2.96754 30.7679V7.5978H12.7516L16.2063 11.0691C16.4109 11.2747 16.6835 11.3884 16.973 11.3884H30.5541ZM17.3975 9.18417L13.9673 5.73755C13.7626 5.53191 13.4901 5.41819 13.2005 5.41819H5.98556V4.5653H14.2606L17.3975 7.7172V9.18417ZM40.0326 2.93534V29.0337C40.0326 29.3891 39.7449 29.6781 39.3913 29.6781H34.6568V13.3311C34.6539 11.0605 32.8139 9.21165 30.5541 9.20881H19.5667V2.93534C19.5667 2.57997 19.8543 2.29093 20.208 2.29093H39.3913C39.7449 2.29093 40.0326 2.57997 40.0326 2.93534Z" fill="#4D4D4D"/>
<path d="M24.4483 22.1245C24.4429 22.0234 24.4022 21.9275 24.3334 21.8538C24.2647 21.7801 24.1723 21.7333 24.0727 21.7218L23.0437 21.5537C22.9975 21.546 22.9549 21.5235 22.9223 21.4894C22.8898 21.4553 22.869 21.4115 22.8632 21.3645C22.8435 21.2369 22.823 21.1044 22.7949 20.9788C22.7859 20.9331 22.7912 20.8857 22.8101 20.8432C22.829 20.8008 22.8606 20.7653 22.9005 20.7418L23.8146 20.2293C23.9054 20.1826 23.976 20.1038 24.013 20.008C24.05 19.9122 24.0508 19.8059 24.0153 19.7095L23.8568 19.2679C23.822 19.1712 23.7531 19.0908 23.6633 19.0422C23.5735 18.9935 23.4691 18.98 23.37 19.0042L22.3447 19.2068C22.2988 19.215 22.2516 19.2085 22.2096 19.188C22.1677 19.1676 22.1332 19.1343 22.1111 19.0929C22.0513 18.9799 21.9863 18.8648 21.9185 18.7518C21.8939 18.7115 21.8823 18.6645 21.8855 18.6173C21.8887 18.5701 21.9064 18.525 21.9362 18.4885L22.6184 17.6928C22.6877 17.6177 22.7275 17.5197 22.7304 17.4171C22.7332 17.3144 22.699 17.2143 22.634 17.1353L22.3363 16.7744C22.2715 16.6951 22.1799 16.643 22.0792 16.628C21.9785 16.6131 21.876 16.6363 21.7913 16.6933L20.8936 17.2374C20.8538 17.2615 20.8074 17.272 20.7612 17.2674C20.715 17.2628 20.6716 17.2434 20.6372 17.2119C20.5381 17.124 20.4365 17.0393 20.3414 16.9611C20.3049 16.9321 20.2785 16.892 20.2661 16.8467C20.2537 16.8015 20.2559 16.7534 20.2724 16.7096L20.644 15.721C20.6845 15.6267 20.6892 15.5207 20.6573 15.4231C20.6254 15.3254 20.5591 15.243 20.471 15.1915L20.0661 14.9529C19.978 14.9016 19.8741 14.8849 19.7745 14.9061C19.675 14.9272 19.5866 14.9847 19.5264 15.0676L18.8703 15.8997C18.8467 15.9359 18.8113 15.9626 18.7703 15.9753C18.7293 15.988 18.6852 15.9859 18.6455 15.9694C18.6211 15.9593 18.414 15.8738 18.2531 15.8195C18.2089 15.805 18.1706 15.7766 18.1436 15.7384C18.1166 15.7003 18.1023 15.6545 18.103 15.6076L18.1186 14.5514C18.1242 14.4483 18.0924 14.3466 18.0291 14.2655C17.9658 14.1844 17.8754 14.1293 17.7747 14.1106L17.3153 14.0296C17.2151 14.0122 17.1122 14.032 17.0254 14.0854C16.9387 14.1388 16.8741 14.2222 16.8437 14.3201L16.5026 15.3252C16.4871 15.3698 16.4579 15.4083 16.4192 15.4349C16.3805 15.4615 16.3343 15.4749 16.2875 15.4731H15.8963C15.8498 15.4741 15.8043 15.4602 15.7661 15.4335C15.7279 15.4068 15.699 15.3686 15.6836 15.3244L15.3441 14.325C15.3142 14.2264 15.2498 14.1422 15.1628 14.0881C15.0759 14.034 14.9724 14.0138 14.8718 14.0312L14.4115 14.1123C14.3115 14.1308 14.2216 14.1853 14.1584 14.2657C14.0952 14.3461 14.0631 14.4469 14.068 14.5494L14.084 15.6092C14.0843 15.6568 14.0694 15.7032 14.0415 15.7415C14.0136 15.7798 13.9742 15.808 13.9291 15.8219C13.8372 15.858 13.6378 15.9349 13.5471 15.969C13.4668 15.9981 13.3794 15.9661 13.3087 15.8839L12.6562 15.0736C12.5964 14.9903 12.5081 14.9322 12.4084 14.9106C12.3087 14.889 12.2046 14.9054 12.1161 14.9566L11.7124 15.1927C11.6233 15.2444 11.5563 15.3274 11.5243 15.4259C11.4923 15.5245 11.4975 15.6315 11.539 15.7263L11.9102 16.7124C11.9264 16.7564 11.9285 16.8044 11.9163 16.8497C11.9041 16.8949 11.8781 16.9352 11.842 16.9648C11.7445 17.0458 11.6446 17.1268 11.545 17.2168C11.5109 17.248 11.4677 17.2673 11.4218 17.272C11.376 17.2767 11.3299 17.2664 11.2902 17.2427L10.4029 16.6881C10.3178 16.6321 10.2153 16.6095 10.1147 16.6244C10.0141 16.6393 9.92244 16.6908 9.85679 16.7691L9.56023 17.1293C9.49436 17.2077 9.45945 17.3079 9.46219 17.4107C9.46493 17.5134 9.50512 17.6116 9.57508 17.6863L10.2605 18.4812C10.2909 18.517 10.3091 18.5618 10.3123 18.6088C10.3156 18.6559 10.3037 18.7028 10.2785 18.7425C10.2099 18.8527 10.1445 18.9686 10.0851 19.0844C10.0629 19.1261 10.0282 19.1596 9.98594 19.1801C9.94369 19.2007 9.89609 19.2071 9.84996 19.1987L8.82626 18.9989C8.72714 18.9748 8.62269 18.9883 8.53284 19.037C8.44298 19.0856 8.37401 19.166 8.33909 19.2627L8.17857 19.7035C8.14309 19.8 8.14392 19.9063 8.1809 20.0022C8.21788 20.0982 8.28845 20.1771 8.37922 20.2241L9.29337 20.7365C9.33448 20.7594 9.36709 20.7952 9.38627 20.8385C9.40546 20.8818 9.41017 20.9302 9.39971 20.9764L9.39008 21.0278C9.36921 21.1409 9.34995 21.2478 9.33149 21.3617C9.32511 21.408 9.30436 21.4512 9.27222 21.485C9.24007 21.5187 9.19817 21.5414 9.15251 21.5496L8.12159 21.7178C8.02077 21.7303 7.9279 21.7794 7.86033 21.8559C7.79276 21.9325 7.75511 22.0313 7.7544 22.1338V22.603C7.75381 22.7059 7.79108 22.8054 7.85899 22.8822C7.9269 22.959 8.02061 23.0076 8.12199 23.0186L9.15251 23.1864C9.19882 23.194 9.24144 23.2165 9.274 23.2506C9.30655 23.2847 9.32729 23.3286 9.3331 23.3756C9.35276 23.5036 9.37323 23.6356 9.40132 23.7612C9.41037 23.8069 9.40506 23.8543 9.38614 23.8968C9.36722 23.9393 9.33563 23.9748 9.29578 23.9982L8.38203 24.5115C8.29125 24.5583 8.22066 24.637 8.18366 24.7329C8.14667 24.8287 8.14585 24.9349 8.18138 25.0313L8.3419 25.4729C8.37674 25.5696 8.44563 25.6499 8.53542 25.6986C8.62521 25.7472 8.72961 25.7608 8.82867 25.7367L9.85398 25.5361C9.89983 25.5277 9.94714 25.5342 9.9891 25.5547C10.0311 25.5751 10.0655 25.6085 10.0875 25.65C10.1477 25.7634 10.2123 25.878 10.2802 25.9911C10.3049 26.0313 10.3165 26.0784 10.3133 26.1256C10.3102 26.1729 10.2924 26.2179 10.2625 26.2544L9.58029 27.0497C9.51018 27.1242 9.46945 27.222 9.46575 27.3248C9.46206 27.4275 9.49565 27.5281 9.56023 27.6075L9.85759 27.9685C9.92231 28.0478 10.0139 28.1 10.1146 28.115C10.2153 28.13 10.3179 28.1066 10.4025 28.0495L11.3002 27.5054C11.34 27.4814 11.3865 27.4709 11.4326 27.4755C11.4788 27.48 11.5223 27.4995 11.5567 27.531C11.6562 27.6189 11.7573 27.7036 11.8524 27.7817C11.8889 27.8109 11.9153 27.8509 11.9277 27.8961C11.9402 27.9413 11.9382 27.9894 11.9218 28.0333L11.5498 29.0218C11.5094 29.1162 11.5046 29.2222 11.5365 29.3198C11.5684 29.4174 11.6347 29.4998 11.7228 29.5514L12.1285 29.7879C12.2166 29.8393 12.3204 29.8561 12.42 29.835C12.5196 29.8139 12.608 29.7565 12.6683 29.6737L13.3324 28.8493C13.3886 28.7792 13.4769 28.748 13.5423 28.7747C13.6819 28.8331 13.7754 28.8659 13.9412 28.9218C13.9853 28.9363 14.0237 28.9647 14.0508 29.0028C14.0778 29.041 14.0922 29.0868 14.0917 29.1337L14.0756 30.189C14.0702 30.2921 14.1021 30.3937 14.1654 30.4748C14.2286 30.5559 14.319 30.611 14.4195 30.6298L14.879 30.7108C14.9791 30.7285 15.0822 30.7087 15.169 30.6553C15.2557 30.6018 15.3203 30.5183 15.3505 30.4204L15.6916 29.4168C15.7071 29.3722 15.7363 29.3337 15.775 29.3071C15.8137 29.2805 15.8599 29.2671 15.9067 29.269H16.298C16.3444 29.268 16.39 29.2818 16.4282 29.3085C16.4664 29.3352 16.4953 29.3734 16.5107 29.4177L16.8506 30.4171C16.8769 30.5039 16.9301 30.5798 17.0023 30.6339C17.0745 30.6879 17.162 30.7171 17.2519 30.7173C17.2758 30.7174 17.2997 30.7152 17.3233 30.7108L17.7836 30.6298C17.8835 30.6113 17.9735 30.5568 18.0366 30.4764C18.0998 30.396 18.132 30.2952 18.1271 30.1927L18.111 29.1329C18.1107 29.0862 18.1251 29.0406 18.1522 29.0027C18.1792 28.9648 18.2175 28.9366 18.2615 28.9222C18.4156 28.8699 18.524 28.8278 18.6191 28.7905L18.6431 28.7812C18.7675 28.7379 18.8277 28.7905 18.8626 28.8343L19.5348 29.6701C19.5951 29.7527 19.6834 29.8101 19.7829 29.8312C19.8824 29.8522 19.9861 29.8356 20.0742 29.7843L20.4783 29.5481C20.5667 29.4966 20.6331 29.414 20.6651 29.3161C20.697 29.2182 20.692 29.1119 20.6512 29.0174L20.2804 28.0313C20.2641 27.9874 20.2618 27.9394 20.274 27.8941C20.2862 27.8488 20.3121 27.8085 20.3482 27.7789C20.4458 27.6979 20.5457 27.6169 20.6452 27.5269C20.6796 27.4956 20.723 27.4763 20.7691 27.4718C20.8152 27.4672 20.8615 27.4778 20.9012 27.5018L21.7997 28.0447C21.8849 28.1007 21.9874 28.1234 22.088 28.1085C22.1886 28.0936 22.2803 28.0421 22.3459 27.9636L22.6428 27.6031C22.7087 27.5247 22.7436 27.4245 22.7409 27.3217C22.7382 27.2189 22.698 27.1208 22.628 27.046L21.9434 26.2491C21.913 26.2133 21.8948 26.1686 21.8915 26.1215C21.8883 26.0744 21.9001 26.0276 21.9253 25.9878C21.994 25.878 22.0594 25.7622 22.1188 25.6459C22.1411 25.6043 22.1758 25.5709 22.218 25.5504C22.2602 25.5299 22.3078 25.5233 22.3539 25.5317L23.3764 25.733C23.4755 25.7571 23.58 25.7436 23.6698 25.695C23.7597 25.6463 23.8287 25.566 23.8636 25.4693L24.0221 25.0285C24.0576 24.932 24.0567 24.8258 24.0197 24.7299C23.9827 24.634 23.9122 24.5552 23.8215 24.5083L22.9065 23.995C22.866 23.9719 22.8339 23.9362 22.815 23.8932C22.7962 23.8502 22.7915 23.8022 22.8018 23.7564L22.8114 23.7049C22.8323 23.5919 22.8515 23.4849 22.87 23.3711C22.8764 23.3247 22.8971 23.2816 22.9293 23.2478C22.9614 23.214 23.0033 23.1914 23.049 23.1831L24.0799 23.0154C24.181 23.0031 24.2741 22.954 24.3419 22.8773C24.4097 22.8007 24.4475 22.7017 24.4483 22.5989V22.1245ZM13.1137 25.9327C13.0637 26.0205 12.9938 26.0951 12.9097 26.1503C12.8256 26.2055 12.7297 26.2397 12.6299 26.2503C12.5302 26.2608 12.4293 26.2472 12.3358 26.2108C12.2422 26.1743 12.1585 26.116 12.0916 26.0405C11.1875 25.0313 10.6884 23.7183 10.6915 22.3576C10.6946 20.9969 11.1998 19.6863 12.1085 18.6813C12.1757 18.6059 12.2597 18.5477 12.3536 18.5115C12.4475 18.4752 12.5486 18.4621 12.6486 18.473C12.7485 18.484 12.8444 18.5188 12.9284 18.5745C13.0124 18.6302 13.0821 18.7053 13.1318 18.7935L14.9637 22.0488C15.0187 22.1458 15.0476 22.2557 15.0476 22.3676C15.0476 22.4794 15.0187 22.5893 14.9637 22.6864L13.1137 25.9327ZM16.1013 27.8441C15.7195 27.8442 15.3386 27.8035 14.9653 27.7226C14.868 27.7007 14.7772 27.6559 14.7003 27.5919C14.6234 27.528 14.5624 27.4466 14.5224 27.3544C14.4825 27.2623 14.4646 27.1619 14.4702 27.0614C14.4758 26.961 14.5048 26.8633 14.5547 26.7762L16.4007 23.5352C16.4562 23.4375 16.5363 23.3564 16.6328 23.3C16.7294 23.2436 16.8389 23.2139 16.9505 23.2139H20.648C20.7476 23.2138 20.8458 23.2373 20.9348 23.2826C21.0237 23.3279 21.1008 23.3937 21.1598 23.4747C21.2188 23.5557 21.2581 23.6496 21.2744 23.7488C21.2908 23.848 21.2838 23.9497 21.254 24.0456C20.5521 26.2463 18.5091 27.8441 16.1013 27.8441ZM16.4027 21.2041L14.5764 17.9574C14.5269 17.8702 14.4984 17.7724 14.4933 17.6721C14.4881 17.5717 14.5064 17.4716 14.5467 17.3797C14.587 17.2878 14.6481 17.2068 14.7251 17.1431C14.8022 17.0795 14.893 17.0351 14.9902 17.0134C15.3555 16.9357 15.7279 16.8966 16.1013 16.8967C18.5091 16.8967 20.5521 18.4946 21.2528 20.6964C21.2826 20.7924 21.2896 20.8941 21.2732 20.9932C21.2569 21.0924 21.2176 21.1863 21.1586 21.2673C21.0995 21.3483 21.0225 21.4142 20.9336 21.4595C20.8446 21.5048 20.7464 21.5283 20.6468 21.5282H16.9549C16.8427 21.5284 16.7324 21.4985 16.6354 21.4415C16.5383 21.3846 16.458 21.3026 16.4027 21.2041Z" fill="#4D4D4D"/>
</svg>
