<svg width="37" height="35" viewBox="0 0 37 35" fill="none" xmlns="http://www.w3.org/2000/svg">
<path d="M36.6484 18.6497L34.0518 4.89978C33.5504 1.9 31.6192 0.109375 28.8863 0.109375H8.11389C6.7507 0.109375 5.59848 0.534162 4.6978 1.37196C3.79712 2.20976 3.20721 3.39264 2.94674 4.89434L0.350191 18.6497C0.332648 18.7481 0.32395 18.8482 0.324225 18.9485V29.0927C0.324225 30.6301 0.871355 32.1045 1.84525 33.1916C2.81915 34.2787 4.14004 34.8894 5.51733 34.8894H31.4829C32.8602 34.8894 34.1811 34.2787 35.155 33.1916C36.1289 32.1045 36.676 30.6301 36.676 29.0927V18.9485C36.6757 18.8481 36.6665 18.748 36.6484 18.6497ZM5.48975 5.48035V5.45499C5.7778 3.78573 6.61032 3.00952 8.10983 3.00952H28.8863C30.3964 3.00952 31.2289 3.78392 31.5048 5.44684C31.5048 5.45861 31.5088 5.47039 31.5105 5.48216L33.6956 17.0646C33.7055 17.1174 33.7048 17.172 33.6934 17.2244C33.682 17.2768 33.6602 17.3257 33.6298 17.3675C33.5993 17.4093 33.5608 17.443 33.5172 17.4662C33.4736 17.4893 33.4259 17.5013 33.3776 17.5012H23.6932C23.3509 17.4993 23.0219 17.6491 22.7785 17.9177C22.535 18.1864 22.3971 18.5519 22.3949 18.934C22.3949 20.0871 21.9846 21.1929 21.2542 22.0082C20.5237 22.8235 19.5331 23.2815 18.5001 23.2815C17.4671 23.2815 16.4765 22.8235 15.746 22.0082C15.0156 21.1929 14.6053 20.0871 14.6053 18.934C14.6044 18.7447 14.5702 18.5574 14.5045 18.3828C14.4388 18.2082 14.3429 18.0498 14.2223 17.9166C14.1018 17.7834 13.9589 17.6779 13.8018 17.6064C13.6448 17.5348 13.4766 17.4984 13.307 17.4994H3.62266C3.57436 17.4994 3.52665 17.4875 3.48302 17.4643C3.43939 17.4412 3.40093 17.4075 3.37045 17.3657C3.33997 17.3238 3.31825 17.2749 3.30685 17.2226C3.29545 17.1702 3.29468 17.1156 3.30458 17.0628L5.48975 5.48035Z" fill="#4D4D4D"/>
<path d="M27.5879 8.12234H9.41198C9.06766 8.12234 8.73744 7.98163 8.49396 7.73116C8.25049 7.48069 8.11371 7.14098 8.11371 6.78676C8.11371 6.43254 8.25049 6.09283 8.49396 5.84236C8.73744 5.59189 9.06766 5.45117 9.41198 5.45117H27.5879C27.9322 5.45117 28.2624 5.59189 28.5059 5.84236C28.7494 6.09283 28.8861 6.43254 28.8861 6.78676C28.8861 7.14098 28.7494 7.48069 28.5059 7.73116C28.2624 7.98163 27.9322 8.12234 27.5879 8.12234ZM28.8861 13.4647H8.11371C7.76938 13.4647 7.43916 13.324 7.19569 13.0735C6.95221 12.823 6.81543 12.4833 6.81543 12.1291C6.81543 11.7749 6.95221 11.4352 7.19569 11.1847C7.43916 10.9342 7.76938 10.7935 8.11371 10.7935H28.8861C29.2305 10.7935 29.5607 10.9342 29.8042 11.1847C30.0476 11.4352 30.1844 11.7749 30.1844 12.1291C30.1844 12.4833 30.0476 12.823 29.8042 13.0735C29.5607 13.324 29.2305 13.4647 28.8861 13.4647Z" fill="#4D4D4D"/>
</svg>
