<svg width="34" height="34" viewBox="0 0 34 34" fill="none" xmlns="http://www.w3.org/2000/svg">
<g id="Group 33956">
<path id="Vector" d="M16.3534 0.100339C15.8872 0.24433 15.3455 0.792869 15.1809 1.28655C15.0301 1.74596 15.0712 2.37678 15.2701 2.77447C15.4346 3.10359 15.9146 3.55613 16.23 3.68641L16.4494 3.77555V4.87263C16.4494 5.93542 16.4563 5.96285 16.6208 6.12741C16.7237 6.23712 16.8677 6.29883 16.998 6.29883C17.1282 6.29883 17.2722 6.23712 17.3751 6.12741C17.5396 5.96285 17.5465 5.93542 17.5465 4.87263V3.77555L17.7728 3.68641C18.0813 3.55613 18.5613 3.10359 18.7259 2.77447C18.9247 2.37678 18.9659 1.74596 18.815 1.28655C18.6436 0.772299 18.1088 0.24433 17.6151 0.100339C17.1694 -0.0367956 16.7923 -0.0299392 16.3534 0.100339ZM17.5945 1.38941C18.0813 1.91737 17.7179 2.73333 16.998 2.73333C16.3123 2.73333 15.9215 1.9448 16.3603 1.43055C16.5934 1.14942 16.758 1.08085 17.1008 1.12199C17.3065 1.14256 17.4299 1.21113 17.5945 1.38941Z" fill="#3F3F3F"/>
<path id="Vector_2" d="M5.93768 4.45415C4.11379 4.89984 3.87381 7.33398 5.58113 8.08822C5.98568 8.27335 6.62336 8.29392 6.98676 8.13622L7.22675 8.03336L8.02213 8.80818C8.70095 9.47328 8.8518 9.58984 9.03693 9.58984C9.33177 9.58984 9.59232 9.32929 9.59232 9.03445C9.59232 8.84932 9.47576 8.69847 8.81066 8.01965L8.03585 7.22427L8.1387 6.98428C8.2964 6.62773 8.26897 5.99006 8.0907 5.5718C7.73415 4.75585 6.76049 4.24845 5.93768 4.45415ZM6.8222 5.66093C7.06219 5.81178 7.20618 6.19576 7.14447 6.51117C7.02105 7.13513 6.21195 7.36826 5.75941 6.90886C5.06688 6.22319 5.99939 5.12611 6.8222 5.66093Z" fill="#3F3F3F"/>
<path id="Vector_3" d="M27.2616 4.45415C26.3565 4.67356 25.7463 5.4278 25.7531 6.33289C25.7531 6.55917 25.8011 6.85401 25.856 6.98428L25.9588 7.22427L25.184 8.01965C24.5189 8.69847 24.4023 8.84932 24.4023 9.03445C24.4023 9.17844 24.4641 9.31557 24.5738 9.41843C24.6766 9.52813 24.8137 9.58984 24.9577 9.58984C25.1429 9.58984 25.2937 9.47328 25.9725 8.80818L26.7679 8.03336L27.0079 8.13622C27.3645 8.29392 28.0021 8.26649 28.4204 8.08822C29.922 7.42997 29.9426 5.24953 28.4478 4.59128C28.0638 4.42672 27.5976 4.37187 27.2616 4.45415ZM28.0844 5.65408C28.3107 5.79807 28.4615 6.05862 28.4615 6.31918C28.4615 7.08028 27.6113 7.43683 27.0833 6.90886C26.7473 6.57288 26.7473 6.09291 27.0833 5.75007C27.3713 5.46895 27.7279 5.43466 28.0844 5.65408Z" fill="#3F3F3F"/>
<path id="Vector_4" d="M15.3651 7.17639C15.2965 7.24495 15.1251 7.60836 14.9811 7.98548L14.7205 8.67801L14.2611 8.822C14.0143 8.90428 13.5617 9.08941 13.26 9.23341L12.7115 9.50082L12.0601 9.19912C11.7036 9.04142 11.3196 8.90428 11.203 8.90428C11.0316 8.90428 10.8396 9.06885 9.95509 9.95336C9.07057 10.8379 8.90601 11.0299 8.90601 11.2013C8.90601 11.3179 9.04314 11.7018 9.20085 12.0584L9.50254 12.7098L9.23513 13.2583C9.09114 13.56 8.90601 14.0126 8.82373 14.2594L8.67973 14.7188L7.9872 14.9794C7.61008 15.1233 7.24668 15.2948 7.17811 15.3633C7.0684 15.473 7.05469 15.6307 7.05469 16.9952C7.05469 18.3597 7.0684 18.5174 7.17811 18.6271C7.24668 18.6957 7.61008 18.8671 7.9872 19.0111L8.67973 19.2717L8.82373 19.7311C8.90601 19.9779 9.09114 20.4305 9.23513 20.7322L9.50254 21.2807L9.20085 21.9321C9.04314 22.2886 8.90601 22.6726 8.90601 22.7892C8.90601 22.9606 9.07057 23.1526 9.95509 24.0371C10.8396 24.9216 11.0316 25.0862 11.203 25.0862C11.3196 25.0862 11.7036 24.949 12.0601 24.7913L12.7115 24.4896L13.26 24.7571C13.5617 24.901 14.0143 25.0862 14.2611 25.1685L14.7205 25.3125L14.9811 26.005C15.1251 26.3821 15.2965 26.7455 15.3651 26.8141C15.4748 26.9238 15.6325 26.9375 16.997 26.9375C18.3614 26.9375 18.5192 26.9238 18.6289 26.8141C18.6974 26.7455 18.8688 26.3821 19.0128 26.005L19.2734 25.3125L19.7328 25.1685C19.9796 25.0862 20.4322 24.901 20.7339 24.7571L21.2824 24.4896L21.9338 24.7913C22.2904 24.949 22.6743 25.0862 22.7909 25.0862C22.9623 25.0862 23.1543 24.9216 24.0388 24.0371C24.9233 23.1526 25.0879 22.9606 25.0879 22.7892C25.0879 22.6726 24.9508 22.2886 24.7931 21.9321L24.4914 21.2807L24.7588 20.7322C24.9028 20.4305 25.0879 19.9779 25.1702 19.7311L25.3142 19.2717L26.0067 19.0111C26.3838 18.8671 26.7472 18.6957 26.8158 18.6271C26.9255 18.5174 26.9392 18.3597 26.9392 16.9952C26.9392 15.6307 26.9255 15.473 26.8158 15.3633C26.7472 15.2948 26.3838 15.1233 26.0067 14.9794L25.3142 14.7188L25.1702 14.2594C25.0879 14.0126 24.9028 13.56 24.7588 13.2583L24.4914 12.7098L24.7931 12.0584C24.9508 11.7018 25.0879 11.3179 25.0879 11.2013C25.0879 11.0299 24.9233 10.8379 24.0388 9.95336C23.1543 9.06885 22.9623 8.90428 22.7909 8.90428C22.6743 8.90428 22.2904 9.04142 21.9338 9.19912L21.2824 9.50082L20.7339 9.23341C20.4322 9.08941 19.9796 8.90428 19.7328 8.822L19.2734 8.67801L19.0128 7.98548C18.8688 7.60836 18.6974 7.24495 18.6289 7.17639C18.5192 7.06668 18.3614 7.05297 16.997 7.05297C15.6325 7.05297 15.4748 7.06668 15.3651 7.17639ZM18.1626 8.82886C18.2997 9.17855 18.4643 9.50768 18.5329 9.55567C18.5946 9.60367 18.9168 9.72709 19.246 9.82994C19.5751 9.93279 20.1442 10.1728 20.5145 10.3579L21.1864 10.7007L21.543 10.5636C21.7418 10.4882 22.0641 10.3511 22.2629 10.2688L22.6263 10.1111L23.2503 10.7419L23.8811 11.3659L23.7234 11.7293C23.6411 11.9281 23.504 12.2504 23.4286 12.4492L23.2914 12.8058L23.6343 13.4777C23.8194 13.848 24.0594 14.4171 24.1622 14.7462C24.2651 15.0753 24.3885 15.3976 24.4365 15.4593C24.4845 15.5279 24.8136 15.6925 25.1633 15.8296L25.8079 16.0764V16.9952V17.914L25.1633 18.1609C24.8136 18.298 24.4845 18.4626 24.4365 18.5311C24.3885 18.5929 24.2651 18.9151 24.1622 19.2442C24.0594 19.5734 23.8194 20.1425 23.6343 20.5127L23.2914 21.1847L23.4286 21.5412C23.504 21.7401 23.6411 22.0624 23.7234 22.2612L23.8811 22.6246L23.2503 23.2486L22.6263 23.8794L22.2629 23.7217C22.0641 23.6394 21.7418 23.5023 21.543 23.4269L21.1864 23.2897L20.5145 23.6326C20.1442 23.8177 19.5751 24.0577 19.246 24.1605C18.9168 24.2634 18.5946 24.3868 18.5329 24.4348C18.4643 24.4828 18.2997 24.8119 18.1626 25.1616L17.9158 25.8061H16.997H16.0782L15.8313 25.1616C15.6942 24.8119 15.5296 24.4828 15.461 24.4348C15.3993 24.3868 15.0771 24.2634 14.7479 24.1605C14.4188 24.0577 13.8497 23.8177 13.4794 23.6326L12.8075 23.2897L12.4509 23.4269C12.2521 23.5023 11.9298 23.6394 11.731 23.7217L11.3676 23.8794L10.7436 23.2486L10.1128 22.6246L10.2705 22.2612C10.3528 22.0624 10.4899 21.7401 10.5653 21.5412L10.7025 21.1847L10.3596 20.5127C10.1745 20.1425 9.93452 19.5734 9.83167 19.2442C9.72881 18.9151 9.60539 18.5929 9.5574 18.5311C9.5094 18.4626 9.18028 18.298 8.83058 18.1609L8.18605 17.914V16.9952V16.0764L8.83058 15.8296C9.18028 15.6925 9.5094 15.5279 9.5574 15.4593C9.60539 15.3976 9.72881 15.0753 9.83167 14.7462C9.93452 14.4171 10.1745 13.848 10.3596 13.4777L10.7025 12.8058L10.5653 12.4492C10.4899 12.2504 10.3528 11.9281 10.2705 11.7293L10.1128 11.3659L10.7436 10.7419L11.3676 10.1111L11.731 10.2688C11.9298 10.3511 12.2521 10.4882 12.4509 10.5636L12.8075 10.7007L13.4794 10.3579C13.8497 10.1728 14.4257 9.93279 14.7548 9.82994C15.0908 9.72709 15.413 9.58996 15.4885 9.52825C15.557 9.46654 15.7079 9.15798 15.8313 8.83572C15.9547 8.51345 16.0644 8.22547 16.085 8.19804C16.0987 8.17061 16.5238 8.1569 17.0175 8.16376L17.9158 8.18433L18.1626 8.82886Z" fill="#3F3F3F"/>
<path id="Vector_5" d="M15.8794 11.0721C13.4726 11.5041 11.491 13.5062 11.0659 15.9335C10.4008 19.7596 13.4589 23.2291 17.3056 23.0097C21.9201 22.7422 24.5326 17.7025 22.0847 13.7736C20.8025 11.7166 18.3135 10.6332 15.8794 11.0721ZM18.4712 12.2926C19.246 12.5394 19.8288 12.9028 20.4597 13.5336C21.0836 14.1576 21.447 14.7336 21.7076 15.5221C21.8653 16.0089 21.8859 16.1803 21.8859 16.9963C21.8859 17.8122 21.8653 17.9837 21.7076 18.4705C21.447 19.259 21.0836 19.835 20.4597 20.4589C19.8357 21.0829 19.2597 21.4463 18.4712 21.7069C17.9844 21.8646 17.813 21.8851 16.997 21.8851C16.1811 21.8851 16.0096 21.8646 15.5228 21.7069C14.7343 21.4463 14.1583 21.0829 13.5344 20.4589C12.9104 19.835 12.547 19.259 12.2864 18.4705C12.1287 17.9837 12.1082 17.8122 12.1082 16.9963C12.1013 16.1872 12.1287 16.0021 12.2796 15.5427C12.547 14.7267 12.9104 14.1439 13.5275 13.5268C14.2817 12.7725 15.1457 12.3131 16.1399 12.128C16.7433 12.0183 17.8541 12.1006 18.4712 12.2926Z" fill="#3F3F3F"/>
<path id="Vector_6" d="M16.1266 13.0471C14.0696 13.5202 12.6434 15.632 13.0137 17.6479C13.1302 18.2856 13.5348 18.5462 13.9187 18.2376C14.0765 18.1142 14.0833 18.0662 14.0833 17.2228C14.0902 16.4823 14.1107 16.2903 14.241 15.968C14.5427 15.2069 15.2147 14.5418 15.9689 14.2401C16.4215 14.0619 17.4225 14.0276 17.8408 14.1716C18.0808 14.2607 18.0876 14.2744 17.9916 14.4115C17.7928 14.6995 17.8751 15.0287 18.1768 15.1864C18.3482 15.2755 18.5196 15.2824 19.1093 15.2481C19.7401 15.2001 19.8567 15.1726 19.9938 15.0355C20.1927 14.8367 20.1927 14.7818 19.9732 13.9796C19.8498 13.5339 19.7401 13.2802 19.6236 13.1705C19.4041 12.9716 19.0887 12.9716 18.9036 13.1773L18.7596 13.3419L18.2796 13.1773C17.6762 12.9648 16.7369 12.9099 16.1266 13.0471Z" fill="#3F3F3F"/>
<path id="Vector_7" d="M20.0772 15.7539C19.9195 15.8774 19.9126 15.9254 19.9126 16.7687C19.9058 17.5093 19.8852 17.7013 19.7549 18.0235C19.4532 18.7846 18.7813 19.4497 18.027 19.7514C17.5745 19.9297 16.5734 19.964 16.1551 19.82C15.9152 19.7309 15.9083 19.7171 16.0043 19.58C16.2031 19.292 16.1209 18.9629 15.8192 18.8052C15.6477 18.7161 15.4763 18.7092 14.8866 18.7435C14.2558 18.7915 14.1393 18.8189 14.0021 18.956C13.8033 19.1549 13.8033 19.196 14.0227 20.0051C14.1461 20.4714 14.2421 20.7045 14.3655 20.8142C14.5918 21.0199 14.9072 21.0199 15.0923 20.8142L15.2363 20.6497L15.7095 20.8142C18.075 21.637 20.6257 20.0531 20.996 17.5367C21.1057 16.7756 20.9891 16.0008 20.7354 15.7814C20.516 15.5894 20.2898 15.5825 20.0772 15.7539Z" fill="#3F3F3F"/>
<path id="Vector_8" d="M1.22736 15.1929C0.774811 15.3574 0.239986 15.9265 0.102851 16.3791C-0.0342837 16.8453 -0.0342837 17.147 0.102851 17.6133C0.246842 18.107 0.774811 18.6418 1.28907 18.8132C1.74847 18.9641 2.37929 18.9229 2.77698 18.7241C3.1061 18.5595 3.55865 18.0795 3.68892 17.7641L3.77806 17.5447H4.87514C5.93793 17.5447 5.96536 17.5379 6.12992 17.3733C6.35619 17.1539 6.35619 16.8385 6.12992 16.6191C5.96536 16.4545 5.93793 16.4476 4.87514 16.4476H3.77806L3.68892 16.2214C3.55865 15.9128 3.1061 15.4328 2.77012 15.2683C2.39986 15.0763 1.64562 15.0351 1.22736 15.1929ZM2.32443 16.2762C2.56442 16.3996 2.73584 16.7013 2.73584 16.9962C2.73584 17.4693 2.37243 17.819 1.87875 17.819C1.70047 17.819 1.57019 17.7573 1.3782 17.5859C1.14507 17.3733 1.1245 17.3184 1.1245 16.9962C1.1245 16.6739 1.14507 16.6191 1.3782 16.4065C1.67304 16.1459 1.9816 16.0979 2.32443 16.2762Z" fill="#3F3F3F"/>
<path id="Vector_9" d="M31.5334 15.138C31.0397 15.2888 30.4911 15.7757 30.306 16.2214L30.2169 16.4476H29.1198C28.057 16.4476 28.0296 16.4545 27.865 16.6191C27.6387 16.8385 27.6387 17.1539 27.865 17.3733C28.0296 17.5379 28.057 17.5447 29.1198 17.5447H30.2169L30.306 17.7641C30.4363 18.0795 30.8888 18.5595 31.218 18.7241C31.6157 18.9229 32.2465 18.9641 32.7059 18.8132C33.4327 18.5664 34.0018 17.7778 34.0018 16.9962C34.0018 15.9471 33.0967 15.0626 32.0545 15.0831C31.8625 15.0831 31.6294 15.1106 31.5334 15.138ZM32.6167 16.4065C32.8499 16.6191 32.8704 16.6739 32.8704 16.9962C32.8704 17.3184 32.8499 17.3733 32.6167 17.5859C32.3219 17.8464 32.0133 17.8944 31.6705 17.7161C31.1425 17.4419 31.1288 16.5642 31.6568 16.2831C31.9859 16.0979 32.3288 16.1459 32.6167 16.4065Z" fill="#3F3F3F"/>
<path id="Vector_10" d="M8.02204 25.1825L7.22666 25.9573L6.98667 25.8545C6.63012 25.6968 5.99244 25.7242 5.57418 25.9025C4.61424 26.3207 4.16169 27.459 4.57996 28.4189C5.2382 29.9411 7.43236 29.9411 8.0906 28.4189C8.26888 28.0006 8.29631 27.363 8.1386 27.0064L8.03575 26.7664L8.81056 25.971C9.47567 25.2922 9.59223 25.1414 9.59223 24.9562C9.59223 24.8123 9.53052 24.6751 9.42081 24.5723C9.31796 24.4626 9.18083 24.4009 9.03683 24.4009C8.8517 24.4009 8.70085 24.5174 8.02204 25.1825ZM6.82211 26.979C7.02781 27.1161 7.15809 27.3972 7.15123 27.6852C7.13066 28.3983 6.24614 28.7343 5.76617 28.2201C5.43705 27.8704 5.43705 27.3972 5.75931 27.075C6.0473 26.787 6.47242 26.7527 6.82211 26.979Z" fill="#3F3F3F"/>
<path id="Vector_11" d="M24.5738 24.5723C24.4641 24.6752 24.4023 24.8123 24.4023 24.9563C24.4023 25.1414 24.5189 25.2923 25.184 25.9711L25.9588 26.7665L25.856 27.0065C25.6983 27.363 25.7257 28.0007 25.904 28.419C26.3222 29.3789 27.4604 29.8246 28.4204 29.4132C29.9357 28.7549 29.9357 26.5608 28.4204 25.9025C28.0021 25.7243 27.3645 25.6968 27.0079 25.8545L26.7679 25.9574L25.9725 25.1826C25.2937 24.5175 25.1429 24.4009 24.9577 24.4009C24.8137 24.4009 24.6766 24.4626 24.5738 24.5723ZM28.153 26.9859C28.3724 27.1299 28.5232 27.5619 28.4478 27.8361C28.3038 28.3367 27.817 28.5904 27.3507 28.4052C26.7816 28.179 26.6514 27.507 27.0833 27.075C27.3713 26.7871 27.7964 26.7528 28.153 26.9859Z" fill="#3F3F3F"/>
<path id="Vector_12" d="M16.6208 27.8632C16.4563 28.0278 16.4494 28.0552 16.4494 29.118V30.2151L16.23 30.3042C15.9146 30.4345 15.4346 30.887 15.2701 31.2162C15.0712 31.6139 15.0301 32.2447 15.1809 32.7041C15.4278 33.4309 16.2163 34 16.998 34C17.7796 34 18.5682 33.4309 18.815 32.7041C18.9659 32.2447 18.9247 31.6139 18.7259 31.2162C18.5613 30.887 18.0813 30.4345 17.7728 30.3042L17.5465 30.2151V29.118C17.5465 28.0552 17.5396 28.0278 17.3751 27.8632C17.2722 27.7535 17.1282 27.6918 16.998 27.6918C16.8677 27.6918 16.7237 27.7535 16.6208 27.8632ZM17.4094 31.3602C17.6562 31.4904 17.8208 31.7853 17.8208 32.1144C17.8208 32.2927 17.7591 32.423 17.5876 32.6149C17.3751 32.8481 17.3202 32.8686 16.998 32.8686C16.6757 32.8686 16.6208 32.8481 16.4083 32.6149C16.1477 32.3201 16.0997 32.0115 16.278 31.6687C16.4769 31.2916 16.998 31.1476 17.4094 31.3602Z" fill="#3F3F3F"/>
</g>
</svg>
