<svg width="43" height="38" viewBox="0 0 43 38" fill="none" xmlns="http://www.w3.org/2000/svg">
<path d="M16.1156 1.7168C13.3771 1.7168 10.7001 2.52886 8.42315 4.05028C6.14617 5.57171 4.37149 7.73417 3.32351 10.2642C2.27553 12.7943 2.00133 15.5782 2.53559 18.2641C3.06984 20.95 4.38855 23.4171 6.32496 25.3535C8.26137 27.29 10.7285 28.6087 13.4144 29.1429C16.1003 29.6772 18.8843 29.403 21.4143 28.355C23.9443 27.307 26.1068 25.5323 27.6282 23.2554C29.1497 20.9784 29.9617 18.3014 29.9617 15.5629C29.9615 11.8907 28.5026 8.36908 25.906 5.77248C23.3094 3.17589 19.7878 1.71703 16.1156 1.7168Z" stroke="#4D4D4D" stroke-width="3" stroke-miterlimit="10"/>
<path d="M26.4458 25.8926L36.1158 35.5625" stroke="#4D4D4D" stroke-width="3" stroke-miterlimit="10" stroke-linecap="round"/>
<path d="M22.731 8.98047L36.731 8.84863" stroke="#4D4D4D" stroke-width="3" stroke-linecap="round"/>
<path d="M24.731 13.9805L38.731 13.8486" stroke="#4D4D4D" stroke-width="3" stroke-linecap="round"/>
<path d="M26.731 18.9805L40.731 18.8486" stroke="#4D4D4D" stroke-width="3" stroke-linecap="round"/>
</svg>
