<svg width="43" height="35" viewBox="0 0 43 35" fill="none" xmlns="http://www.w3.org/2000/svg">
<path d="M5.39844 26.3143V29.7259C5.39844 30.231 5.87472 30.6262 6.48304 30.6262H20.0641C20.6725 30.6262 21.1487 30.231 21.1487 29.7259V26.3143C21.1487 25.8092 20.6725 25.4141 20.0641 25.4141H6.48304C5.87472 25.4141 5.39844 25.8092 5.39844 26.3143ZM7.56764 28.8256V27.2146H18.9795V28.8256H7.56764Z" fill="#4D4D4D"/>
<path d="M36.4229 5.22461H23.022C22.4523 5.22461 21.9883 5.69086 21.9883 6.26324C21.9883 6.83562 22.4523 7.30187 23.022 7.30187H36.4229C36.9926 7.30187 37.4566 6.83562 37.4566 6.26324C37.4566 5.69086 36.9926 5.22461 36.4229 5.22461Z" fill="#4D4D4D"/>
<path d="M39.9958 0.111328H19.6034C18.3868 0.111328 17.3975 1.10542 17.3975 2.32789V4.63543L15.4763 2.70506C15.2716 2.49942 14.9991 2.3857 14.7095 2.3857H4.90096C4.30302 2.3857 3.81636 2.87469 3.81636 3.4755V5.41819H1.88294C1.285 5.41819 0.79834 5.90718 0.79834 6.50799V30.7679C0.801169 33.0385 2.64122 34.8874 4.90096 34.8902H30.5541C32.4385 34.8883 34.0296 33.6014 34.5087 31.8577H39.9958C41.2125 31.8577 42.2018 30.8637 42.2018 29.6412V2.32789C42.2018 1.10542 41.2125 0.111328 39.9958 0.111328ZM30.5541 11.3884C31.6199 11.3884 32.4876 12.2603 32.4876 13.3311V30.7679C32.4876 31.8388 31.6199 32.7106 30.5541 32.7106H4.90096C3.83522 32.7106 2.96754 31.8388 2.96754 30.7679V7.5978H12.7516L16.2063 11.0691C16.4109 11.2747 16.6835 11.3884 16.973 11.3884H30.5541ZM17.3975 9.18417L13.9673 5.73755C13.7626 5.53191 13.4901 5.41819 13.2005 5.41819H5.98556V4.5653H14.2606L17.3975 7.7172V9.18417ZM40.0326 2.93534V29.0337C40.0326 29.3891 39.7449 29.6781 39.3913 29.6781H34.6568V13.3311C34.6539 11.0605 32.8139 9.21165 30.5541 9.20881H19.5667V2.93534C19.5667 2.57997 19.8543 2.29093 20.208 2.29093H39.3913C39.7449 2.29093 40.0326 2.57997 40.0326 2.93534Z" fill="#4D4D4D"/>
</svg>
