<svg width="29" height="37" viewBox="0 0 29 37" fill="none" xmlns="http://www.w3.org/2000/svg">
<path d="M13.5213 18.5C12.65 18.5 11.7982 18.7584 11.0737 19.2425C10.3492 19.7266 9.78453 20.4146 9.45108 21.2196C9.11763 22.0246 9.03039 22.9105 9.20038 23.7651C9.37037 24.6196 9.78996 25.4046 10.4061 26.0208C11.0222 26.6369 11.8072 27.0565 12.6618 27.2265C13.5164 27.3965 14.4022 27.3092 15.2072 26.9758C16.0122 26.6423 16.7003 26.0777 17.1844 25.3532C17.6685 24.6287 17.9269 23.7769 17.9269 22.9056C17.9268 21.7372 17.4626 20.6166 16.6364 19.7904C15.8102 18.9643 14.6897 18.5001 13.5213 18.5Z" stroke="#4D4D4D" stroke-miterlimit="10"/>
<path d="M16.8081 26.1934L19.8849 29.2702" stroke="#4D4D4D" stroke-miterlimit="10" stroke-linecap="round"/>
<path d="M27.9617 15.5763V31.9615C27.9617 33.0326 27.5362 34.0598 26.7788 34.8172C26.0215 35.5745 24.9943 36 23.9232 36H5.07704C4.00597 36 2.97877 35.5745 2.22141 34.8172C1.46405 34.0598 1.03857 33.0326 1.03857 31.9615V5.03846C1.03857 3.96739 1.46405 2.9402 2.22141 2.18284C2.97877 1.42548 4.00597 1 5.07704 1H13.3853C14.0991 1.00011 14.7837 1.28367 15.2885 1.78834L27.1733 13.6732C27.678 14.178 27.9615 14.8625 27.9617 15.5763Z" stroke="#4D4D4D" stroke-width="2" stroke-linejoin="round"/>
<path d="M14.5 1.67383V11.77C14.5 12.484 14.7837 13.1688 15.2886 13.6737C15.7935 14.1786 16.4783 14.4623 17.1923 14.4623H27.2885" stroke="#4D4D4D" stroke-width="2" stroke-linecap="round" stroke-linejoin="round"/>
</svg>
