<svg width="32" height="27" viewBox="0 0 32 27" fill="none" xmlns="http://www.w3.org/2000/svg">
<g id="Group 33893">
<g id="Group 33894">
<path id="Vector" d="M27.0417 5.09961H4.125C2.39911 5.09961 1 6.47615 1 8.17421V22.5223C1 24.2204 2.39911 25.5969 4.125 25.5969H27.0417C28.7676 25.5969 30.1667 24.2204 30.1667 22.5223V8.17421C30.1667 6.47615 28.7676 5.09961 27.0417 5.09961Z" stroke="#5ec4ec" stroke-width="2" stroke-linejoin="round"/>
<path id="Vector_2" d="M8.29167 5.09946V3.04973C8.29167 2.50611 8.51116 1.98475 8.90186 1.60035C9.29256 1.21595 9.82247 1 10.375 1H20.7917C21.3442 1 21.8741 1.21595 22.2648 1.60035C22.6555 1.98475 22.875 2.50611 22.875 3.04973V5.09946M30.1667 12.2735H1M19.75 12.2735V13.8108C19.75 13.9467 19.6951 14.0771 19.5975 14.1732C19.4998 14.2693 19.3673 14.3233 19.2292 14.3233H11.9375C11.7994 14.3233 11.6669 14.2693 11.5692 14.1732C11.4715 14.0771 11.4167 13.9467 11.4167 13.8108V12.2735" stroke="#5ec4ec" stroke-width="2" stroke-linecap="round" stroke-linejoin="round"/>
</g>
</g>
</svg>
