<svg width="25" height="25" viewBox="0 0 25 25" fill="none" xmlns="http://www.w3.org/2000/svg">
<path id="Vector" d="M22.2222 0H2.76389C1.22917 0 0.0138889 1.24306 0.0138889 2.77778L0 22.2222C0 23.7569 1.22917 25 2.76389 25H22.2222C23.7569 25 25 23.7569 25 22.2222V2.77778C25 1.24306 23.7569 0 22.2222 0ZM22.2222 16.6667H16.6667C16.6667 18.9653 14.7986 20.8333 12.5 20.8333C10.2014 20.8333 8.33333 18.9653 8.33333 16.6667H2.76389V2.77778H22.2222V16.6667ZM18.0556 9.72222H15.2778V5.55556H9.72222V9.72222H6.94444L12.5 15.2778L18.0556 9.72222Z" fill="#5ec4ec"/>
</svg>
