<svg width="39" height="35" viewBox="0 0 39 35" fill="none" xmlns="http://www.w3.org/2000/svg">
<g id="Group 33881">
<path id="Vector" d="M35.2113 20.5943C34.5101 19.269 33.8498 17.9799 33.1486 16.7114C32.72 15.9352 32.2984 15.157 31.8769 14.3777C31.1615 13.0545 30.4256 11.7416 29.7449 10.4019C29.6949 10.3028 29.5694 10.2274 29.5469 10.1273C29.404 9.50185 28.9652 9.43579 28.3844 9.45747C27.3067 9.49772 26.2259 9.4554 25.1471 9.47398C24.3643 9.4874 23.8632 9.13647 23.5345 8.48519C23.36 8.13839 23.8407 7.35809 24.1653 7.21359C24.4449 7.08973 24.7317 6.99168 25.0552 6.99374C26.7413 7.00303 28.4273 6.99168 30.1133 7.00097C30.7492 7.00407 31.2248 7.24455 31.5381 7.82565C32.0076 8.69678 32.472 9.56894 32.9455 10.438C33.3946 11.2617 33.8375 12.0874 34.2825 12.9121C34.9714 14.1898 35.6807 15.4573 36.3553 16.7423C36.7911 17.5711 37.2667 18.3814 37.6872 19.2195C38.02 19.8821 38.4108 20.5189 38.7721 21.1682C38.9211 21.4355 38.9671 21.7214 38.9661 22.0248C38.9609 25.6043 38.9456 29.1827 38.9752 32.7622C38.9824 33.6581 38.3465 34.169 37.5025 34.1917C37.4219 34.1938 37.3402 34.1917 37.2596 34.1917C25.4155 34.1917 13.5714 34.1917 1.72727 34.1928C1.33128 34.1928 0.962838 34.1546 0.609709 33.9378C0.174931 33.6695 0.0249023 33.3051 0.0249023 32.8365C0.0289848 30.2871 0.0269436 27.7388 0.0269436 25.1894C0.0269436 24.1077 0.0289848 23.026 0.0269436 21.9454C0.0259229 21.4933 0.199426 21.1 0.447432 20.7274C0.497442 20.6531 0.548472 20.5747 0.57807 20.4921C0.870983 19.6664 1.32107 18.9067 1.69257 18.1151C2.13857 17.1634 2.60601 16.2201 3.06834 15.2757C3.5317 14.3302 3.98791 13.3827 4.4482 12.4373C4.90849 11.4908 5.35348 10.5371 5.8352 9.60197C6.16384 8.96514 6.40368 8.29011 6.79661 7.67909C7.0834 7.2332 7.49675 7.01852 7.99276 7.01129C9.78698 6.98652 11.5812 6.98549 13.3744 7.01026C13.9112 7.01748 14.3685 7.25797 14.5818 7.77301C14.7788 8.24677 14.6951 8.69265 14.3297 9.06216C14.0388 9.35632 13.651 9.46676 13.2315 9.46779C11.9639 9.46985 10.6953 9.47501 9.42773 9.46366C9.17666 9.4616 9.04908 9.52869 8.94907 9.75885C8.45203 10.8994 7.85804 11.9996 7.33651 13.1309C6.92929 14.0144 6.48022 14.8814 6.05463 15.7587C5.59536 16.7052 5.16058 17.6661 4.66457 18.5919C4.3441 19.1906 4.18386 19.8604 3.75521 20.4085C3.67458 20.5117 3.70316 20.6036 3.87156 20.5943C3.96545 20.5891 4.06037 20.5943 4.15529 20.5943C6.8803 20.5943 9.60531 20.6046 12.3303 20.5891C13.3867 20.5829 14.0266 21.1382 13.9623 22.1384C13.9092 22.9589 13.9623 23.7857 13.9449 24.6093C13.9398 24.8705 14.0327 24.9262 14.2878 24.9252C17.5119 24.9179 20.736 24.9169 23.9601 24.9262C24.2408 24.9262 24.3265 24.8612 24.3204 24.5866C24.301 23.7248 24.3408 22.8609 24.3061 21.999C24.2714 21.1444 24.8695 20.5964 25.7941 20.5953C28.7753 20.5912 31.7565 20.5933 34.7377 20.5933C34.8857 20.5933 35.0337 20.5933 35.2133 20.5933L35.2113 20.5943ZM19.495 31.7198C24.8766 31.7198 30.2583 31.7198 35.6399 31.7218C35.8767 31.7218 36.0624 31.7528 36.0594 31.4029C36.042 28.7255 36.0471 26.0481 36.0543 23.3708C36.0543 23.1437 36.0063 23.0611 35.746 23.0621C33.0078 23.0714 30.2705 23.0714 27.5322 23.0621C27.275 23.0621 27.2179 23.1385 27.2209 23.3687C27.2342 24.2439 27.2148 25.1192 27.2311 25.9945C27.2393 26.4662 27.0903 26.8326 26.6729 27.1133C26.3432 27.3352 25.9881 27.394 25.6053 27.393C23.0701 27.393 20.5339 27.393 17.9988 27.393C16.1913 27.393 14.3838 27.3868 12.5763 27.3961C11.7782 27.4002 10.9454 26.8615 11.0219 25.916C11.0883 25.0975 11.0219 24.2687 11.0423 23.4461C11.0495 23.153 10.979 23.057 10.6494 23.059C8.20811 23.0735 5.76682 23.0735 3.32554 23.059C2.99486 23.057 2.9326 23.1561 2.93362 23.4471C2.94485 26.0605 2.94689 28.6729 2.93158 31.2863C2.92954 31.6341 3.01731 31.729 3.39085 31.729C8.75923 31.7167 14.1266 31.7208 19.495 31.7208V31.7198Z" fill="#4D4D4D"/>
<path id="Vector_2" d="M20.5889 15.0869C21.0686 14.8567 21.3421 14.4965 21.6952 14.2281C22.2596 13.7998 22.772 13.3105 23.318 12.8605C23.7354 12.5168 24.5274 12.4663 25.0408 12.7284C25.449 12.9359 25.8205 13.5211 25.7593 13.9205C25.6838 14.4098 25.2949 14.7101 24.9418 15.0146C24.3784 15.5008 23.7926 15.9642 23.219 16.44C22.181 17.2998 21.1737 18.1957 20.099 19.0111C19.3519 19.5787 18.6079 19.457 17.8863 18.8418C16.5718 17.7219 15.2287 16.633 13.9244 15.5028C13.5294 15.1612 13.0803 14.8722 12.7629 14.4459C12.2812 13.7977 12.519 12.9813 13.3161 12.6964C13.9887 12.4559 14.5949 12.556 15.145 13.0329C15.9043 13.6924 16.6912 14.322 17.4699 14.962C17.5138 14.9981 17.5557 15.0683 17.6751 15.0301V14.6307C17.6751 10.5 17.6781 6.36938 17.672 2.23875C17.671 1.43677 17.9415 1.20248 18.5548 0.921734C19.0998 0.671955 19.8918 0.853612 20.3001 1.29124C20.546 1.5534 20.592 1.88266 20.592 2.22946C20.5879 6.36009 20.5889 10.4907 20.5889 14.6214V15.09V15.0869Z" fill="#4D4D4D"/>
</g>
</svg>
