<svg width="33" height="36" viewBox="0 0 33 36" fill="none" xmlns="http://www.w3.org/2000/svg">
<path d="M29.542 5.50211H26.8249V3.32843C26.8229 1.82859 25.6076 0.613366 24.1078 0.611328H3.45783C1.95798 0.613366 0.74276 1.82859 0.740723 3.32843V27.7824C0.74276 29.2822 1.95798 30.4974 3.45783 30.4995H6.17493V32.6731C6.17697 34.173 7.39219 35.3882 8.89203 35.3902H29.542C31.0418 35.3882 32.2571 34.173 32.2591 32.6731V8.21921C32.2571 6.71937 31.0418 5.50415 29.542 5.50211ZM8.34861 22.8916V20.1745H12.696V22.8916H8.34861ZM19.217 10.3929V13.11H14.8697V10.3929H19.217ZM8.34861 15.2837H12.696V18.0008H8.34861V15.2837ZM14.8697 15.2837H19.217V18.0008H14.8697V15.2837ZM12.696 13.11H8.34861V10.3929H12.696V13.11ZM14.8697 20.1745H19.217V21.4882C18.5934 21.768 18.0942 22.268 17.8136 22.8916H14.8697V20.1745ZM19.7604 26.7886V23.9784C19.7604 23.6782 20.0036 23.435 20.3039 23.435H23.114C22.2785 24.2712 20.5959 25.9531 19.7604 26.7886ZM2.9144 27.7824V3.32843C2.9144 3.02819 3.15759 2.78501 3.45783 2.78501H24.1078C24.408 2.78501 24.6512 3.02819 24.6512 3.32843V21.2613H21.3907V9.30606C21.3907 8.70558 20.9043 8.21921 20.3039 8.21921H7.26177C6.66129 8.21921 6.17493 8.70558 6.17493 9.30606V23.9784C6.17493 24.5789 6.66129 25.0653 7.26177 25.0653H17.5868V28.3258H3.45783C3.15759 28.3258 2.9144 28.0826 2.9144 27.7824ZM30.0854 32.6731C30.0854 32.9734 29.8422 33.2166 29.542 33.2166H8.89203C8.59179 33.2166 8.34861 32.9734 8.34861 32.6731V30.4995H18.6736C18.9616 30.4967 19.2374 30.3819 19.4425 30.1802L26.5056 23.1171C26.7074 22.9113 26.8215 22.6362 26.8249 22.3481V7.67579H29.542C29.8422 7.67579 30.0854 7.91898 30.0854 8.21921V32.6731Z" fill="#4D4D4D"/>
</svg>
