<svg width="25" height="28" viewBox="0 0 25 28" fill="none" xmlns="http://www.w3.org/2000/svg">
<path id="Vector" d="M24.9901 5.56053C24.9152 4.22495 24.5227 2.87959 23.7902 1.44817C23.661 1.19607 23.4725 1.11122 23.2125 1.18813C21.7955 1.6081 20.6516 2.21546 19.7151 3.04501C18.4112 4.20053 17.845 5.70459 18.0324 7.51569C18.053 7.71164 18.0787 7.91124 18.1038 8.10413C18.109 8.14381 18.1141 8.18349 18.1193 8.22317C18.1055 8.20974 18.0913 8.19631 18.0775 8.18227C17.9741 8.08155 17.8758 7.98632 17.785 7.88316C17.5782 7.64998 17.333 7.45587 17.0959 7.26787C16.7925 7.02736 16.5057 6.80029 16.2897 6.49752C16.0766 6.19964 15.8949 5.8633 15.7189 5.53856C15.5669 5.25777 15.4092 4.9666 15.2304 4.69741C15.0401 4.41051 14.8378 4.13155 14.6824 3.92096C14.491 3.66092 14.2625 3.60721 14.0562 3.77507C13.9613 3.85198 13.9059 3.94477 13.8928 4.04976C13.8762 4.17917 13.9248 4.32383 14.0362 4.4801C14.0522 4.50269 14.0693 4.52527 14.0859 4.54725C14.1019 4.568 14.1173 4.58936 14.1328 4.61073C14.5813 5.23518 14.9395 5.80714 15.2544 6.40108L14.6024 6.26495C13.7631 6.08915 12.9431 5.91763 12.1226 5.74793C12.0592 5.7345 12.0301 5.69116 11.9872 5.62158C11.9764 5.60387 11.9655 5.58617 11.9541 5.56908C10.9439 4.10042 10.0057 2.73309 9.08578 1.39018C9.07549 1.37553 9.06406 1.36149 9.05264 1.34684C9.02635 1.31449 9.00407 1.28641 8.9955 1.24978C9.50631 1.25223 10.036 1.36515 10.6131 1.59467C11.2656 1.85409 11.893 2.2588 12.5866 2.86738C12.8003 3.05478 13.0186 3.04685 13.186 2.84602C13.2683 2.74713 13.3083 2.63543 13.3008 2.5225C13.2934 2.40652 13.2368 2.29726 13.1363 2.2063C11.4381 0.657682 9.65201 0.0851124 7.67619 0.457465C5.66323 0.835923 3.78224 1.87058 1.75671 3.71342C1.57387 3.87945 1.53445 4.09798 1.64472 4.32872C2.5395 6.19659 3.58227 7.66647 4.83187 8.82198C4.90615 8.89035 4.93929 8.93552 4.93986 8.96848C4.93986 9.00144 4.909 9.046 4.8313 9.12292C2.6275 11.2966 1.69786 13.9525 2.06754 17.0156C2.47151 20.3607 4.19136 22.7938 7.17852 24.2478C7.56934 24.4382 7.73504 24.2173 7.79903 24.0689C7.8516 23.9475 7.8596 23.8339 7.8236 23.732C7.78075 23.6105 7.67676 23.5104 7.51449 23.4341C7.04824 23.2143 6.606 22.9598 6.20032 22.6772C6.08433 22.5966 6.0529 22.5209 6.07119 22.3671C6.17518 21.4747 6.04262 20.6872 5.67637 20.0261C5.39696 19.5213 5.39925 19.077 5.68322 18.5386C5.73293 18.444 5.77521 18.3445 5.81635 18.248C5.83578 18.2022 5.85521 18.1564 5.87578 18.1107L5.93291 17.9831C6.10661 17.5973 6.28603 17.1981 6.3883 16.7708C6.54029 16.1366 6.32659 15.6312 5.78664 15.3485C5.53124 15.2149 5.3204 15.1306 5.12213 15.0824C4.79587 15.0037 4.56789 14.8059 4.38219 14.4421C4.30792 14.2968 4.23535 14.1472 4.16507 14.0026C3.97252 13.6058 3.77368 13.195 3.52056 12.8251C3.44514 12.7146 3.43942 12.6407 3.49656 12.5095C3.97652 11.4077 4.66274 10.4414 5.53752 9.6375C5.6478 9.53617 5.70493 9.53251 5.82664 9.61857C6.554 10.1325 7.3545 10.4817 8.20528 10.6551C8.25842 10.666 8.31213 10.6709 8.3647 10.6764C8.44812 10.6844 8.52754 10.6923 8.60125 10.721C8.58525 10.7356 8.56982 10.7503 8.55382 10.7649C8.51954 10.7967 8.48526 10.8278 8.45155 10.8608C7.78646 11.5054 7.4305 12.1646 7.33222 12.935C7.24251 13.6363 7.41164 14.3078 7.80818 14.8254C8.19843 15.3351 8.76923 15.6403 9.41489 15.6849C9.93541 15.7209 10.4519 15.6342 10.9513 15.5506C11.0267 15.5378 11.1027 15.5249 11.1787 15.5127C11.5341 15.4554 11.7198 15.4425 11.8164 15.5231C11.9135 15.6043 11.9455 15.7966 11.9804 16.197C12.0301 16.7678 12.0267 17.3507 12.0232 17.9141C12.0209 18.2761 12.0187 18.6509 12.0307 19.0196C12.0455 19.4841 12.0729 19.9779 12.2238 20.4559C12.3569 20.8789 12.5866 21.1872 12.8866 21.3459C13.1671 21.4942 13.5014 21.5058 13.8539 21.3788C15.087 20.9338 15.8886 20.0139 16.2354 18.6454C16.3234 18.2975 16.2669 17.9568 16.2114 17.6266C16.188 17.4862 16.164 17.3409 16.1514 17.1987L16.1411 17.0827C16.0926 16.5321 16.0463 16.0121 16.3446 15.5414C16.7297 14.9335 17.3039 14.5874 17.9118 14.2199L17.9547 14.1942C18.1558 15.2399 18.1701 16.2758 17.9993 17.3574C17.4182 21.0394 14.3499 23.9157 10.8622 24.0488C10.5108 24.0622 10.1251 24.0549 9.64858 24.025C9.47774 24.0134 9.32975 24.0817 9.24348 24.2093C9.16291 24.329 9.1492 24.4846 9.20634 24.636C9.29033 24.86 9.47031 24.9028 9.65258 24.9162C10.3365 24.965 10.949 24.9534 11.5267 24.8802C13.4197 24.6397 15.2098 23.688 16.568 22.2011C17.9313 20.7086 18.7638 18.7772 18.9135 16.7635C19.1683 13.3287 17.9558 10.5293 15.3092 8.44353C15.2921 8.4301 15.2732 8.41789 15.2544 8.40568C15.2178 8.38248 15.1915 8.36478 15.1744 8.33975C15.2424 8.2836 15.3104 8.22805 15.3789 8.1725C15.5652 8.02112 15.7583 7.86424 15.9337 7.69271C16.0749 7.55476 16.1497 7.55293 16.2971 7.68173C19.3774 10.3749 20.5945 13.795 19.9145 17.847C19.4311 20.7275 17.7667 23.2473 15.3481 24.7605C12.902 26.2908 9.99141 26.6095 7.36193 25.6353C2.89776 23.9804 0.261991 19.3223 0.953929 14.3078C0.999639 13.9751 0.881363 13.7676 0.620244 13.7242C0.34884 13.6791 0.184854 13.8249 0.13343 14.1576C-0.0625521 15.4248 -0.0425537 16.7293 0.192853 18.035C0.4654 19.5488 1.0185 20.9583 1.83728 22.2243C2.62578 23.4439 3.62226 24.473 4.79759 25.2837C5.97348 26.0943 7.26194 26.6394 8.62753 26.9049C9.24233 27.0246 9.85942 27.0838 10.4759 27.0838C11.2804 27.0838 12.0844 26.9818 12.8792 26.7792C15.864 26.0168 18.3775 23.9188 19.7745 21.0236C21.1738 18.1235 21.3155 14.7119 20.1619 11.6629C20.1311 11.5804 20.1219 11.5292 20.1345 11.5005C20.1465 11.4724 20.1876 11.4492 20.2756 11.4187C21.4778 11.0036 22.4594 10.4493 23.2765 9.72478C24.5073 8.63336 25.0838 7.23185 24.9901 5.56053ZM23.8913 5.73023C23.3971 5.93045 22.912 6.14714 22.3983 6.37666C22.228 6.45296 22.0549 6.52987 21.8778 6.60801L23.4228 2.66167C23.7285 3.35938 23.9405 4.06746 24.0702 4.82193C24.081 4.88358 24.0867 4.9489 24.093 5.01238C24.1016 5.10455 24.1107 5.19978 24.1336 5.29195C24.1924 5.52574 24.1336 5.63195 23.8913 5.73023ZM20.4071 10.359C20.4156 10.3419 20.4242 10.3248 20.4311 10.3077C20.7207 9.56364 21.0121 8.81954 21.3035 8.07605L21.3487 7.96069C21.3538 7.94848 21.3584 7.93566 21.363 7.92345C21.3944 7.8386 21.4195 7.77146 21.4995 7.73666C22.1726 7.44367 22.8337 7.15189 23.5336 6.84363L24.1096 6.58969C24.0382 7.09451 23.8839 7.54133 23.6268 7.98693C22.9857 9.0985 21.5224 10.0428 20.3813 10.4182C20.3859 10.4011 20.3956 10.3822 20.4071 10.359ZM21.0459 6.41878L20.8613 5.94143C20.5979 5.25899 20.3488 4.61439 20.0957 3.96552C20.0745 3.91119 20.0819 3.88495 20.1317 3.83855C20.7967 3.21227 21.6007 2.72516 22.656 2.31007L21.0459 6.41878ZM19.4683 4.6736L19.6688 5.19368C19.9665 5.96646 20.2631 6.73497 20.5613 7.50288C20.5836 7.55964 20.5819 7.60481 20.5568 7.66952C20.3648 8.15663 20.1739 8.64435 19.9831 9.13207C19.854 9.4617 19.7248 9.79193 19.5957 10.1216C18.7661 8.34036 18.4684 5.94204 19.4683 4.6736ZM5.06613 17.8519C4.91129 18.1943 4.75131 18.5483 4.64903 18.925C4.53304 19.3498 4.57418 19.7289 4.77473 20.0835C5.09299 20.6469 5.2764 21.33 5.2484 21.8244C3.26001 20.017 2.34466 16.5962 3.08974 13.7657C3.13945 13.8616 3.18802 13.955 3.23658 14.0471C3.38457 14.3298 3.52456 14.5971 3.65369 14.8712C3.92909 15.4548 4.3342 15.8045 4.89186 15.9413C5.03985 15.9779 5.18612 16.0401 5.32211 16.1018C5.6118 16.2336 5.64665 16.3136 5.55752 16.6371C5.46953 16.9552 5.33297 17.2591 5.20041 17.554L5.14727 17.6724C5.12041 17.7328 5.09299 17.7926 5.06613 17.8531V17.8519ZM15.3149 17.2396C15.3304 17.3434 15.3452 17.4471 15.3595 17.5509C15.3692 17.6205 15.3789 17.6901 15.3892 17.7591C15.5538 18.8944 14.6796 20.2715 13.6242 20.5389C13.2883 20.6237 13.1168 20.52 13.0123 20.1672C12.8957 19.7747 12.8757 19.3675 12.8643 18.9506C12.8569 18.6954 12.8592 18.4354 12.8609 18.1833C12.8614 18.0704 12.8626 17.9568 12.8626 17.8439C12.8614 17.7169 12.8614 17.5906 12.8614 17.4636C12.8614 16.8868 12.8614 16.2898 12.7557 15.7062C12.7186 15.5018 12.666 15.3253 12.594 15.1672C12.4061 14.7522 12.1249 14.5495 11.737 14.5495C11.6947 14.5495 11.6507 14.5519 11.6056 14.5568C11.3461 14.5849 11.0839 14.6264 10.8302 14.6667C10.6548 14.6948 10.4731 14.7235 10.2948 14.7473C10.1125 14.7717 9.87199 14.8004 9.62916 14.8016C9.62516 14.8016 9.62116 14.8016 9.61716 14.8016C9.12006 14.8016 8.68181 14.5794 8.41326 14.1912C8.13786 13.7938 8.06872 13.2652 8.22242 12.7408C8.42869 12.0383 8.90636 11.5859 9.34632 11.2356C9.47603 11.1324 9.61144 11.0317 9.74229 10.934C9.82857 10.8699 9.91485 10.8058 10.0006 10.7399C10.0474 10.7039 10.0908 10.685 10.1417 10.6776C11.4747 10.486 12.8077 9.93782 14.2167 9.00328C14.3653 8.905 14.4584 8.905 14.599 9.00389C16.0394 10.0184 17.0754 11.4053 17.6776 13.126C17.7313 13.2798 17.7136 13.3329 17.5867 13.3989C17.317 13.5393 17.0622 13.7163 16.8159 13.8872C16.7605 13.9257 16.7057 13.9641 16.6502 14.002C15.5538 14.7534 15.1052 15.843 15.3149 17.2396ZM8.04758 9.63322C8.06301 9.62285 8.07844 9.61247 8.09272 9.60148C8.50811 9.27552 8.9235 8.95017 9.3389 8.62482C10.1297 8.00525 10.9473 7.36431 11.7501 6.73253C11.8461 6.65684 11.9364 6.61228 12.0649 6.63975C12.7043 6.77587 13.3551 6.91138 13.9842 7.04201C14.319 7.1116 14.6539 7.18119 14.9887 7.25138C15.019 7.25749 15.0492 7.26848 15.0864 7.28191C14.5156 7.75986 13.9305 8.17494 13.3008 8.54913C12.0644 9.28346 10.9742 9.68816 9.86856 9.82306C9.35775 9.88532 8.42241 9.8664 7.98873 9.67839C8.00473 9.66191 8.02587 9.64787 8.04758 9.63322ZM2.93147 3.83428C3.67426 3.21593 4.41934 2.70745 5.20612 2.28139C5.27012 2.24659 5.28611 2.25331 5.3164 2.29726C5.75122 2.93331 6.18661 3.56875 6.63628 4.22434L6.94082 4.66811L2.93147 3.83428ZM7.90588 1.31205C7.97673 1.31205 8.02301 1.34135 8.06929 1.40971C8.73952 2.3937 9.42403 3.39112 10.0857 4.35619C10.3411 4.72854 10.5965 5.10089 10.8519 5.47386C10.8519 5.47386 10.8536 5.47691 10.8548 5.47874L10.5211 5.41159C10.212 5.34933 9.91256 5.28951 9.61316 5.22786C9.42975 5.19001 9.24576 5.15217 9.06235 5.11371C8.81437 5.06183 8.56639 5.00994 8.31784 4.95989C8.19957 4.93608 8.12129 4.88481 8.05558 4.78775C7.43792 3.87823 6.79398 2.93941 6.1409 1.99815C6.1209 1.96946 6.07404 1.90171 6.0809 1.87729C6.08261 1.87119 6.09461 1.84738 6.17632 1.81503C6.74198 1.58673 7.28422 1.42497 7.83332 1.31998C7.86017 1.3151 7.88417 1.31205 7.90588 1.31205ZM5.65751 7.53828C6.38316 6.96998 7.09795 6.41023 7.8116 5.84865C7.87617 5.79799 7.93616 5.78273 8.01216 5.7986L8.97436 5.99942C9.57602 6.12517 10.1777 6.25091 10.7793 6.37727C10.7793 6.37727 10.7845 6.3791 10.7885 6.38215L9.96741 7.02553C9.73943 7.20438 9.51088 7.38262 9.2829 7.56086C8.59611 8.09742 7.88645 8.65229 7.19223 9.2041C7.06596 9.30421 6.98425 9.31337 6.85626 9.24073C6.24432 8.89462 5.68551 8.46733 5.15013 7.93566L5.65751 7.53828ZM6.78998 5.54589L6.36602 5.87795C5.7655 6.34797 5.19584 6.79418 4.62732 7.24162C4.56275 7.29228 4.54389 7.29167 4.50104 7.23979C3.76339 6.34553 3.22401 5.54222 2.80691 4.71511L6.78998 5.54589Z" fill="#3F3F3F"/>
</svg>
