<svg width="50" height="39" viewBox="0 0 50 39" fill="none" xmlns="http://www.w3.org/2000/svg">
<path d="M3.80322 18.9648H17.387" stroke="#4D4D4D" stroke-width="2"/>
<path d="M2.17334 24.3984H15.7571" stroke="#4D4D4D" stroke-width="2"/>
<path d="M0 29.832L13.5838 29.832" stroke="#4D4D4D" stroke-width="2"/>
<path d="M32.7126 5.33412C32.2943 4.84765 31.727 4.57432 31.1354 4.57422H24.25C23.3624 4.57422 22.5111 4.98435 21.8835 5.71439C21.2558 6.44443 20.9032 7.43458 20.9032 8.46701L18.5366 33.557C18.5366 34.5894 18.8892 35.5795 19.5169 36.3096C20.1445 37.0396 20.9958 37.4498 21.8835 37.4498H37.502C38.3897 37.4498 39.2409 37.0396 39.8686 36.3096C40.4963 35.5795 40.8489 34.7558 41.2593 33.5713L42.6345 19.9265V19.3086" stroke="#4D4D4D" stroke-width="2" stroke-linejoin="round"/>
<path d="M25.0249 23.1777H38.0007M25.0249 29.6657H38.0007" stroke="#4D4D4D" stroke-width="2" stroke-linecap="round" stroke-linejoin="round"/>
<path d="M48.6904 10.2884C48.6904 5.3761 44.705 1.39062 39.7927 1.39062C34.8804 1.39062 30.895 5.3761 30.895 10.2884C30.895 15.2008 34.8804 19.1862 39.7927 19.1862C44.705 19.1862 48.6904 15.2008 48.6904 10.2884Z" stroke="#4D4D4D" stroke-width="2" stroke-miterlimit="10"/>
<path d="M44.2414 6.58008L38.0131 13.9949L35.3438 11.029" stroke="#4D4D4D" stroke-width="2" stroke-linecap="round" stroke-linejoin="round"/>
</svg>
