<svg width="31" height="38" viewBox="0 0 31 38" fill="none" xmlns="http://www.w3.org/2000/svg">
<path d="M14.4801 5.79652C14.0263 5.34288 13.411 5.08799 12.7693 5.08789H5.30037C4.33752 5.08789 3.4141 5.47035 2.73326 6.15113C2.05241 6.83191 1.66992 7.75524 1.66992 8.71801V32.9188C1.66992 33.8816 2.05241 34.8049 2.73326 35.4857C3.4141 36.1665 4.33752 36.5489 5.30037 36.5489H22.2425C23.2053 36.5489 24.1288 36.1665 24.8096 35.4857C25.4904 34.8049 25.8729 33.8816 25.8729 32.9188V18.1904C25.8728 17.5487 25.6179 16.9334 25.1642 16.4797" stroke="#4D4D4D" stroke-width="2" stroke-linejoin="round"/>
<path d="M7.7207 23.2383H19.8222M7.7207 29.2885H19.8222" stroke="#4D4D4D" stroke-width="2" stroke-linecap="round" stroke-linejoin="round"/>
<path d="M29.3302 10.0669C29.3302 5.48608 25.6133 1.76953 21.0321 1.76953C16.4508 1.76953 12.7339 5.48608 12.7339 10.0669C12.7339 14.6478 16.4508 18.3644 21.0321 18.3644C25.6133 18.3644 29.3302 14.6478 29.3302 10.0669Z" stroke="#4D4D4D" stroke-width="2" stroke-miterlimit="10"/>
<path d="M23.7977 12.8324L18.2656 7.30078M18.2656 12.8324L23.7977 7.30078" stroke="#4D4D4D" stroke-width="2" stroke-linecap="round" stroke-linejoin="round"/>
</svg>
