<svg width="36" height="37" viewBox="0 0 36 37" fill="none" xmlns="http://www.w3.org/2000/svg">
<path d="M28.9338 15.8042V31.803C28.9338 32.2597 28.8439 32.712 28.6691 33.134C28.4943 33.5559 28.2381 33.9394 27.9151 34.2623C27.5922 34.5853 27.2088 34.8415 26.7868 35.0162C26.3648 35.191 25.9126 35.281 25.4558 35.281H4.58786C3.66544 35.281 2.7808 34.9146 2.12854 34.2623C1.47629 33.6101 1.10986 32.7254 1.10986 31.803V10.935C1.10986 10.0126 1.47629 9.12796 2.12854 8.47571C2.7808 7.82346 3.66544 7.45703 4.58786 7.45703H19.1502" stroke="#4D4D4D" stroke-width="2" stroke-linecap="round" stroke-linejoin="round"/>
<path d="M35.5371 0.956512C35.4101 0.816907 35.256 0.704511 35.0843 0.626116C34.9126 0.547722 34.7268 0.504957 34.538 0.500406C34.3493 0.495855 34.1617 0.529612 33.9864 0.599637C33.8111 0.669662 33.6518 0.774502 33.5181 0.90782L32.4426 1.97817C32.3122 2.10861 32.239 2.28547 32.239 2.46988C32.239 2.65428 32.3122 2.83114 32.4426 2.96158L33.4286 3.94585C33.4932 4.01079 33.57 4.06231 33.6547 4.09747C33.7393 4.13263 33.83 4.15073 33.9216 4.15073C34.0132 4.15073 34.1039 4.13263 34.1885 4.09747C34.2731 4.06231 34.35 4.01079 34.4146 3.94585L35.4632 2.90245C35.9936 2.37293 36.0432 1.51038 35.5371 0.956512ZM30.268 4.15192L14.5718 19.8203C14.4766 19.9151 14.4074 20.0328 14.3709 20.162L13.6449 22.3244C13.6275 22.3831 13.6263 22.4454 13.6413 22.5047C13.6564 22.564 13.6872 22.6182 13.7304 22.6615C13.7737 22.7047 13.8279 22.7355 13.8872 22.7506C13.9465 22.7657 14.0088 22.7644 14.0675 22.747L16.2282 22.021C16.3574 21.9845 16.4751 21.9153 16.5699 21.8201L32.2382 6.12221C32.3832 5.9757 32.4645 5.77792 32.4645 5.57181C32.4645 5.36571 32.3832 5.16793 32.2382 5.02142L31.3731 4.15192C31.2264 4.00564 31.0277 3.9235 30.8205 3.9235C30.6134 3.9235 30.4146 4.00564 30.268 4.15192Z" fill="#4D4D4D"/>
</svg>
