<svg width="27" height="34" viewBox="0 0 27 34" fill="none" xmlns="http://www.w3.org/2000/svg">
<g id="Group 33879">
<path id="Vector" d="M21.8423 11.2605C21.6629 11.2122 21.4917 11.2129 21.3402 11.2129H21.3024C18.3619 11.2093 15.4205 11.2056 12.48 11.2027H11.9805C11.8068 11.202 11.7764 11.1618 11.769 11.0323C11.727 10.3493 11.3435 9.73582 10.7164 9.34899C10.0991 8.96874 9.33459 8.86491 8.61777 9.06381C7.55777 9.3585 6.91831 10.1534 6.90597 11.191C6.90597 11.2012 6.90597 11.21 6.90597 11.2181C6.90021 11.2181 6.89362 11.2181 6.88622 11.2181C6.37185 11.199 5.86407 11.2064 5.47892 11.2159C4.87073 11.2298 4.45101 11.58 4.4576 12.067C4.46418 12.5533 4.88308 12.8838 5.49949 12.8904C5.97435 12.8955 6.43934 12.8999 6.90185 12.889C6.8821 13.4147 7.04834 13.8849 7.39564 14.2871C7.87544 14.8421 8.58814 15.1463 9.33706 15.1463C9.59959 15.1463 9.86706 15.109 10.1296 15.0315C11.1205 14.7412 11.7632 13.9229 11.7673 12.9467C11.7673 12.9153 11.769 12.8926 11.7706 12.8765C11.7887 12.8751 11.8126 12.8743 11.8472 12.8743C13.0388 12.8846 14.2486 12.8831 15.4189 12.8817C15.7324 12.8817 16.0468 12.8817 16.3604 12.8809V12.8912H21.3913C21.4909 12.8912 21.5937 12.8919 21.7015 12.8802C22.1665 12.8305 22.5122 12.5102 22.541 12.1014C22.5665 11.7234 22.2801 11.3775 21.8447 11.2612L21.8423 11.2605ZM8.78977 12.9533C8.78483 12.7478 8.78648 12.5372 8.7873 12.3332C8.7873 12.2382 8.78813 12.1438 8.78813 12.0488C8.78813 11.9552 8.78813 11.8616 8.78648 11.7687C8.78483 11.5639 8.78319 11.3519 8.78977 11.1457C8.79883 10.8649 9.03831 10.647 9.33788 10.647C9.33952 10.647 9.34199 10.647 9.34446 10.647C9.63991 10.6499 9.87611 10.8634 9.88105 11.1332C9.89175 11.7263 9.89175 12.3456 9.88105 12.9745C9.87611 13.2502 9.62592 13.4805 9.32965 13.4754C9.03338 13.4718 8.79553 13.2422 8.78895 12.9533H8.78977Z" fill="#4D4D4D"/>
<path id="Vector_2" d="M15.689 16.6148C15.1787 15.5371 14.0774 14.9566 13.0131 15.2025C11.8508 15.4713 11.0903 16.4637 11.0738 17.732C11.0738 17.7917 11.0697 17.8294 11.0656 17.8514C11.045 17.854 11.0096 17.8575 10.9553 17.8567C9.70419 17.8444 8.43331 17.8453 7.20359 17.847C6.68997 17.847 6.17718 17.8479 5.66273 17.847C5.48247 17.847 5.30551 17.8523 5.12031 17.9129C4.7104 18.049 4.43878 18.4583 4.45853 18.9071C4.47911 19.3638 4.79436 19.7546 5.21003 19.8354C5.35407 19.8635 5.49811 19.8627 5.62652 19.8627H5.65533C7.37397 19.8627 9.09344 19.8627 10.8121 19.8627C11.003 19.8627 11.0582 19.9198 11.0697 20.1279C11.1084 20.8437 11.4138 21.4928 11.9274 21.9565C12.3686 22.3535 12.9085 22.5643 13.4732 22.5643C13.5629 22.5643 13.6535 22.559 13.744 22.5485C15.0182 22.3965 15.9162 21.3364 15.9269 19.9698C15.9269 19.9154 15.9302 19.8794 15.9335 19.8574C15.9549 19.8548 15.9903 19.853 16.047 19.8539C16.6915 19.8697 17.3451 19.8671 17.9772 19.8644C18.1715 19.8635 18.3657 19.8627 18.56 19.8627H19.7239C19.9091 19.8627 20.0934 19.8644 20.2786 19.8644C20.7165 19.8653 21.1684 19.8671 21.6145 19.8556C22.1257 19.8416 22.515 19.4428 22.5414 18.9071C22.5652 18.4135 22.231 17.9831 21.7471 17.883C21.5915 17.8514 21.4351 17.8488 21.3009 17.8488H20.277C18.8678 17.8461 17.4093 17.8444 15.9763 17.854C15.9573 17.854 15.9425 17.854 15.9293 17.8532C15.9293 17.8453 15.9293 17.8365 15.931 17.8268C15.9573 17.4184 15.8758 17.01 15.6873 16.613L15.689 16.6148ZM12.9505 18.525C12.9489 18.2721 12.9472 18.0104 12.9538 17.7565C12.9629 17.4246 13.1942 17.1716 13.4905 17.1681C13.4929 17.1681 13.4946 17.1681 13.4971 17.1681C13.8 17.1681 14.0403 17.4272 14.0452 17.7618C14.056 18.4952 14.056 19.24 14.0452 19.9733C14.0411 20.2886 13.7942 20.5591 13.5061 20.5653C13.5036 20.5653 13.5012 20.5653 13.4979 20.5653C13.2106 20.5653 12.962 20.2904 12.953 19.9602C12.9464 19.7125 12.948 19.4569 12.9497 19.2101C12.9497 19.0986 12.9513 18.987 12.9513 18.8764C12.9513 18.7587 12.9513 18.6419 12.9497 18.5259L12.9505 18.525Z" fill="#4D4D4D"/>
<path id="Vector_3" d="M5.66738 26.4876H16.1466C16.3754 26.4876 16.4198 26.5571 16.4322 26.7121C16.5211 27.8372 17.5185 28.6911 18.8033 28.7437C18.8353 28.7452 18.8674 28.7459 18.8995 28.7459C20.0443 28.7459 21.1192 27.9191 21.2731 26.9C21.2862 26.8108 21.2838 26.7201 21.2813 26.6404C21.2797 26.5893 21.2772 26.511 21.2838 26.4664C21.3183 26.4664 21.3669 26.4716 21.4031 26.4752C21.5027 26.4847 21.6154 26.495 21.7323 26.4767C22.1882 26.4058 22.529 26.0702 22.5421 25.6776C22.5553 25.3033 22.2607 24.9641 21.8253 24.8537C21.6623 24.8128 21.4854 24.7989 21.2978 24.8128C21.3192 24.3061 21.162 23.8492 20.8303 23.4551C20.1941 22.697 19.1382 22.387 18.1416 22.6649C17.1103 22.9529 16.4412 23.7659 16.4363 24.736C16.4363 24.7718 16.4338 24.7967 16.4314 24.8135C16.4108 24.8149 16.3795 24.8164 16.3334 24.8164C14.9804 24.8076 13.6052 24.8091 12.2761 24.8098C11.8785 24.8098 11.481 24.8098 11.0844 24.8098H5.68466C5.24189 24.8098 4.91104 24.9049 4.70036 25.0942C4.53905 25.239 4.4551 25.4356 4.45757 25.6615C4.46169 25.9693 4.62382 26.4862 5.66656 26.4862L5.66738 26.4876ZM18.3152 25.6403C18.3152 25.5533 18.3144 25.4663 18.3136 25.3801C18.3119 25.1688 18.3095 24.9509 18.3169 24.7382C18.3251 24.4655 18.5596 24.2476 18.851 24.2432C18.9958 24.2432 19.1374 24.2886 19.2411 24.3778C19.3464 24.4684 19.4057 24.5942 19.4082 24.7331C19.4197 25.3435 19.4197 25.9627 19.4082 26.5739C19.4057 26.7135 19.344 26.8422 19.2345 26.9358C19.1308 27.025 18.9967 27.0725 18.8551 27.0696C18.567 27.0645 18.3259 26.8415 18.3177 26.5732C18.3111 26.3604 18.3127 26.1418 18.3144 25.9306C18.3144 25.9181 18.3144 25.905 18.3144 25.8926H18.3169V25.6403H18.3152Z" fill="#4D4D4D"/>
<path id="Vector_4" d="M26.7162 7.25072C26.7162 6.8551 26.5766 6.54083 26.2761 6.26086C24.2428 4.36649 22.2589 2.50642 20.3788 0.733291C20.0716 0.444549 19.7277 0.310547 19.2954 0.310547C14.4228 0.31613 9.46847 0.31613 4.67589 0.31613H1.55233C0.632282 0.315333 0.290137 0.63917 0.290137 1.50859V5.50631C0.290137 14.3512 0.290137 23.4968 0.28418 32.4917C0.28418 32.8419 0.348864 33.342 0.919105 33.6395L1.02124 33.6905L1.09869 33.6738H10.9826L11.0464 33.6427C11.0643 33.6339 11.0813 33.6259 11.0992 33.618C11.1443 33.5972 11.1962 33.5733 11.2473 33.543C11.6167 33.3236 11.7835 32.9958 11.7162 32.6201C11.6422 32.2046 11.3358 31.927 10.8771 31.8592C10.7562 31.8416 10.637 31.8424 10.5324 31.844C10.5068 31.844 10.4821 31.844 10.4566 31.844H9.05909C6.83855 31.8424 4.54312 31.8416 2.28513 31.8488C2.26726 31.8488 2.25109 31.8488 2.23832 31.848C2.23832 31.8377 2.23832 31.8265 2.23832 31.8121C2.24853 30.5008 2.24683 29.1688 2.24598 27.8798C2.24598 27.4603 2.24598 27.0399 2.24598 26.6204V23.2528C2.24598 16.2368 2.24598 9.22166 2.24343 2.20651V2.18498C2.24343 2.17062 2.24343 2.15387 2.24343 2.13792C2.24768 2.13792 2.25194 2.13792 2.25619 2.13792C7.17389 2.14749 12.4967 2.14829 18.5302 2.13951C18.5396 2.13951 18.5481 2.13951 18.5549 2.13951C18.5549 2.14749 18.5549 2.15546 18.5549 2.16504C18.5464 3.31921 18.5472 4.49252 18.5489 5.62675C18.5489 6.02157 18.5489 6.4172 18.5489 6.81203C18.5489 7.62242 18.9183 7.96779 19.7847 7.96779C20.1779 7.96779 20.5712 7.96859 20.9644 7.96939C22.1806 7.97178 23.4385 7.97337 24.676 7.96061C24.7143 7.96061 24.7424 7.96141 24.7612 7.9638C24.7637 7.98374 24.7654 8.01565 24.7654 8.06271C24.7578 16.5032 24.7578 24.2586 24.7654 31.7715C24.7654 31.805 24.7637 31.8289 24.7629 31.8464C24.7441 31.848 24.7195 31.8488 24.6846 31.8488C22.5815 31.8392 20.4426 31.84 18.3745 31.8408C17.754 31.8408 17.1335 31.8408 16.5114 31.8408H16.4458C16.2816 31.84 16.0969 31.8392 15.9037 31.907C15.5752 32.0219 15.3428 32.2795 15.2807 32.597C15.2194 32.9113 15.3386 33.2255 15.6007 33.4393C15.6645 33.4911 15.7318 33.5342 15.7905 33.5717C15.8152 33.5877 15.8407 33.6036 15.8645 33.6204L15.9411 33.6722H25.9399L25.9936 33.6515C26.7145 33.3747 26.7145 32.7374 26.7145 32.5276C26.7093 23.9627 26.7102 15.4575 26.7145 7.24753L26.7162 7.25072ZM23.27 6.13962H22.3406C21.7253 6.13962 21.1099 6.13962 20.4954 6.13962C20.5022 5.39464 20.5031 4.63848 20.5039 3.90706C20.5039 3.7914 20.5039 3.67575 20.5039 3.56009C21.3091 4.31066 22.1185 5.06522 22.9347 5.82616L23.27 6.13883V6.13962Z" fill="#4D4D4D"/>
</g>
</svg>
