<svg width="50" height="39" viewBox="0 0 50 39" fill="none" xmlns="http://www.w3.org/2000/svg">
<g id="Group 33871">
<path id="Vector 129" d="M3.80322 18.9648H17.387" stroke="#4D4D4D" stroke-width="2"/>
<path id="Vector 130" d="M2.17334 24.3984H15.7571" stroke="#4D4D4D" stroke-width="2"/>
<path id="Vector 131" d="M0 29.832L13.5838 29.832" stroke="#4D4D4D" stroke-width="2"/>
<g id="Group 33866">
<g id="Group 33858">
<path id="Vector" d="M32.7126 5.33412C32.2943 4.84765 31.727 4.57432 31.1354 4.57422H24.25C23.3624 4.57422 22.5111 4.98435 21.8835 5.71439C21.2558 6.44443 20.9032 7.43458 20.9032 8.46701L18.5366 33.557C18.5366 34.5894 18.8892 35.5795 19.5169 36.3096C20.1445 37.0396 20.9958 37.4498 21.8835 37.4498H37.502C38.3897 37.4498 39.2409 37.0396 39.8686 36.3096C40.4963 35.5795 40.8489 34.7558 41.2593 33.5713L42.6345 19.9265V19.3086" stroke="#4D4D4D" stroke-width="2" stroke-linejoin="round"/>
<path id="Vector_2" d="M25.0249 23.1777H38.0007M25.0249 29.6657H38.0007" stroke="#4D4D4D" stroke-width="2" stroke-linecap="round" stroke-linejoin="round"/>
</g>
<g id="Group 33862">
<path id="Vector_3" d="M48.6902 10.2884C48.6902 5.3761 44.7047 1.39062 39.7925 1.39062C34.8802 1.39062 30.8948 5.3761 30.8948 10.2884C30.8948 15.2008 34.8802 19.1862 39.7925 19.1862C44.7047 19.1862 48.6902 15.2008 48.6902 10.2884Z" stroke="#4D4D4D" stroke-width="2" stroke-miterlimit="10"/>
<path id="Vector_4" d="M44.2412 6.58008L38.0128 13.9949L35.3435 11.029" stroke="#4D4D4D" stroke-width="2" stroke-linecap="round" stroke-linejoin="round"/>
</g>
</g>
</g>
</svg>
