<svg width="27" height="38" viewBox="0 0 27 38" fill="none" xmlns="http://www.w3.org/2000/svg">
<g id="Group 33869">
<path id="Vector 134" d="M8.67017 26.2461H19.2971" stroke="#4D4D4D" stroke-width="2" stroke-linecap="round"/>
<path id="Vector 135" d="M8.67017 31.5605H19.2971" stroke="#4D4D4D" stroke-width="2" stroke-linecap="round"/>
<path id="Vector" d="M7.70225 11.0817L4.804 11.0817C4.03534 11.0817 3.29816 11.387 2.75464 11.9305C2.21111 12.4741 1.90576 13.2113 1.90576 13.9799L1.90765 33.4924C1.90765 34.261 2.213 34.9982 2.75652 35.5417C3.30005 36.0853 4.03723 36.3906 4.80589 36.3906L22.1953 36.3906C22.964 36.3906 23.7012 36.0853 24.2447 35.5417C24.7882 34.9982 25.0936 34.261 25.0936 33.4924L25.0917 13.9799C25.0917 13.2113 24.7864 12.4741 24.2428 11.9305C23.6993 11.387 22.9621 11.0817 22.1935 11.0817L19.2952 11.0817" stroke="#4D4D4D" stroke-width="2" stroke-linecap="round" stroke-linejoin="round"/>
<path id="Vector_2" d="M19.2974 15.5954L13.5009 21.3918M13.5009 21.3918L7.70439 15.5954M13.5009 21.3918L13.5009 1.61133" stroke="#4D4D4D" stroke-width="2" stroke-linecap="round" stroke-linejoin="round"/>
</g>
</svg>
