<svg width="25" height="38" viewBox="0 0 25 38" fill="none" xmlns="http://www.w3.org/2000/svg">
<g id="Group 33870">
<g id="Group 33867">
<path id="Vector 136" d="M7.8009 26.5176H18.1413" stroke="#4D4D4D" stroke-width="2" stroke-linecap="round"/>
<path id="Vector 137" d="M7.8009 31.6875H18.1413" stroke="#4D4D4D" stroke-width="2" stroke-linecap="round"/>
<path id="Vector" d="M6.85882 11.7621L4.03873 11.7621C3.29079 11.7621 2.57349 12.0592 2.04461 12.5881C1.51574 13.117 1.21863 13.8343 1.21863 14.5822L1.22046 33.5686C1.22046 34.3165 1.51758 35.0338 2.04645 35.5627C2.57532 36.0916 3.29262 36.3887 4.04056 36.3887L20.9611 36.3887C21.7091 36.3887 22.4264 36.0916 22.9553 35.5627C23.4841 35.0338 23.7812 34.3165 23.7812 33.5686L23.7794 14.5822C23.7794 13.8343 23.4823 13.117 22.9534 12.5881C22.4246 12.0592 21.7072 11.7621 20.9593 11.7621L18.1392 11.7621M6.85882 7.24996L12.499 1.60976M12.499 1.60976L18.1392 7.24996M12.499 1.60976L12.499 20.8569" stroke="#4D4D4D" stroke-width="2" stroke-linecap="round" stroke-linejoin="round"/>
</g>
</g>
</svg>
