<svg width="129" height="52" viewBox="0 0 129 52" fill="none" xmlns="http://www.w3.org/2000/svg">
<g filter="url(#filter0_d_1541_23674)">
<rect x="10" y="6" width="109" height="32" rx="8" fill="white" shape-rendering="crispEdges"/>
<g clip-path="url(#clip0_1541_23674)">
<path d="M106 16.6938V28.3072C105.87 28.6256 105.635 28.7378 105.296 28.7365C102.965 28.7276 100.635 28.7334 98.3048 28.7285C98.1598 28.7285 98.1185 28.7622 98.1211 28.9112C98.1312 29.4065 98.1259 29.9019 98.1246 30.3972C98.1233 30.7981 97.8157 31.0606 97.4285 30.9879C96.2982 30.7763 95.168 30.5617 94.0381 30.348C92.2425 30.0087 90.4478 29.6659 88.6509 29.3338C88.3538 29.2788 88.1183 29.1693 88.0005 28.8735V16.127C88.1183 15.8317 88.3525 15.7204 88.6504 15.6659C90.0637 15.4082 91.4744 15.1382 92.8859 14.8716C94.4002 14.5856 95.9146 14.2961 97.4298 14.0122C97.8205 13.9391 98.1233 14.2012 98.1246 14.6029C98.1264 15.0925 98.1321 15.582 98.1211 16.0712C98.1176 16.233 98.162 16.2734 98.3219 16.2729C100.647 16.2676 102.972 16.2734 105.296 16.2645C105.637 16.2632 105.871 16.3754 106 16.6938H106ZM97 22.5025C97 20.1549 97 17.8068 97 15.4592C97 15.2535 97 15.2566 96.7997 15.2947C95.7665 15.4903 94.7333 15.684 93.7002 15.8792C92.2368 16.1554 90.7739 16.4352 89.3087 16.704C89.1497 16.7332 89.1215 16.7962 89.1215 16.9417C89.125 20.6462 89.1246 24.3508 89.1246 28.0553C89.1246 28.085 89.1272 28.1148 89.1246 28.1436C89.1158 28.2287 89.1453 28.2624 89.2367 28.2793C90.0352 28.4261 90.8319 28.5813 91.6299 28.7316C93.3517 29.0562 95.0739 29.3786 96.7957 29.7032C97.0005 29.7418 97 29.7453 97 29.528C97 27.1862 97 24.8443 97 22.5025ZM104.875 22.5034C104.875 20.8573 104.873 19.2112 104.878 17.5656C104.878 17.4352 104.849 17.3971 104.715 17.3984C104.018 17.4055 103.321 17.402 102.624 17.402C101.188 17.402 99.7532 17.4037 98.3184 17.3989C98.176 17.3984 98.1092 17.4157 98.1202 17.5855C98.1374 17.8498 98.1312 18.1163 98.122 18.3815C98.1176 18.5061 98.1541 18.5398 98.2775 18.5381C98.7754 18.531 99.2733 18.5345 99.7712 18.5354C100.129 18.5363 100.375 18.7691 100.375 19.1026C100.374 19.4343 100.126 19.6666 99.7682 19.6675C99.276 19.6689 98.7838 19.6737 98.292 19.664C98.1475 19.6609 98.1171 19.7088 98.122 19.8422C98.1316 20.1132 98.1303 20.385 98.122 20.6564C98.1185 20.7726 98.1532 20.8054 98.2683 20.8041C98.7662 20.7979 99.2641 20.801 99.762 20.8019C100.122 20.8023 100.372 21.0302 100.374 21.3602C100.377 21.7007 100.129 21.9331 99.7589 21.934C99.2667 21.9349 98.7746 21.9398 98.2828 21.9304C98.1457 21.9278 98.1167 21.9717 98.1215 22.0998C98.1312 22.3708 98.1308 22.6426 98.1215 22.9136C98.1171 23.0382 98.1536 23.0723 98.2771 23.0705C98.775 23.0634 99.2729 23.0666 99.7708 23.0679C100.128 23.0688 100.375 23.3016 100.374 23.6351C100.374 23.9668 100.126 24.1991 99.7677 24.2C99.2755 24.2013 98.7833 24.2062 98.2916 24.1965C98.1475 24.1934 98.1167 24.2408 98.1211 24.3747C98.1308 24.6457 98.1294 24.9175 98.1211 25.1889C98.1176 25.3046 98.1519 25.3379 98.2674 25.3366C98.7653 25.3304 99.2632 25.3335 99.7611 25.3343C100.121 25.3348 100.371 25.5627 100.373 25.8926C100.376 26.2332 100.128 26.466 99.7585 26.4665C99.2663 26.4674 98.7741 26.4722 98.2824 26.4629C98.1457 26.4603 98.1163 26.5037 98.1207 26.6319C98.1303 26.8971 98.1316 27.1631 98.1207 27.4279C98.1149 27.5671 98.1554 27.603 98.2938 27.603C100.432 27.5986 102.57 27.5981 104.708 27.603C104.854 27.603 104.877 27.5551 104.877 27.4239C104.873 25.784 104.874 24.1437 104.874 22.5038L104.875 22.5034Z" fill="black"/>
<path d="M91.3752 19.6674C91.5743 19.6603 91.7184 19.7619 91.8428 19.9056C92.2511 20.3765 92.6637 20.8435 93.0662 21.3193C93.173 21.4457 93.2249 21.4492 93.329 21.3117C93.8212 20.659 94.3257 20.016 94.8236 19.3681C94.9757 19.1703 95.1677 19.0612 95.4173 19.1087C95.6344 19.1499 95.7838 19.2874 95.8515 19.502C95.9249 19.7344 95.8348 19.9246 95.6942 20.1056C95.1488 20.8062 94.6096 21.5117 94.062 22.2106C93.9816 22.3135 93.9803 22.3734 94.0686 22.4731C94.5986 23.0718 95.1207 23.6775 95.6454 24.2811C95.75 24.4012 95.855 24.5214 95.873 24.6899C95.9007 24.9462 95.7742 25.1768 95.5487 25.2828C95.325 25.3879 95.0741 25.3444 94.8935 25.1427C94.5015 24.7046 94.1187 24.258 93.7325 23.815C93.6164 23.682 93.4947 23.5534 93.3884 23.4132C93.2926 23.2864 93.2354 23.2744 93.13 23.4159C92.7182 23.9671 92.2919 24.5072 91.8731 25.0527C91.7092 25.266 91.5084 25.3861 91.2346 25.3134C90.8334 25.207 90.6787 24.7578 90.9349 24.4128C91.2851 23.9405 91.6508 23.4798 92.0102 23.0146C92.143 22.8425 92.2717 22.6665 92.4115 22.5002C92.484 22.4137 92.4734 22.3592 92.4014 22.2776C91.9272 21.7392 91.4587 21.1964 90.9881 20.655C90.8808 20.5317 90.8083 20.3969 90.8118 20.2257C90.8189 19.9144 91.0637 19.6692 91.3748 19.6692L91.3752 19.6674Z" fill="black"/>
<path d="M102.636 18.5342C102.823 18.5342 103.01 18.5315 103.197 18.535C103.51 18.5408 103.749 18.7856 103.75 19.0978C103.751 19.4104 103.514 19.661 103.202 19.6654C102.816 19.6707 102.43 19.6712 102.045 19.6654C101.733 19.6605 101.498 19.4078 101.501 19.0942C101.503 18.7825 101.742 18.5408 102.057 18.5355C102.25 18.5324 102.443 18.535 102.636 18.535V18.5342Z" fill="black"/>
<path d="M102.634 20.8018C102.821 20.8018 103.008 20.7992 103.195 20.8023C103.51 20.8081 103.748 21.0511 103.75 21.3632C103.751 21.6763 103.516 21.9282 103.204 21.9326C102.818 21.9384 102.432 21.9384 102.046 21.9326C101.734 21.9282 101.499 21.6763 101.5 21.3632C101.502 21.0511 101.74 20.8081 102.055 20.8027C102.248 20.7992 102.441 20.8023 102.634 20.8023V20.8018Z" fill="black"/>
<path d="M102.623 23.0677C102.816 23.0677 103.009 23.0646 103.202 23.0686C103.514 23.0752 103.75 23.3222 103.75 23.6357C103.749 23.9475 103.511 24.1949 103.197 24.1985C102.817 24.2034 102.437 24.2029 102.057 24.1985C101.735 24.1949 101.496 23.9431 101.5 23.6216C101.504 23.3111 101.744 23.0721 102.062 23.0677C102.249 23.065 102.436 23.0673 102.623 23.0677Z" fill="black"/>
<path d="M102.622 26.4661C102.434 26.4661 102.248 26.4688 102.06 26.4657C101.737 26.4599 101.497 26.2129 101.501 25.8918C101.503 25.5805 101.743 25.338 102.059 25.3349C102.439 25.3313 102.818 25.3309 103.199 25.3349C103.511 25.3384 103.749 25.5863 103.75 25.8985C103.75 26.2111 103.513 26.4577 103.2 26.4652C103.007 26.4696 102.814 26.4661 102.622 26.4661Z" fill="black"/>
</g>
<path d="M26.5469 25.7734V27H20.5234V25.7734H26.5469ZM20.8281 15.625V27H19.3203V15.625H20.8281ZM25.75 20.5156V21.7422H20.5234V20.5156H25.75ZM26.4688 15.625V16.8594H20.5234V15.625H26.4688ZM29.1719 18.5469L31.0234 21.625L32.8984 18.5469H34.5938L31.8281 22.7188L34.6797 27H33.0078L31.0547 23.8281L29.1016 27H27.4219L30.2656 22.7188L27.5078 18.5469H29.1719ZM37.5781 20.1719V30.25H36.125V18.5469H37.4531L37.5781 20.1719ZM43.2734 22.7031V22.8672C43.2734 23.4818 43.2005 24.0521 43.0547 24.5781C42.9089 25.099 42.6953 25.5521 42.4141 25.9375C42.138 26.3229 41.7969 26.6224 41.3906 26.8359C40.9844 27.0495 40.5182 27.1562 39.9922 27.1562C39.4557 27.1562 38.9818 27.0677 38.5703 26.8906C38.1589 26.7135 37.8099 26.4557 37.5234 26.1172C37.237 25.7786 37.0078 25.3724 36.8359 24.8984C36.6693 24.4245 36.5547 23.8906 36.4922 23.2969V22.4219C36.5547 21.7969 36.6719 21.237 36.8438 20.7422C37.0156 20.2474 37.2422 19.8255 37.5234 19.4766C37.8099 19.1224 38.1562 18.8542 38.5625 18.6719C38.9688 18.4844 39.4375 18.3906 39.9688 18.3906C40.5 18.3906 40.9714 18.4948 41.3828 18.7031C41.7943 18.9062 42.1406 19.1979 42.4219 19.5781C42.7031 19.9583 42.9141 20.4141 43.0547 20.9453C43.2005 21.4714 43.2734 22.0573 43.2734 22.7031ZM41.8203 22.8672V22.7031C41.8203 22.2812 41.776 21.8854 41.6875 21.5156C41.599 21.1406 41.4609 20.8125 41.2734 20.5312C41.0911 20.2448 40.8568 20.0208 40.5703 19.8594C40.2839 19.6927 39.9427 19.6094 39.5469 19.6094C39.1823 19.6094 38.8646 19.6719 38.5938 19.7969C38.3281 19.9219 38.1016 20.0911 37.9141 20.3047C37.7266 20.513 37.5729 20.7526 37.4531 21.0234C37.3385 21.2891 37.2526 21.5651 37.1953 21.8516V23.875C37.2995 24.2396 37.4453 24.5833 37.6328 24.9062C37.8203 25.224 38.0703 25.4818 38.3828 25.6797C38.6953 25.8724 39.0885 25.9688 39.5625 25.9688C39.9531 25.9688 40.2891 25.888 40.5703 25.7266C40.8568 25.5599 41.0911 25.3333 41.2734 25.0469C41.4609 24.7604 41.599 24.4323 41.6875 24.0625C41.776 23.6875 41.8203 23.2891 41.8203 22.8672ZM44.7344 22.8672V22.6875C44.7344 22.0781 44.8229 21.513 45 20.9922C45.1771 20.4661 45.4323 20.0104 45.7656 19.625C46.099 19.2344 46.5026 18.9323 46.9766 18.7188C47.4505 18.5 47.9818 18.3906 48.5703 18.3906C49.1641 18.3906 49.6979 18.5 50.1719 18.7188C50.651 18.9323 51.0573 19.2344 51.3906 19.625C51.7292 20.0104 51.987 20.4661 52.1641 20.9922C52.3411 21.513 52.4297 22.0781 52.4297 22.6875V22.8672C52.4297 23.4766 52.3411 24.0417 52.1641 24.5625C51.987 25.0833 51.7292 25.5391 51.3906 25.9297C51.0573 26.3151 50.6536 26.6172 50.1797 26.8359C49.7109 27.0495 49.1797 27.1562 48.5859 27.1562C47.9922 27.1562 47.4583 27.0495 46.9844 26.8359C46.5104 26.6172 46.1042 26.3151 45.7656 25.9297C45.4323 25.5391 45.1771 25.0833 45 24.5625C44.8229 24.0417 44.7344 23.4766 44.7344 22.8672ZM46.1797 22.6875V22.8672C46.1797 23.2891 46.2292 23.6875 46.3281 24.0625C46.4271 24.4323 46.5755 24.7604 46.7734 25.0469C46.9766 25.3333 47.2292 25.5599 47.5312 25.7266C47.8333 25.888 48.1849 25.9688 48.5859 25.9688C48.9818 25.9688 49.3281 25.888 49.625 25.7266C49.9271 25.5599 50.1771 25.3333 50.375 25.0469C50.5729 24.7604 50.7214 24.4323 50.8203 24.0625C50.9245 23.6875 50.9766 23.2891 50.9766 22.8672V22.6875C50.9766 22.2708 50.9245 21.8776 50.8203 21.5078C50.7214 21.1328 50.5703 20.8021 50.3672 20.5156C50.1693 20.224 49.9193 19.9948 49.6172 19.8281C49.3203 19.6615 48.9714 19.5781 48.5703 19.5781C48.1745 19.5781 47.8255 19.6615 47.5234 19.8281C47.2266 19.9948 46.9766 20.224 46.7734 20.5156C46.5755 20.8021 46.4271 21.1328 46.3281 21.5078C46.2292 21.8776 46.1797 22.2708 46.1797 22.6875ZM55.6875 19.875V27H54.2422V18.5469H55.6484L55.6875 19.875ZM58.3281 18.5L58.3203 19.8438C58.2005 19.8177 58.0859 19.8021 57.9766 19.7969C57.8724 19.7865 57.7526 19.7812 57.6172 19.7812C57.2839 19.7812 56.9896 19.8333 56.7344 19.9375C56.4792 20.0417 56.263 20.1875 56.0859 20.375C55.9089 20.5625 55.7682 20.7865 55.6641 21.0469C55.5651 21.3021 55.5 21.5833 55.4688 21.8906L55.0625 22.125C55.0625 21.6146 55.112 21.1354 55.2109 20.6875C55.3151 20.2396 55.474 19.8438 55.6875 19.5C55.901 19.151 56.1719 18.8802 56.5 18.6875C56.8333 18.4896 57.2292 18.3906 57.6875 18.3906C57.7917 18.3906 57.9115 18.4036 58.0469 18.4297C58.1823 18.4505 58.276 18.474 58.3281 18.5ZM63.5938 18.5469V19.6562H59.0234V18.5469H63.5938ZM60.5703 16.4922H62.0156V24.9062C62.0156 25.1927 62.0599 25.4089 62.1484 25.5547C62.237 25.7005 62.3516 25.7969 62.4922 25.8438C62.6328 25.8906 62.7839 25.9141 62.9453 25.9141C63.0651 25.9141 63.1901 25.9036 63.3203 25.8828C63.4557 25.8568 63.5573 25.8359 63.625 25.8203L63.6328 27C63.5182 27.0365 63.3672 27.0703 63.1797 27.1016C62.9974 27.138 62.776 27.1562 62.5156 27.1562C62.1615 27.1562 61.8359 27.0859 61.5391 26.9453C61.2422 26.8047 61.0052 26.5703 60.8281 26.2422C60.6562 25.9089 60.5703 25.4609 60.5703 24.8984V16.4922ZM70.2734 25.5547V21.2031C70.2734 20.8698 70.2057 20.5807 70.0703 20.3359C69.9401 20.0859 69.7422 19.8932 69.4766 19.7578C69.2109 19.6224 68.8828 19.5547 68.4922 19.5547C68.1276 19.5547 67.8073 19.6172 67.5312 19.7422C67.2604 19.8672 67.0469 20.0312 66.8906 20.2344C66.7396 20.4375 66.6641 20.6562 66.6641 20.8906H65.2188C65.2188 20.5885 65.2969 20.2891 65.4531 19.9922C65.6094 19.6953 65.8333 19.4271 66.125 19.1875C66.4219 18.9427 66.776 18.75 67.1875 18.6094C67.6042 18.4635 68.0677 18.3906 68.5781 18.3906C69.1927 18.3906 69.7344 18.4948 70.2031 18.7031C70.6771 18.9115 71.0469 19.2266 71.3125 19.6484C71.5833 20.0651 71.7188 20.5885 71.7188 21.2188V25.1562C71.7188 25.4375 71.7422 25.737 71.7891 26.0547C71.8411 26.3724 71.9167 26.6458 72.0156 26.875V27H70.5078C70.4349 26.8333 70.3776 26.612 70.3359 26.3359C70.2943 26.0547 70.2734 25.7943 70.2734 25.5547ZM70.5234 21.875L70.5391 22.8906H69.0781C68.6667 22.8906 68.2995 22.9245 67.9766 22.9922C67.6536 23.0547 67.3828 23.151 67.1641 23.2812C66.9453 23.4115 66.7786 23.5755 66.6641 23.7734C66.5495 23.9661 66.4922 24.1927 66.4922 24.4531C66.4922 24.7188 66.5521 24.9609 66.6719 25.1797C66.7917 25.3984 66.9714 25.5729 67.2109 25.7031C67.4557 25.8281 67.7552 25.8906 68.1094 25.8906C68.5521 25.8906 68.9427 25.7969 69.2812 25.6094C69.6198 25.4219 69.888 25.1927 70.0859 24.9219C70.2891 24.651 70.3984 24.388 70.4141 24.1328L71.0312 24.8281C70.9948 25.0469 70.8958 25.2891 70.7344 25.5547C70.5729 25.8203 70.3568 26.0755 70.0859 26.3203C69.8203 26.5599 69.5026 26.7604 69.1328 26.9219C68.7682 27.0781 68.3568 27.1562 67.8984 27.1562C67.3255 27.1562 66.8229 27.0443 66.3906 26.8203C65.9635 26.5964 65.6302 26.2969 65.3906 25.9219C65.1562 25.5417 65.0391 25.1172 65.0391 24.6484C65.0391 24.1953 65.1276 23.7969 65.3047 23.4531C65.4818 23.1042 65.737 22.8151 66.0703 22.5859C66.4036 22.3516 66.8047 22.1745 67.2734 22.0547C67.7422 21.9349 68.2656 21.875 68.8438 21.875H70.5234ZM75.4375 19.875V27H73.9922V18.5469H75.3984L75.4375 19.875ZM78.0781 18.5L78.0703 19.8438C77.9505 19.8177 77.8359 19.8021 77.7266 19.7969C77.6224 19.7865 77.5026 19.7812 77.3672 19.7812C77.0339 19.7812 76.7396 19.8333 76.4844 19.9375C76.2292 20.0417 76.013 20.1875 75.8359 20.375C75.6589 20.5625 75.5182 20.7865 75.4141 21.0469C75.3151 21.3021 75.25 21.5833 75.2188 21.8906L74.8125 22.125C74.8125 21.6146 74.862 21.1354 74.9609 20.6875C75.0651 20.2396 75.224 19.8438 75.4375 19.5C75.651 19.151 75.9219 18.8802 76.25 18.6875C76.5833 18.4896 76.9792 18.3906 77.4375 18.3906C77.5417 18.3906 77.6615 18.4036 77.7969 18.4297C77.9323 18.4505 78.026 18.474 78.0781 18.5Z" fill="black"/>
</g>
<defs>
<filter id="filter0_d_1541_23674" x="0" y="0" width="129" height="52" filterUnits="userSpaceOnUse" color-interpolation-filters="sRGB">
<feFlood flood-opacity="0" result="BackgroundImageFix"/>
<feColorMatrix in="SourceAlpha" type="matrix" values="0 0 0 0 0 0 0 0 0 0 0 0 0 0 0 0 0 0 127 0" result="hardAlpha"/>
<feOffset dy="4"/>
<feGaussianBlur stdDeviation="5"/>
<feComposite in2="hardAlpha" operator="out"/>
<feColorMatrix type="matrix" values="0 0 0 0 0 0 0 0 0 0 0 0 0 0 0 0 0 0 0.25 0"/>
<feBlend mode="normal" in2="BackgroundImageFix" result="effect1_dropShadow_1541_23674"/>
<feBlend mode="normal" in="SourceGraphic" in2="effect1_dropShadow_1541_23674" result="shape"/>
</filter>
<clipPath id="clip0_1541_23674">
<rect width="18" height="17" fill="white" transform="translate(88 14)"/>
</clipPath>
</defs>
</svg>
