<svg width="40" height="48" viewBox="0 0 40 48" fill="none" xmlns="http://www.w3.org/2000/svg">
<g id="Group 34003" filter="url(#filter0_d_1657_181)">
<path id="Vector" d="M22.5714 14.2859H34.1615C34.1967 14.2858 34.2311 14.2752 34.2604 14.2556C34.2896 14.236 34.3124 14.2081 34.3258 14.1756C34.3393 14.1431 34.3428 14.1073 34.336 14.0727C34.3291 14.0382 34.3123 14.0064 34.2874 13.9815L21.4473 1.14128C21.4223 1.11646 21.3905 1.09957 21.356 1.09275C21.3215 1.08592 21.2857 1.08945 21.2531 1.10291C21.2206 1.11636 21.1928 1.13913 21.1731 1.16836C21.1535 1.19759 21.1429 1.23197 21.1428 1.26718V12.8574C21.1428 13.2362 21.2933 13.5996 21.5612 13.8675C21.8291 14.1354 22.1925 14.2859 22.5714 14.2859ZM19.7142 21.4288C18.9267 21.4288 18.2856 21.9895 18.2856 22.6788V24.2859H21.1428V22.6788C21.1428 21.9895 20.5017 21.4288 19.7142 21.4288Z" fill="#92376F"/>
<path id="Vector_2" d="M35.0714 17.1429H22.5714C21.4348 17.1429 20.3447 16.6913 19.541 15.8876C18.7372 15.0839 18.2857 13.9938 18.2857 12.8571V0.357143C18.2857 0.262423 18.2481 0.171582 18.1811 0.104605C18.1141 0.0376275 18.0233 0 17.9286 0H9.71429C8.19876 0 6.74531 0.602039 5.67368 1.67368C4.60204 2.74531 4 4.19876 4 5.71429V34.2857C4 35.8012 4.60204 37.2547 5.67368 38.3263C6.74531 39.398 8.19876 40 9.71429 40H29.7143C31.2298 40 32.6833 39.398 33.7549 38.3263C34.8265 37.2547 35.4286 35.8012 35.4286 34.2857V17.5C35.4286 17.4053 35.3909 17.3144 35.324 17.2475C35.257 17.1805 35.1661 17.1429 35.0714 17.1429ZM26.8571 31.4286C26.8571 32.1863 26.5561 32.9131 26.0203 33.4489C25.4845 33.9847 24.7578 34.2857 24 34.2857H15.4286C14.6708 34.2857 13.9441 33.9847 13.4083 33.4489C12.8724 32.9131 12.5714 32.1863 12.5714 31.4286V27.1429C12.5714 26.3851 12.8724 25.6584 13.4083 25.1226C13.9441 24.5867 14.6708 24.2857 15.4286 24.2857V22.6786C15.4286 20.4143 17.3509 18.5714 19.7143 18.5714C22.0777 18.5714 24 20.4143 24 22.6786V24.2857C24.7578 24.2857 25.4845 24.5867 26.0203 25.1226C26.5561 25.6584 26.8571 26.3851 26.8571 27.1429V31.4286Z" fill="#92376F"/>
</g>
<defs>
<filter id="filter0_d_1657_181" x="0" y="0" width="39.4285" height="48" filterUnits="userSpaceOnUse" color-interpolation-filters="sRGB">
<feFlood flood-opacity="0" result="BackgroundImageFix"/>
<feColorMatrix in="SourceAlpha" type="matrix" values="0 0 0 0 0 0 0 0 0 0 0 0 0 0 0 0 0 0 127 0" result="hardAlpha"/>
<feOffset dy="4"/>
<feGaussianBlur stdDeviation="2"/>
<feComposite in2="hardAlpha" operator="out"/>
<feColorMatrix type="matrix" values="0 0 0 0 0 0 0 0 0 0 0 0 0 0 0 0 0 0 0.25 0"/>
<feBlend mode="normal" in2="BackgroundImageFix" result="effect1_dropShadow_1657_181"/>
<feBlend mode="normal" in="SourceGraphic" in2="effect1_dropShadow_1657_181" result="shape"/>
</filter>
</defs>
</svg>
