<svg width="40" height="48" viewBox="0 0 40 48" fill="none" xmlns="http://www.w3.org/2000/svg">
<g id="Group 34006" filter="url(#filter0_d_1657_1709)">
<g id="Group 34003">
<path id="Vector" d="M35.1769 17.1429H22.6345C21.494 17.1429 20.4002 16.6913 19.5937 15.8876C18.7873 15.0839 18.3342 13.9938 18.3342 12.8571V0.357143C18.3342 0.262423 18.2965 0.171582 18.2293 0.104605C18.162 0.0376275 18.0709 0 17.9759 0H9.73369C8.21302 0 6.75463 0.602039 5.67936 1.67368C4.60408 2.74531 4 4.19876 4 5.71429V34.2857C4 35.8012 4.60408 37.2547 5.67936 38.3263C6.75463 39.398 8.21302 40 9.73369 40H29.8016C31.3223 40 32.7806 39.398 33.8559 38.3263C34.9312 37.2547 35.5353 35.8012 35.5353 34.2857V17.5C35.5353 17.4053 35.4975 17.3144 35.4303 17.2475C35.3631 17.1805 35.272 17.1429 35.1769 17.1429Z" fill="#12A955"/>
<path id="Vector_2" d="M34.3219 13.9711L21.564 1.21322C21.5392 1.18855 21.5076 1.17177 21.4733 1.16499C21.439 1.15821 21.4034 1.16172 21.3711 1.17509C21.3388 1.18845 21.3111 1.21108 21.2916 1.24012C21.2721 1.26916 21.2616 1.30332 21.2615 1.3383V12.8542C21.2615 13.2307 21.411 13.5917 21.6772 13.8579C21.9434 14.1241 22.3044 14.2737 22.6809 14.2737H34.1968C34.2318 14.2735 34.266 14.263 34.295 14.2435C34.324 14.224 34.3467 14.1964 34.36 14.164C34.3734 14.1317 34.3769 14.0961 34.3701 14.0618C34.3634 14.0275 34.3466 13.9959 34.3219 13.9711Z" fill="#12A955"/>
</g>
<g id="Group 34005">
<g id="Group">
<path id="Vector_3" d="M24.2101 37.0124L21.6814 32.7752C21.5447 32.7752 21.408 32.8435 21.3396 33.0485C21.0663 33.6636 20.5195 34.0737 19.8361 34.0737C19.1527 34.0737 18.6059 33.6636 18.3325 33.0485C18.2642 32.9118 18.1959 32.8435 18.0592 32.8435L15.5988 37.0124L14.847 34.4154L12.25 35.0305L14.7787 30.7932C14.1636 30.7932 13.6852 30.3831 13.4118 29.7681C13.1385 29.153 13.2751 28.5379 13.7535 28.0595C13.8219 27.9911 13.8902 27.9228 13.8902 27.7861C13.8902 27.7178 13.8902 27.5811 13.6852 27.4444C13.1385 27.171 12.8651 26.6243 12.8651 26.0775C12.8651 25.2574 13.3435 24.7107 14.0953 24.5056C14.3003 24.4373 14.3686 24.3006 14.3686 24.1639C14.3686 24.0956 14.3686 24.0272 14.3003 23.9589C14.1636 23.6855 14.0953 23.4805 14.0953 23.2071C14.0953 22.6604 14.3686 22.182 14.7787 21.9086C15.1888 21.5669 15.8038 21.4985 16.2139 21.7036C16.4189 21.7719 16.6923 21.6352 16.6923 21.3618C16.7606 20.4734 17.5124 19.9266 18.2642 19.9266C18.8109 19.9266 19.221 20.1317 19.4944 20.5417C19.5627 20.6784 19.6994 20.6784 19.7677 20.6784C19.8361 20.6784 19.9728 20.6784 20.0411 20.5417C20.4512 19.995 21.0663 19.79 21.7497 19.995C22.4331 20.2 22.7748 20.7468 22.8432 21.3618C22.8432 21.6352 23.1166 21.7719 23.3216 21.7036C24.0734 21.4302 24.8251 21.7719 25.2352 22.387C25.5086 22.8654 25.5769 23.4121 25.3035 23.9589C25.2352 24.0272 25.2352 24.0956 25.2352 24.0956C25.2352 24.2323 25.3035 24.4373 25.5086 24.4373C26.2603 24.6423 26.7387 25.3257 26.7387 26.0092C26.7387 26.6243 26.397 27.1027 25.9186 27.376C25.7819 27.4444 25.7136 27.5811 25.7136 27.7178C25.7136 27.7861 25.7136 27.8544 25.7819 27.9911C26.0553 28.3328 26.2603 28.7429 26.2603 29.0846C26.2603 29.563 26.0553 29.9731 25.7136 30.2465C25.4402 30.5198 25.0985 30.6565 24.7568 30.6565L27.2855 34.8938L24.6885 34.2787L24.2101 37.0124ZM15.7355 32.9802L16.0089 33.937L17.3074 31.6817L17.5124 31.6133C17.6491 31.545 17.8541 31.545 17.9908 31.545C18.6743 31.545 19.221 31.955 19.4944 32.5701C19.5627 32.7752 19.7677 32.7752 19.8361 32.7752C19.9044 32.7752 20.1095 32.7752 20.1778 32.5701C20.4512 31.955 21.0663 31.545 21.6814 31.545C21.9547 31.545 22.2281 31.6133 22.4331 31.75L22.5698 31.8183L23.8 33.937L24.0734 32.9802L25.0302 33.1852L23.3216 30.2465L23.7316 29.9047C24.005 29.6314 24.4151 29.4947 24.7568 29.4947H24.8251C24.9618 29.4947 25.0302 29.4947 25.0985 29.4263C25.1669 29.358 25.2352 29.2213 25.2352 29.153C25.2352 29.0846 25.1669 28.9479 25.0985 28.8796C24.8251 28.6062 24.6201 28.1962 24.6201 27.7861C24.6201 27.171 24.9618 26.6926 25.4402 26.4192C25.5769 26.3509 25.6453 26.2142 25.6453 26.0775C25.6453 25.9408 25.5769 25.7358 25.3719 25.7358C24.6201 25.5308 24.1417 24.8473 24.1417 24.1639C24.1417 23.8905 24.2101 23.6855 24.3467 23.4121C24.4151 23.2755 24.4151 23.1388 24.3467 23.0704C24.2784 22.9337 24.0734 22.8654 23.9367 22.9337C23.8 23.0021 23.595 23.0021 23.3899 23.0021C22.5015 23.0021 21.8864 22.3187 21.818 21.5669C21.818 21.3618 21.613 21.2935 21.5447 21.2252C21.4763 21.2252 21.2713 21.1568 21.1346 21.3618C20.7929 21.7719 20.3145 21.9769 19.9044 21.9769C19.426 21.9769 18.9476 21.7719 18.6743 21.3618C18.6059 21.2935 18.5376 21.2252 18.4009 21.2252C18.2642 21.2252 18.0592 21.2935 18.0592 21.5669C17.9908 22.4553 17.2391 23.0021 16.4873 23.0021C16.2822 23.0021 16.0772 23.0021 15.9405 22.9337C15.8038 22.8654 15.7355 22.9337 15.5988 23.0021C15.4621 23.0704 15.4621 23.2071 15.4621 23.3438C15.4621 23.4121 15.4621 23.4805 15.5305 23.5488C15.6672 23.8222 15.7355 24.0272 15.7355 24.3006C15.7355 25.0524 15.1888 25.6675 14.5053 25.8725C14.232 25.9408 14.232 26.2142 14.232 26.2142C14.232 26.3509 14.3003 26.4876 14.437 26.5559C14.9837 26.8293 15.2571 27.376 15.2571 27.9228C15.2571 28.3328 15.1204 28.7429 14.7787 29.0163C14.642 29.153 14.642 29.358 14.7104 29.4263C14.7104 29.4947 14.847 29.6314 15.0521 29.6314C15.5988 29.6314 16.0772 29.8364 16.3506 30.1781L16.624 30.5198L14.9837 33.3219L15.7355 32.9802Z" fill="white"/>
</g>
<g id="Group_2">
<path id="Vector_4" d="M19.836 30.9298C17.649 30.9298 15.8721 29.1528 15.8721 26.9659C15.8721 24.7789 17.649 23.002 19.836 23.002C22.023 23.002 23.7999 24.7789 23.7999 26.9659C23.7999 29.1528 22.023 30.9298 19.836 30.9298ZM19.836 24.3005C18.3324 24.3005 17.1022 25.4623 17.1022 27.0342C17.1022 28.5377 18.2641 29.7679 19.836 29.7679C21.4079 29.7679 22.5697 28.6061 22.5697 27.0342C22.5697 25.4623 21.4079 24.3005 19.836 24.3005Z" fill="white"/>
</g>
</g>
</g>
<defs>
<filter id="filter0_d_1657_1709" x="0" y="0" width="39.5352" height="48" filterUnits="userSpaceOnUse" color-interpolation-filters="sRGB">
<feFlood flood-opacity="0" result="BackgroundImageFix"/>
<feColorMatrix in="SourceAlpha" type="matrix" values="0 0 0 0 0 0 0 0 0 0 0 0 0 0 0 0 0 0 127 0" result="hardAlpha"/>
<feOffset dy="4"/>
<feGaussianBlur stdDeviation="2"/>
<feComposite in2="hardAlpha" operator="out"/>
<feColorMatrix type="matrix" values="0 0 0 0 0 0 0 0 0 0 0 0 0 0 0 0 0 0 0.25 0"/>
<feBlend mode="normal" in2="BackgroundImageFix" result="effect1_dropShadow_1657_1709"/>
<feBlend mode="normal" in="SourceGraphic" in2="effect1_dropShadow_1657_1709" result="shape"/>
</filter>
</defs>
</svg>
