<svg width="43" height="48" viewBox="0 0 43 48" fill="none" xmlns="http://www.w3.org/2000/svg">
<g id="Group 33998" filter="url(#filter0_d_1657_622)">
<path id="Vector" d="M38.3333 18.6667H26.6667C25.6058 18.6667 24.5884 18.2452 23.8382 17.4951C23.0881 16.7449 22.6667 15.7275 22.6667 14.6667V3C22.6667 2.91159 22.6315 2.82681 22.569 2.7643C22.5065 2.70179 22.4217 2.66667 22.3333 2.66667H17.8958C17.7402 2.37845 17.5589 2.10484 17.3542 1.84917C16.3933 0.656667 14.9658 0 13.3333 0C10.1933 0 8 2.4675 8 6V18C8 20.0833 9.695 21.3333 11.3333 21.3333C11.7724 21.3381 12.208 21.2552 12.6146 21.0894C13.0212 20.9236 13.3906 20.6782 13.701 20.3677C14.0115 20.0572 14.2569 19.6879 14.4227 19.2813C14.5885 18.8747 14.6715 18.4391 14.6667 18V5.33333C14.6667 4.97971 14.5262 4.64057 14.2761 4.39052C14.0261 4.14048 13.687 4 13.3333 4C12.9797 4 12.6406 4.14048 12.3905 4.39052C12.1405 4.64057 12 4.97971 12 5.33333V18C12.0029 18.0883 11.9876 18.1763 11.9552 18.2585C11.9227 18.3407 11.8737 18.4154 11.8112 18.4779C11.7487 18.5403 11.674 18.5893 11.5918 18.6218C11.5097 18.6543 11.4217 18.6696 11.3333 18.6667C11.1475 18.6667 10.6667 18.5467 10.6667 18V6C10.6667 4.38833 11.3675 2.66667 13.3333 2.66667C15.8075 2.66667 16 5.17917 16 5.94833V17.5108C16 18.965 15.5442 20.28 14.7158 21.2158C13.875 22.1667 12.7058 22.6667 11.3333 22.6667C9.96083 22.6667 8.79167 22.1667 7.95083 21.2158C7.1225 20.28 6.66667 18.965 6.66667 17.5108V10.6667C6.66667 10.313 6.52619 9.97391 6.27614 9.72386C6.02609 9.47381 5.68696 9.33333 5.33333 9.33333C4.97971 9.33333 4.64057 9.47381 4.39052 9.72386C4.14048 9.97391 4 10.313 4 10.6667V17.5108C4 21.8033 6.76583 24.98 10.6667 25.305V34.6667C10.6667 36.0812 11.2286 37.4377 12.2288 38.4379C13.229 39.4381 14.5855 40 16 40H33.3333C34.7478 40 36.1044 39.4381 37.1046 38.4379C38.1048 37.4377 38.6667 36.0812 38.6667 34.6667V19C38.6667 18.9116 38.6315 18.8268 38.569 18.7643C38.5065 18.7018 38.4217 18.6667 38.3333 18.6667Z" fill="#01B0B2"/>
<path id="Vector_2" d="M26.6666 15.9999H37.4841C37.5169 15.9998 37.549 15.9899 37.5763 15.9716C37.6036 15.9533 37.6248 15.9273 37.6374 15.8969C37.65 15.8666 37.6533 15.8332 37.6469 15.8009C37.6405 15.7687 37.6248 15.739 37.6016 15.7157L25.6174 3.73157C25.5941 3.7084 25.5645 3.69264 25.5322 3.68627C25.5 3.6799 25.4666 3.6832 25.4362 3.69575C25.4059 3.70831 25.3799 3.72956 25.3616 3.75684C25.3432 3.78412 25.3334 3.81621 25.3333 3.84907V14.6666C25.3333 15.0202 25.4737 15.3593 25.7238 15.6094C25.9738 15.8594 26.313 15.9999 26.6666 15.9999Z" fill="#01B0B2"/>
</g>
<defs>
<filter id="filter0_d_1657_622" x="0" y="0" width="42.6667" height="48" filterUnits="userSpaceOnUse" color-interpolation-filters="sRGB">
<feFlood flood-opacity="0" result="BackgroundImageFix"/>
<feColorMatrix in="SourceAlpha" type="matrix" values="0 0 0 0 0 0 0 0 0 0 0 0 0 0 0 0 0 0 127 0" result="hardAlpha"/>
<feOffset dy="4"/>
<feGaussianBlur stdDeviation="2"/>
<feComposite in2="hardAlpha" operator="out"/>
<feColorMatrix type="matrix" values="0 0 0 0 0 0 0 0 0 0 0 0 0 0 0 0 0 0 0.25 0"/>
<feBlend mode="normal" in2="BackgroundImageFix" result="effect1_dropShadow_1657_622"/>
<feBlend mode="normal" in="SourceGraphic" in2="effect1_dropShadow_1657_622" result="shape"/>
</filter>
</defs>
</svg>
