<svg width="120" height="120" viewBox="0 0 120 120" fill="none" xmlns="http://www.w3.org/2000/svg">
<g id="verified_user">
<mask id="mask0_2401_1262" style="mask-type:alpha" maskUnits="userSpaceOnUse" x="0" y="0" width="120" height="120">
<rect id="Bounding box" width="120" height="120" fill="#D9D9D9"/>
</mask>
<g mask="url(#mask0_2401_1262)">
<path id="verified_user_2" d="M54.75 77.7505L83 49.5005L75.875 42.3755L54.75 63.5005L44.25 53.0005L37.125 60.1255L54.75 77.7505ZM60 110C48.4167 107.084 38.8542 100.438 31.3125 90.063C23.7708 79.688 20 68.1672 20 55.5005V25.0005L60 10.0005L100 25.0005V55.5005C100 68.1672 96.2292 79.688 88.6875 90.063C81.1458 100.438 71.5833 107.084 60 110ZM60 99.5005C68.6667 96.7505 75.8333 91.2505 81.5 83.0005C87.1667 74.7505 90 65.5838 90 55.5005V31.8755L60 20.6255L30 31.8755V55.5005C30 65.5838 32.8333 74.7505 38.5 83.0005C44.1667 91.2505 51.3333 96.7505 60 99.5005Z" fill="#41BAEA"/>
</g>
</g>
</svg>
