<svg width="136" height="81" viewBox="0 0 136 81" fill="none" xmlns="http://www.w3.org/2000/svg">
<g id="Group">
<g id="Capa 1">
<g id="Group_2" style="mix-blend-mode:multiply">
<g id="Clip path group">
<mask id="mask0_8_411" style="mask-type:luminance" maskUnits="userSpaceOnUse" x="104" y="0" width="32" height="44">
<g id="clippath">
<path id="Vector" d="M135.446 0.55835H104.273V43.6907H135.446V0.55835Z" fill="white"/>
</g>
</mask>
<g mask="url(#mask0_8_411)">
<g id="Group_3">
<path id="Vector_2" d="M112.177 0.563213C114.378 1.32844 151.163 10.0542 127.585 43.5859C126.572 45.0276 88.7964 31.6321 111.549 1.32844C112.211 0.443075 112.177 0.563213 112.177 0.563213Z" fill="#41BAEA"/>
</g>
</g>
</g>
</g>
<g id="Group_4" style="mix-blend-mode:multiply">
<g id="Clip path group_2">
<mask id="mask1_8_411" style="mask-type:luminance" maskUnits="userSpaceOnUse" x="84" y="13" width="44" height="34">
<g id="clippath-1">
<path id="Vector_3" d="M127.916 13.9747H84.1975V46.8065H127.916V13.9747Z" fill="white"/>
</g>
</mask>
<g mask="url(#mask1_8_411)">
<g id="Group_5">
<path id="Vector_4" d="M84.2159 17.8348C86.4349 17.0356 120.447 0.372933 127.916 43.1031C128.239 44.9418 89.4456 58.4704 84.32 18.8691C84.1377 17.4692 84.2159 17.8348 84.2159 17.8348Z" fill="#98C341"/>
</g>
</g>
</g>
</g>
<path id="Vector_5" d="M13.929 66.8905C13.0539 67.3162 11.3115 67.768 9.07682 67.768C3.89914 67.768 0.000244141 64.5582 0.000244141 58.6923C0.000244141 52.8264 3.89653 49.2954 9.59251 49.2954C11.8792 49.2954 13.3247 49.7734 13.9524 50.092L13.3794 51.975C12.4809 51.5493 11.2021 51.2359 9.67585 51.2359C5.37066 51.2359 2.51095 53.9129 2.51095 58.6114C2.51095 62.9912 5.09719 65.804 9.56646 65.804C11.0119 65.804 12.4835 65.5115 13.4367 65.0597L13.929 66.8905Z" fill="#372F2D"/>
<path id="Vector_6" d="M28.4515 60.9437C28.4515 65.6944 25.0735 67.7655 21.883 67.7655C18.3149 67.7655 15.5593 65.2164 15.5593 61.1605C15.5593 56.859 18.4503 54.3361 22.0992 54.3361C25.748 54.3361 28.4489 57.0157 28.4489 60.9437M17.9841 61.0769C17.9841 63.8923 19.6457 66.0156 21.9924 66.0156C24.339 66.0156 25.9954 63.9184 25.9954 61.0273C25.9954 58.8491 24.8781 56.0885 22.0419 56.0885C19.2056 56.0885 17.9815 58.6349 17.9815 61.0769" fill="#372F2D"/>
<path id="Vector_7" d="M31.4778 58.1048C31.4778 56.7781 31.4518 55.6916 31.3684 54.6286H33.4963L33.6317 56.752H33.6864C34.3401 55.5323 35.8663 54.3387 38.0463 54.3387C39.872 54.3387 42.7057 55.3991 42.7057 59.8051V67.4783H40.3096V60.0714C40.3096 58.003 39.5204 56.274 37.2571 56.274C35.6762 56.274 34.4495 57.3631 34.0406 58.6664C33.9338 58.9563 33.8765 59.3558 33.8765 59.7528V67.4783H31.4778V58.1074V58.1048Z" fill="#372F2D"/>
<path id="Vector_8" d="M49.381 51.5494V54.6286H52.8137V56.4072H49.381V63.3335C49.381 64.924 49.8472 65.8277 51.1807 65.8277C51.8345 65.8277 52.2173 65.778 52.5689 65.6683L52.6783 67.4208C52.2173 67.6062 51.4802 67.7655 50.5531 67.7655C49.4357 67.7655 48.5372 67.3947 47.9668 66.7574C47.2844 66.0679 47.0396 64.924 47.0396 63.417V56.4098H44.9951V54.6313H47.0396V52.2677L49.3837 51.552L49.381 51.5494Z" fill="#372F2D"/>
<path id="Vector_9" d="M55.5119 58.635C55.5119 57.1228 55.4832 55.8248 55.3999 54.6286H57.4991L57.5798 57.1489H57.6892C58.2883 55.4226 59.7337 54.3387 61.3407 54.3387C61.6116 54.3387 61.8043 54.3623 62.0231 54.4171V56.6188C61.7783 56.5665 61.5308 56.5378 61.2053 56.5378C59.5176 56.5378 58.3169 57.7888 57.9913 59.5387C57.9367 59.8573 57.882 60.2308 57.882 60.6277V67.4783H55.5119V58.6376V58.635Z" fill="#372F2D"/>
<path id="Vector_10" d="M76.0848 60.9437C76.0848 65.6944 72.7042 67.7655 69.5163 67.7655C65.9456 67.7655 63.1926 65.2164 63.1926 61.1605C63.1926 56.859 66.0836 54.3361 69.7325 54.3361C73.3813 54.3361 76.0821 57.0157 76.0821 60.9437M65.6174 61.0769C65.6174 63.8923 67.279 66.0156 69.6231 66.0156C71.9671 66.0156 73.6313 63.9184 73.6313 61.0273C73.6313 58.8491 72.5114 56.0885 69.6804 56.0885C66.8493 56.0885 65.6174 58.6349 65.6174 61.0769Z" fill="#372F2D"/>
<path id="Vector_11" d="M81.5098 48.6321H79.1111V67.4782H81.5098V48.6321Z" fill="#372F2D"/>
<path id="Vector_12" d="M85.9269 49.8256C87.3698 49.614 89.0861 49.4547 90.9666 49.4547C94.3732 49.4547 96.7954 50.2252 98.4075 51.6799C100.041 53.1424 100.994 55.2135 100.994 58.1047C100.994 60.9959 100.069 63.4143 98.3502 65.0571C96.6339 66.7312 93.8002 67.6296 90.2295 67.6296C88.5392 67.6296 87.1224 67.5512 85.9243 67.4181V49.8203L85.9269 49.8256ZM88.297 65.6447C88.896 65.7518 89.7685 65.7805 90.6957 65.7805C95.764 65.7805 98.5169 63.0173 98.5169 58.1883C98.543 53.9677 96.0896 51.2855 91.076 51.2855C89.8519 51.2855 88.9221 51.3926 88.297 51.5258V65.6473V65.6447Z" fill="#9D9D9C"/>
<path id="Vector_13" d="M116.037 60.9437C116.037 65.6944 112.657 67.7655 109.469 67.7655C105.898 67.7655 103.148 65.2164 103.148 61.1605C103.148 56.859 106.036 54.3361 109.688 54.3361C113.339 54.3361 116.037 57.0157 116.037 60.9437ZM105.572 61.0769C105.572 63.8923 107.234 66.0156 109.581 66.0156C111.927 66.0156 113.584 63.9184 113.584 61.0273C113.584 58.8491 112.467 56.0885 109.635 56.0885C106.804 56.0885 105.575 58.6349 105.575 61.0769" fill="#9D9D9C"/>
<path id="Vector_14" d="M128.463 66.9976C127.836 67.3136 126.45 67.7654 124.676 67.7654C120.699 67.7654 118.108 65.1119 118.108 61.1839C118.108 57.2559 120.887 54.3595 125.197 54.3595C126.612 54.3595 127.869 54.7042 128.521 55.0255L127.976 56.8302C127.403 56.5115 126.505 56.219 125.2 56.219C122.173 56.219 120.538 58.3946 120.538 61.0742C120.538 64.0463 122.499 65.8771 125.117 65.8771C126.479 65.8771 127.38 65.5324 128.06 65.2399L128.468 66.995L128.463 66.9976Z" fill="#9D9D9C"/>
<path id="Vector_15" d="M69.0291 78.1052H70.4485C70.5813 78.6015 70.8366 78.847 71.2168 78.847C71.3939 78.847 71.5424 78.7895 71.6648 78.6824C71.782 78.5701 71.8445 78.4317 71.8445 78.2646C71.8445 78.0974 71.7768 77.9668 71.6413 77.8676C71.5059 77.7683 71.2429 77.6534 70.8548 77.5254C70.3443 77.3583 69.9797 77.1781 69.7609 76.99C69.4119 76.6871 69.24 76.2823 69.24 75.7808C69.24 75.2794 69.4275 74.8693 69.8052 74.5272C70.1828 74.1851 70.6438 74.0127 71.1908 74.0127C71.7377 74.0127 72.1544 74.1798 72.5216 74.5141C72.8863 74.8484 73.0816 75.2611 73.105 75.7547H71.7351C71.67 75.4204 71.4903 75.2533 71.1882 75.2533C71.0345 75.2533 70.9069 75.2977 70.8027 75.3891C70.7037 75.4779 70.6516 75.5954 70.6516 75.7312C70.6516 75.961 70.8496 76.1334 71.2455 76.2535L71.6413 76.3789C72.1622 76.5461 72.5164 76.708 72.7118 76.8699C73.0764 77.1729 73.2587 77.5803 73.2587 78.0896C73.2587 78.6354 73.0504 79.1029 72.6336 79.4973C72.2169 79.889 71.7117 80.0823 71.1204 80.0823C70.722 80.0823 70.3547 79.9883 70.0187 79.7924C69.6802 79.6018 69.4301 79.3432 69.2661 79.022C69.1463 78.7973 69.0707 78.4892 69.0317 78.1" fill="#98C341"/>
<path id="Vector_16" d="M79.3663 80.085C78.5172 80.085 77.7853 79.7898 77.1785 79.1918C76.5664 78.5963 76.2617 77.8807 76.2617 77.0476C76.2617 76.2144 76.5691 75.4988 77.1785 74.9033C77.7879 74.3079 78.5276 74.0101 79.3923 74.0101C80.257 74.0101 80.9758 74.3079 81.5748 74.8981C82.1739 75.4884 82.4734 76.204 82.4734 77.0476C82.4734 77.8911 82.1739 78.6067 81.5696 79.197C80.9654 79.7899 80.2309 80.0824 79.3663 80.0824M79.3793 75.2507C78.9131 75.2507 78.5146 75.4283 78.1786 75.7809C77.8426 76.1361 77.6733 76.5592 77.6733 77.0476C77.6733 77.5359 77.84 77.9852 78.1682 78.3273C78.4964 78.672 78.9 78.8444 79.3793 78.8444C79.8585 78.8444 80.2492 78.672 80.5747 78.3273C80.8977 77.9825 81.0618 77.5647 81.0618 77.0685C81.0618 76.5722 80.8951 76.1439 80.5617 75.7835C80.2309 75.4257 79.8377 75.2481 79.3793 75.2481" fill="#98C341"/>
<path id="Vector_17" d="M87.4246 79.8916H86.0104V75.4439H85.5208V74.2033H86.0104C86.0755 73.5608 86.2734 73.0568 86.6068 72.6963C86.9402 72.3359 87.3803 72.1583 87.9247 72.1583C87.9794 72.1583 88.1096 72.1662 88.3075 72.1818V73.5007C87.9846 73.5086 87.7762 73.5451 87.6746 73.613C87.5288 73.7045 87.4455 73.9003 87.422 74.2033H88.2294V75.4439H87.422V79.8916H87.4246Z" fill="#98C341"/>
<path id="Vector_18" d="M93.0996 79.8917H91.6854V75.444H90.9978V74.2034H91.6854V72.3047H93.0996V74.2034H93.9304V75.444H93.0996V79.8917Z" fill="#98C341"/>
<path id="Vector_19" d="M99.465 79.8917H98.6108L96.4985 74.2034H98.0065L99.0822 77.6743L100.051 74.2034H101.158L102.103 77.6743L103.202 74.2034H104.684L102.559 79.8917H101.697L100.588 76.2065L99.465 79.8917Z" fill="#98C341"/>
<path id="Vector_20" d="M112.136 74.2034H113.42V79.8917H112.136V79.1996C111.917 79.4503 111.612 79.6593 111.219 79.829C110.826 80.0014 110.451 80.085 110.091 80.085C109.274 80.085 108.596 79.7925 108.06 79.21C107.523 78.625 107.252 77.8937 107.252 77.0136C107.252 76.1335 107.531 75.4518 108.091 74.8746C108.646 74.2974 109.339 74.0101 110.175 74.0101C110.539 74.0101 110.901 74.0989 111.266 74.2661C111.628 74.4411 111.92 74.6552 112.136 74.919V74.2034ZM110.391 78.847C110.888 78.847 111.295 78.6746 111.62 78.3299C111.94 77.9852 112.102 77.5516 112.102 77.0267C112.102 76.5017 111.943 76.0917 111.62 75.7548C111.295 75.4231 110.888 75.2533 110.391 75.2533C109.893 75.2533 109.492 75.4283 109.162 75.7783C108.836 76.1308 108.667 76.5644 108.667 77.0841C108.667 77.6039 108.836 77.9982 109.169 78.3377C109.5 78.6773 109.909 78.847 110.388 78.847" fill="#98C341"/>
<path id="Vector_21" d="M118.441 79.8917H117.027V74.2034H118.313V74.7153C118.524 74.4437 118.72 74.2582 118.897 74.159C119.077 74.0598 119.306 74.0101 119.582 74.0101C119.621 74.0101 119.657 74.0154 119.689 74.0206V75.3395C118.855 75.3708 118.438 75.8227 118.438 76.6924V79.8891L118.441 79.8917Z" fill="#98C341"/>
<path id="Vector_22" d="M128.393 76.9718C128.393 77.1677 128.364 77.3949 128.31 77.6535H123.78C123.872 77.9982 124.064 78.2855 124.356 78.5075C124.648 78.7347 124.973 78.8496 125.33 78.8496C125.893 78.8496 126.328 78.5963 126.64 78.0949H128.179C128.002 78.6721 127.645 79.1474 127.117 79.5261C126.588 79.8996 126.007 80.0876 125.377 80.0876C124.52 80.0876 123.793 79.7951 123.192 79.2048C122.593 78.6172 122.293 77.9016 122.293 77.0632C122.293 76.2249 122.593 75.4858 123.192 74.8825C123.793 74.2818 124.515 73.9762 125.364 73.9762C126.213 73.9762 126.901 74.2713 127.497 74.8616C128.093 75.4466 128.39 76.1518 128.39 76.9718M123.728 76.5618H127.023C126.921 76.1465 126.723 75.8201 126.434 75.5798C126.143 75.3395 125.791 75.222 125.387 75.222C124.984 75.222 124.627 75.3421 124.325 75.5876C124.02 75.8331 123.822 76.1596 123.728 76.5644" fill="#98C341"/>
</g>
</g>
</svg>
