<svg version="1.2" xmlns="http://www.w3.org/2000/svg" viewBox="0 0 512 512" width="512" height="512">
	<title>developer-board-512</title>
	<style>
		.s0 { fill: #2196f3 } 
		.s1 { fill: none;stroke: #2196f3;stroke-linecap: round;stroke-linejoin: round;stroke-width: 43 } 
	</style>
	<path id="Forma 3" class="s0" d="m110.5 161.5c0-16.5 13.5-30 30-30h63.3c16.6 0 30 13.5 30 30v64.5c0 16.6-13.4 30-30 30h-63.3c-16.5 0-30-13.4-30-30z"/>
	<path id="Forma 3 copy 3" class="s0" d="m110.5 311.8c0-16.5 13.5-30 30-30h63.3c16.6 0 30 13.5 30 30v38.7c0 16.5-13.4 30-30 30h-63.3c-16.5 0-30-13.5-30-30z"/>
	<path id="Forma 3 copy" class="s0" d="m259.7 151.5c0-11 8.9-20 20-20h59.8c11 0 20 9 20 20v33.8c0 11.1-9 20-20 20h-59.8c-11.1 0-20-8.9-20-20z"/>
	<path id="Forma 3 copy 2" class="s0" d="m259.7 251.3c0-11 8.9-20 20-20h59.8c11 0 20 9 20 20v109.2c0 11-9 20-20 20h-59.8c-11.1 0-20-9-20-20z"/>
	<path id="Forma 1" class="s1" d="m42 109c0-24.9 20.1-45 45-45h294c24.9 0 45 20.1 45 45v294c0 24.9-20.1 45-45 45h-294c-24.9 0-45-20.1-45-45z"/>
	<path id="Forma 2" class="s0" d="m407.9 165.3c0-13.4 11-24.4 24.4-24.4h32.5c13.5 0 24.4 11 24.4 24.4 0 13.5-10.9 24.4-24.4 24.4h-32.5c-13.4 0-24.4-10.9-24.4-24.4zm-2.1 93.2c0-13.4 10.9-24.3 24.4-24.3h32.5c13.4 0 24.4 10.9 24.4 24.3 0 13.5-11 24.4-24.4 24.4h-32.5c-13.5 0-24.4-10.9-24.4-24.4zm0 92.2c0-13.5 10.9-24.4 24.4-24.4h32.5c13.4 0 24.4 10.9 24.4 24.4 0 13.4-11 24.4-24.4 24.4h-32.5c-13.5 0-24.4-11-24.4-24.4z"/>
</svg>