<svg width="26" height="26" viewBox="0 0 26 26" fill="none" xmlns="http://www.w3.org/2000/svg">
<path id="Vector" d="M25.9996 1.07117C25.8971 0.852572 25.8197 0.6222 25.6491 0.438912C25.133 -0.114315 24.2966 -0.150468 23.7385 0.364084C23.6704 0.427142 23.6057 0.494403 23.5401 0.559983C20.113 3.98781 16.686 7.41563 13.2581 10.8435C13.0861 11.0155 12.911 11.0124 12.7327 10.8342C9.28805 7.38872 5.84083 3.94409 2.39949 0.495244C1.99769 0.0925147 1.5421 -0.100863 0.97975 0.05468C0.0349369 0.317001 -0.313063 1.46633 0.322416 2.21294C0.393866 2.29618 0.473721 2.37269 0.551054 2.45004C3.99575 5.89636 7.43961 9.34352 10.891 12.7831C11.0802 12.9714 11.0558 13.0555 10.8826 13.2279C7.40263 16.6986 3.92851 20.1752 0.454388 23.6518C-0.184454 24.2916 -0.13402 25.2442 0.556097 25.7503C0.714966 25.8672 0.901575 25.9202 1.07642 26H1.63456C2.02711 25.863 2.31796 25.5897 2.60627 25.3014C5.9997 21.9013 9.39816 18.5071 12.7882 15.1036C12.9673 14.9237 13.0488 14.9447 13.2152 15.112C16.612 18.5205 20.0172 21.9215 23.4165 25.3274C23.699 25.6099 23.9831 25.8798 24.3748 26.0017H24.9329C25.4751 25.8336 25.8248 25.472 25.9988 24.9356V24.3773C25.8509 23.9502 25.5415 23.645 25.2313 23.3348C21.8547 19.9633 18.484 16.5859 15.104 13.2178C14.9309 13.0454 14.93 12.963 15.104 12.7898C18.484 9.41919 21.8547 6.04265 25.2313 2.67116C25.5415 2.36091 25.8509 2.05656 25.9996 1.63028V1.07201V1.07117Z" fill="#3C3C3C"/>
</svg>
