<svg width="26" height="29" viewBox="0 0 26 29" fill="none" xmlns="http://www.w3.org/2000/svg">
<g id="Vector">
<path id="Vector_2" d="M1 6.83333H24.3333M9.75 12.6667V21.4167M15.5833 12.6667V21.4167M2.45833 6.83333L3.91667 24.3333C3.91667 25.1069 4.22396 25.8487 4.77094 26.3957C5.31792 26.9427 6.05979 27.25 6.83333 27.25H18.5C19.2735 27.25 20.0154 26.9427 20.5624 26.3957C21.1094 25.8487 21.4167 25.1069 21.4167 24.3333L22.875 6.83333M8.29167 6.83333V2.45833C8.29167 2.07156 8.44531 1.70063 8.7188 1.42714C8.99229 1.15365 9.36323 1 9.75 1H15.5833C15.9701 1 16.341 1.15365 16.6145 1.42714C16.888 1.70063 17.0417 2.07156 17.0417 2.45833V6.83333" stroke="#2C2C2C" stroke-width="2" stroke-linecap="round" stroke-linejoin="round"/>
</g>
</svg>
