<svg width="43" height="48" viewBox="0 0 43 48" fill="none" xmlns="http://www.w3.org/2000/svg">
<g id="Group 33997" filter="url(#filter0_d_1657_3904)">
<path id="Vector" d="M24.6756 19C24.7395 19.0001 24.8019 18.9815 24.8551 18.9468C24.9083 18.912 24.9499 18.8625 24.9747 18.8045C24.9994 18.7466 25.0062 18.6827 24.9943 18.6209C24.9823 18.5591 24.952 18.5022 24.9074 18.4573L18.555 12.0952C18.5099 12.0501 18.4521 12.0192 18.3891 12.0065C18.3261 11.9938 18.2606 11.9998 18.2011 12.0239C18.1416 12.0479 18.0907 12.0889 18.0549 12.1415C18.019 12.1942 17.9999 12.2561 18 12.3195V18.0423C18 18.2963 18.1024 18.5399 18.2848 18.7195C18.4671 18.8991 18.7144 19 18.9723 19H24.6756Z" fill="#CB4A33"/>
<path id="Vector_2" d="M16.3421 21.2341C16.0018 20.902 15.7315 20.5066 15.5467 20.0705C15.3619 19.6345 15.2662 19.1666 15.2652 18.6937V11.1546H9.30129C7.89658 11.1587 6.55059 11.7126 5.5573 12.6952C4.56401 13.6779 4.00415 15.0095 4 16.3992V34.7554C4 36.1463 4.55853 37.4803 5.55271 38.4639C6.5469 39.4474 7.8953 40 9.30129 40H21.2292C22.6352 40 23.9836 39.4474 24.9778 38.4639C25.972 37.4803 26.5305 36.1463 26.5305 34.7554V22.2994H18.9099C18.4319 22.2987 17.9588 22.2042 17.5181 22.0214C17.0773 21.8385 16.6776 21.5709 16.3421 21.2341ZM30.8378 9.18786H36.6684C36.7337 9.18791 36.7975 9.16889 36.8519 9.13319C36.9063 9.09748 36.9488 9.04668 36.9741 8.98715C36.9994 8.92763 37.0064 8.86203 36.9941 8.7986C36.9819 8.73517 36.951 8.67673 36.9053 8.63062L30.4112 2.09779C30.3651 2.05143 30.306 2.0197 30.2416 2.00666C30.1771 1.99361 30.1102 1.99983 30.0494 2.02452C29.9885 2.04922 29.9365 2.09127 29.8999 2.14533C29.8633 2.19938 29.8437 2.26299 29.8438 2.32806V8.20449C29.8438 8.4653 29.9485 8.71542 30.1349 8.89984C30.3213 9.08425 30.5742 9.18786 30.8378 9.18786Z" fill="#CB4A33"/>
<path id="Vector_3" d="M31.4348 11.3333C30.4774 11.3259 29.5612 10.9372 28.8842 10.2512C28.2071 9.56517 27.8236 8.63684 27.8162 7.66667V0H18.9344C17.6262 0.00154384 16.372 0.528824 15.4469 1.46617C14.5219 2.40352 14.0015 3.67439 14 5V8H17.4639C17.9061 8.00179 18.3435 8.09209 18.7511 8.2657C19.1587 8.43932 19.5284 8.69283 19.839 9.01167L28.8163 18.2617C29.4426 18.9056 29.7923 19.7743 29.7892 20.6783V32H34.152C36.8256 32 39 29.7567 39 27V11.3333H31.4348Z" fill="#CB4A33"/>
</g>
<defs>
<filter id="filter0_d_1657_3904" x="0" y="0" width="43" height="48" filterUnits="userSpaceOnUse" color-interpolation-filters="sRGB">
<feFlood flood-opacity="0" result="BackgroundImageFix"/>
<feColorMatrix in="SourceAlpha" type="matrix" values="0 0 0 0 0 0 0 0 0 0 0 0 0 0 0 0 0 0 127 0" result="hardAlpha"/>
<feOffset dy="4"/>
<feGaussianBlur stdDeviation="2"/>
<feComposite in2="hardAlpha" operator="out"/>
<feColorMatrix type="matrix" values="0 0 0 0 0 0 0 0 0 0 0 0 0 0 0 0 0 0 0.25 0"/>
<feBlend mode="normal" in2="BackgroundImageFix" result="effect1_dropShadow_1657_3904"/>
<feBlend mode="normal" in="SourceGraphic" in2="effect1_dropShadow_1657_3904" result="shape"/>
</filter>
</defs>
</svg>
