<svg width="40" height="48" viewBox="0 0 40 48" fill="none" xmlns="http://www.w3.org/2000/svg">
<g id="Group 34004" filter="url(#filter0_d_1657_1964)">
<g id="Group 34001">
<path id="Vector" d="M35.1769 17.1429H22.6345C21.494 17.1429 20.4002 16.6913 19.5937 15.8876C18.7873 15.0839 18.3342 13.9938 18.3342 12.8571V0.357143C18.3342 0.262423 18.2965 0.171582 18.2293 0.104605C18.162 0.0376275 18.0709 0 17.9759 0H9.73369C8.21302 0 6.75463 0.602039 5.67936 1.67368C4.60408 2.74531 4 4.19876 4 5.71429V34.2857C4 35.8012 4.60408 37.2547 5.67936 38.3263C6.75463 39.398 8.21302 40 9.73369 40H29.8016C31.3223 40 32.7806 39.398 33.8559 38.3263C34.9312 37.2547 35.5353 35.8012 35.5353 34.2857V17.5C35.5353 17.4053 35.4975 17.3144 35.4303 17.2475C35.3631 17.1805 35.272 17.1429 35.1769 17.1429Z" fill="#B8364F"/>
<path id="Vector_2" d="M34.3219 13.9711L21.564 1.21322C21.5392 1.18855 21.5076 1.17177 21.4733 1.16499C21.439 1.15821 21.4034 1.16172 21.3711 1.17509C21.3388 1.18845 21.3111 1.21108 21.2916 1.24012C21.2721 1.26916 21.2616 1.30332 21.2615 1.3383V12.8542C21.2615 13.2307 21.411 13.5917 21.6772 13.8579C21.9434 14.1241 22.3044 14.2737 22.6809 14.2737H34.1968C34.2318 14.2735 34.266 14.263 34.295 14.2435C34.324 14.224 34.3467 14.1964 34.36 14.164C34.3734 14.1317 34.3769 14.0961 34.3701 14.0618C34.3634 14.0275 34.3466 13.9959 34.3219 13.9711Z" fill="#B8364F"/>
</g>
<path id="Vector_3" d="M26.5601 21.0583C28.0816 19.5366 30.5488 19.5366 32.0706 21.0583C33.5921 22.5799 33.5921 25.0471 32.0706 26.5687L22.0083 36.631C21.4217 37.2176 20.6866 37.6336 19.8817 37.8351L16.7608 38.6151C15.4036 38.9545 14.1743 37.725 14.5136 36.3679L15.2938 33.2471C15.495 32.4422 15.9112 31.7071 16.4979 31.1204L26.5601 21.0583ZM28.4542 22.9524L18.392 33.0146C18.1487 33.2578 17.9761 33.563 17.8926 33.8967L17.4461 35.6827L19.232 35.2361C19.5659 35.1525 19.8708 34.98 20.1142 34.7368L30.1764 24.6746C30.6519 24.199 30.6519 23.428 30.1764 22.9524C29.7007 22.4769 28.9297 22.4769 28.4542 22.9524Z" fill="white"/>
</g>
<defs>
<filter id="filter0_d_1657_1964" x="0" y="0" width="39.5352" height="48" filterUnits="userSpaceOnUse" color-interpolation-filters="sRGB">
<feFlood flood-opacity="0" result="BackgroundImageFix"/>
<feColorMatrix in="SourceAlpha" type="matrix" values="0 0 0 0 0 0 0 0 0 0 0 0 0 0 0 0 0 0 127 0" result="hardAlpha"/>
<feOffset dy="4"/>
<feGaussianBlur stdDeviation="2"/>
<feComposite in2="hardAlpha" operator="out"/>
<feColorMatrix type="matrix" values="0 0 0 0 0 0 0 0 0 0 0 0 0 0 0 0 0 0 0.25 0"/>
<feBlend mode="normal" in2="BackgroundImageFix" result="effect1_dropShadow_1657_1964"/>
<feBlend mode="normal" in="SourceGraphic" in2="effect1_dropShadow_1657_1964" result="shape"/>
</filter>
</defs>
</svg>
