<svg width="18" height="18" viewBox="0 0 18 18" fill="none" xmlns="http://www.w3.org/2000/svg">
<path d="M0.688997 17.5806C0.422476 17.4235 0.378406 17.322 0.454654 17.0148C0.789729 15.6643 1.1262 14.3139 1.46093 12.9635C1.48611 12.8623 1.53438 12.7794 1.60783 12.7063C4.71164 9.60156 7.81545 6.49617 10.9161 3.38832C11.0022 3.30189 11.0431 3.31309 11.1228 3.39287C12.2771 4.55293 13.4341 5.71055 14.5939 6.86536C14.6768 6.94794 14.6946 6.99064 14.6005 7.08442C11.5016 10.1786 8.40586 13.276 5.31044 16.3737C5.22509 16.459 5.12996 16.5143 5.01104 16.5437C3.67179 16.8755 2.33394 17.2107 0.99539 17.5446C0.968109 17.5512 0.939778 17.553 0.923689 17.5806H0.688997Z" fill="#41BAEA"/>
<path d="M17.5791 3.59781C17.5518 3.69264 17.5266 3.78818 17.4969 3.88231C17.4007 4.18606 17.2328 4.44572 17.0079 4.67003C16.6207 5.05672 16.2318 5.44096 15.8498 5.8329C15.7641 5.92073 15.7194 5.90673 15.6403 5.8273C14.4826 4.66409 13.3224 3.50367 12.1598 2.34536C12.0839 2.26978 12.0759 2.22673 12.1563 2.148C12.5547 1.75711 12.9419 1.35467 13.3431 0.966938C14.1049 0.230657 15.2668 0.242905 16.0212 0.987934C16.2398 1.2035 16.449 1.42886 16.6739 1.63743C17.1013 2.03391 17.4759 2.46014 17.5787 3.06135V3.59781H17.5791Z" fill="#41BAEA"/>
</svg>
