<svg width="40" height="40" viewBox="0 0 40 40" fill="none" xmlns="http://www.w3.org/2000/svg">
<path id="Vector" d="M20 0C8.97212 0 0 8.97212 0 20C0 31.0279 8.97212 40 20 40C31.0279 40 40 31.0279 40 20C40 8.97212 31.0279 0 20 0ZM20 30.7606C19.6197 30.7606 19.2478 30.6478 18.9316 30.4365C18.6153 30.2252 18.3689 29.9248 18.2233 29.5734C18.0778 29.222 18.0397 28.8354 18.1139 28.4623C18.1881 28.0893 18.3712 27.7466 18.6402 27.4777C18.9091 27.2087 19.2518 27.0256 19.6248 26.9514C19.9979 26.8772 20.3845 26.9153 20.7359 27.0608C21.0873 27.2064 21.3877 27.4528 21.599 27.7691C21.8103 28.0853 21.9231 28.4572 21.9231 28.8375C21.9231 29.3475 21.7205 29.8367 21.3598 30.1973C20.9992 30.558 20.51 30.7606 20 30.7606ZM22.0885 11.4192L21.5365 23.15C21.5365 23.558 21.3745 23.9493 21.0859 24.2379C20.7974 24.5264 20.4061 24.6885 19.9981 24.6885C19.5901 24.6885 19.1987 24.5264 18.9102 24.2379C18.6217 23.9493 18.4596 23.558 18.4596 23.15L17.9077 11.425V11.4202C17.8956 11.1384 17.9407 10.8571 18.0402 10.5931C18.1397 10.3292 18.2915 10.0881 18.4867 9.88446C18.6818 9.68079 18.9161 9.5187 19.1755 9.40797C19.4349 9.29725 19.7141 9.24016 19.9962 9.24016C20.2782 9.24016 20.5574 9.29725 20.8168 9.40797C21.0762 9.5187 21.3105 9.68079 21.5056 9.88446C21.7008 10.0881 21.8526 10.3292 21.9522 10.5931C22.0517 10.8571 22.0967 11.1384 22.0846 11.4202L22.0885 11.4192Z" fill="#41BAEA"/>
</svg>
